<svg fill="none" height="80" viewBox="0 0 80 80" width="80" xmlns="http://www.w3.org/2000/svg"><rect fill="#fefefe" height="80" rx="8" width="80"/><g fill="#673ab7"><path d="m32 30c-1.1046 0-2-.8954-2-2s.8954-2 2-2h16c4.4183 0 8 3.5817 8 8s-3.5817 8-8 8h-16c-2.2091 0-4 1.7909-4 4s1.7909 4 4 4h18c1.1046 0 2 .8954 2 2s-.8954 2-2 2h-18c-4.4183 0-8-3.5817-8-8s3.5817-8 8-8h16c2.2091 0 4-1.7909 4-4s-1.7909-4-4-4z" opacity=".3"/><path d="m35.4142 32.5858c.7811.781.7811 2.0474 0 2.8284-.781.7811-2.0474.7811-2.8284 0l-6-6c-.7811-.781-.7811-2.0474 0-2.8284l6-6c.781-.7811 2.0474-.7811 2.8284 0 .7811.781.7811 2.0474 0 2.8284l-4.5858 4.5858z"/><path d="m44.5858 56.5858c-.7811.781-.7811 2.0474 0 2.8284.781.7811 2.0474.7811 2.8284 0l6-6c.7811-.781.7811-2.0474 0-2.8284l-6-6c-.781-.7811-2.0474-.7811-2.8284 0-.7811.781-.7811 2.0474 0 2.8284l4.5858 4.5858z"/></g></svg>