<svg xmlns="http://www.w3.org/2000/svg" width="68" height="68" fill="none" viewBox="0 0 68 68">
  <rect width="64" height="64" x="2" y="2" fill="#E9DFFF" rx="32"/>
  <rect width="3" height="7.5" x="32.5" y="19" fill="#111014" opacity=".3" rx="1"/>
  <rect width="3" height="7.5" x="32.5" y="40" fill="#111014" opacity=".3" rx="1"/>
  <path fill="#111014" fill-rule="evenodd" d="M42.813 37.129c0 1.102-.219 2.028-.656 2.779a5.202 5.202 0 0 1-1.738 1.81 7.575 7.575 0 0 1-2.466.983c-.921.2-1.867.299-2.836.299H26.5V22.822h8.617c.78 0 1.578.08 2.395.242a7.078 7.078 0 0 1 2.222.827c.666.39 1.207.917 1.625 1.582.418.665.627 1.51.627 2.536 0 1.121-.304 2.047-.912 2.779-.608.731-1.406 1.259-2.394 1.582.57.152 1.107.327 1.61.584.504.256.94.584 1.311.983.37.399.665.864.884 1.397.218.531.328 1.13.328 1.795Zm-5.53-8.464c0-.684-.26-1.183-.783-1.497-.523-.313-1.297-.47-2.323-.47h-2.394v4.161h2.622c.912 0 1.62-.185 2.123-.556.504-.37.755-.916.755-1.639Zm.656 8.008c0-.836-.313-1.416-.94-1.739-.628-.322-1.464-.484-2.509-.484h-2.707v4.617h2.736c.38 0 .774-.033 1.183-.1a3.722 3.722 0 0 0 1.111-.356c.333-.171.603-.413.813-.727.209-.313.313-.717.313-1.211Z" clip-rule="evenodd"/>
  <rect width="64" height="64" x="2" y="2" stroke="#D0C2E9" stroke-width="4" rx="32"/>
</svg>
