<svg fill="none" height="68" viewBox="0 0 252 68" width="252" xmlns="http://www.w3.org/2000/svg"><rect fill="#fedcff" height="64" rx="32" width="64" x="2" y="2"/><path clip-rule="evenodd" d="m48.1711 34.2513 3.1479-2.6127c-4.2474-5.1176-10.5398-8.1386-17.3212-8.1386-6.7721 0-13.0566 3.0126-17.3042 8.1181l3.1449 2.6164c3.4783-4.181 8.6156-6.6436 14.1593-6.6436 5.5514 0 10.695 2.4695 14.1733 6.6604zm-6.2781 5.2472 3.1563-2.6026c-2.702-3.2768-6.7206-5.2141-11.0515-5.2141-4.3168 0-8.3235 1.9246-11.0258 5.183l3.1489 2.6115c1.9332-2.331 4.7907-3.7036 7.8769-3.7036 3.0963 0 5.9623 1.3817 7.8952 3.7258z" fill="#151a20" fill-rule="evenodd" opacity=".3"/><path clip-rule="evenodd" d="m38.6785 42.0318-3.1196 2.6464-1.616 1.3218-1.5431-1.2771-3.1924-2.5581c1.1559-1.4426 2.9047-2.3012 4.7904-2.3012 1.8249 0 3.5234.804 4.6807 2.1682z" fill="#151a20" fill-rule="evenodd"/><rect height="64" rx="32" stroke="#d0c2e9" stroke-width="4" width="64" x="2" y="2"/><rect fill="#e6ffda" height="64" rx="32" width="64" x="48" y="2"/><path clip-rule="evenodd" d="m74 19.75c-1.0355 0-1.875.8395-1.875 1.875v24.75c0 1.0355.8395 1.875 1.875 1.875h12c1.0355 0 1.875-.8395 1.875-1.875v-24.75c0-1.0355-.8395-1.875-1.875-1.875z" fill="#151a20" fill-rule="evenodd" opacity=".3"/><path clip-rule="evenodd" d="m74 17.5h12c2.2782 0 4.125 1.8468 4.125 4.125v24.75c0 2.2782-1.8468 4.125-4.125 4.125h-12c-2.2782 0-4.125-1.8468-4.125-4.125v-24.75c0-2.2782 1.8468-4.125 4.125-4.125zm0 2.25c-1.0355 0-1.875.8395-1.875 1.875v24.75c0 1.0355.8395 1.875 1.875 1.875h12c1.0355 0 1.875-.8395 1.875-1.875v-24.75c0-1.0355-.8395-1.875-1.875-1.875h-1.5v-.625c0-.2761-.2239-.5-.5-.5h-8c-.2761 0-.5.2239-.5.5v.625zm1.5 0v1.375c0 .2761.2239.5.5.5h8c.2761 0 .5-.2239.5-.5v-1.375z" fill="#151a20" fill-rule="evenodd"/><rect height="64" rx="32" stroke="#d0c2e9" stroke-width="4" width="64" x="48" y="2"/><rect fill="#ccceff" height="64" rx="32" width="64" x="94" y="2"/><path d="m130.522 23.5h-9.423c-.21 0-.397.1306-.47.3271l-4.881 13.25c-.12.3265.121.6729.469.6729h7.643c.325 0 .564.3057.485.6213l-2.336 9.3409c-.127.5109.52.8466.864.4481l12.163-14.0835c.28-.324.05-.8268-.378-.8268h-6.43c-.351 0-.593-.352-.467-.6795l3.228-8.391c.126-.3275-.116-.6795-.467-.6795z" fill="#151a20"/><rect height="64" rx="32" stroke="#d0c2e9" stroke-width="4" width="64" x="94" y="2"/><rect fill="#e9dfff" height="64" rx="32" width="64" x="140" y="2"/><g clip-rule="evenodd" fill="#151a20" fill-rule="evenodd"><path d="m161.5 26.5v12h21v-12z" opacity=".3"/><path d="m171.5 38.5c-.552 0-1 .4477-1 1v5h-2.25c-.414 0-.75.3358-.75.75s.336.75.75.75h3.25 1 3.25c.414 0 .75-.3358.75-.75s-.336-.75-.75-.75h-2.25v-5c0-.5523-.448-1-1-1z" opacity=".3"/><path d="m182.125 23.5h-20.25c-1.864 0-3.375 1.3431-3.375 3v12c0 1.6569 1.511 3 3.375 3h20.25c1.864 0 3.375-1.3431 3.375-3v-12c0-1.6569-1.511-3-3.375-3zm-20.625 15v-12h21v12z"/></g><rect height="64" rx="32" stroke="#d0c2e9" stroke-width="4" width="64" x="140" y="2"/><rect fill="#e9dfff" height="64" rx="32" width="64" x="186" y="2"/><path clip-rule="evenodd" d="m209.204 32.6287-5.657 5.6569c-.39.3905-.39 1.0237 0 1.4142l2.528 2.5279c1.456-.9647 3.437-.8056 4.72.4773 1.283 1.2828 1.442 3.2639.477 4.7199l2.528 2.5279c.391.3906 1.024.3906 1.414 0l5.657-5.6568-2.475-2.4749c-.39-.3905-.39-1.0237 0-1.4142l.708-.7071c.39-.3905 1.023-.3905 1.414 0l2.475 2.4749 10.96-10.9602c.39-.3905.39-1.0237 0-1.4142l-2.528-2.5279c-1.456.9646-3.437.8055-4.72-.4773-1.283-1.2829-1.442-3.2639-.477-4.7199l-2.528-2.528c-.391-.3905-1.024-.3905-1.414 0l-10.961 10.9602 2.475 2.4749c.391.3905.391 1.0237 0 1.4142l-.707.7071c-.39.3905-1.024.3905-1.414 0zm4.95 4.9498c-.391-.3906-.391-1.0237 0-1.4143l.707-.7071c.39-.3905 1.024-.3905 1.414 0l1.768 1.7678c.39.3905.39 1.0237 0 1.4142l-.707.7071c-.391.3906-1.024.3906-1.414 0z" fill="#673ab7" fill-rule="evenodd"/><rect height="64" rx="32" stroke="#d0c2e9" stroke-width="4" width="64" x="186" y="2"/></svg>