<svg fill="none" height="80" viewBox="0 0 80 80" width="80" xmlns="http://www.w3.org/2000/svg"><rect fill="#fefefe" height="80" rx="8" width="80"/><g clip-rule="evenodd" fill="#673ab7" fill-rule="evenodd"><path d="m46 57.5229c0 .7421.9624 1.0335 1.374.416l13.8486-20.7729c.3323-.4984-.025-1.166-.624-1.166h-10.5986v-13.5229c0-.7421-.9624-1.0335-1.374-.416l-13.8486 20.7729c-.3323.4984.025 1.166.624 1.166h10.5986z"/><path d="m22 27.5c0-.8284.6716-1.5 1.5-1.5h13c.8284 0 1.5.6716 1.5 1.5v3c0 .8284-.6716 1.5-1.5 1.5h-13c-.8284 0-1.5-.6716-1.5-1.5zm0 24c0-.8284.6716-1.5 1.5-1.5h13c.8284 0 1.5.6716 1.5 1.5v3c0 .8284-.6716 1.5-1.5 1.5h-13c-.8284 0-1.5-.6716-1.5-1.5zm-2.5-13.5c-.8284 0-1.5.6716-1.5 1.5v3c0 .8284.6716 1.5 1.5 1.5h11c.8284 0 1.5-.6716 1.5-1.5v-3c0-.8284-.6716-1.5-1.5-1.5z" opacity=".3"/></g></svg>