<svg fill="none" height="56" viewBox="0 0 149 56" width="149" xmlns="http://www.w3.org/2000/svg" xmlns:xlink="http://www.w3.org/1999/xlink"><clipPath id="a"><path d="m18.5 16h24v24h-24z"/></clipPath><rect fill="#673ab7" height="55" rx="7.5" width="148" x=".5" y=".5"/><g clip-path="url(#a)"><path d="m37.0497 28.7504c.0338 3.632 3.1862 4.8407 3.2212 4.8561-.0267.0852-.5038 1.7223-1.6609 3.4134-1.0004 1.4621-2.0385 2.9187-3.674 2.9489-1.607.0296-2.1237-.953-3.961-.953-1.8367 0-2.4108.9228-3.932.9826-1.5786.0598-2.7808-1.5809-3.7894-3.0376-2.061-2.9797-3.636-8.4199-1.5211-12.0921 1.0506-1.8236 2.9281-2.9784 4.966-3.008 1.5502-.0296 3.0134 1.0429 3.961 1.0429.9471 0 2.7252-1.2898 4.5944-1.1003.7825.0325 2.9791.3161 4.3895 2.3806-.1136.0705-2.6209 1.5301-2.5937 4.5665zm-3.0201-8.9184c.8381-1.0145 1.4022-2.4268 1.2483-3.832-1.2081.0486-2.6689.805-3.5354 1.819-.7766.8978-1.4567 2.335-1.2732 3.7124 1.3465.1041 2.7221-.6843 3.5603-1.6994z" fill="#f0ebf8"/></g><path d="m62.676 24-1.274-3.206h-3.948l-1.274 3.206h-1.344l3.948-9.604h1.288l3.948 9.604zm-4.774-4.326h3.052l-1.526-3.836zm8.1969 4.326-2.8-7h1.204l2.114 5.754 2.128-5.754h1.204l-2.8 7zm7.6883.14c-2.044 0-3.416-1.456-3.416-3.64s1.372-3.64 3.416-3.64c.952 0 1.946.532 2.492 1.316v-1.176h1.12v7h-1.12v-1.176c-.546.784-1.54 1.316-2.492 1.316zm.112-.98c1.428 0 2.38-1.064 2.38-2.66s-.952-2.66-2.38-2.66c-1.442 0-2.408 1.064-2.408 2.66s.966 2.66 2.408 2.66zm5.1752-7.224v-1.54h1.12v1.54zm0 8.064v-7h1.12v7zm2.9394 0v-9.604h1.12v9.604zm5.8828.14c-2.044 0-3.416-1.456-3.416-3.64s1.372-3.64 3.416-3.64c.952 0 1.946.532 2.492 1.316v-1.176h1.12v7h-1.12v-1.176c-.546.784-1.54 1.316-2.492 1.316zm.112-.98c1.428 0 2.38-1.064 2.38-2.66s-.952-2.66-2.38-2.66c-1.442 0-2.408 1.064-2.408 2.66s.966 2.66 2.408 2.66zm8.8432.98c-.98 0-2.002-.532-2.548-1.33v1.19h-1.12v-9.604h1.12v3.794c.546-.798 1.568-1.33 2.548-1.33 2.086 0 3.4722 1.456 3.4722 3.64s-1.3862 3.64-3.4722 3.64zm-.112-.98c1.484 0 2.464-1.064 2.464-2.66s-.98-2.66-2.464-2.66c-1.456 0-2.436 1.064-2.436 2.66s.98 2.66 2.436 2.66zm4.7972.84v-9.604h1.12v9.604zm5.981.14c-2.114 0-3.514-1.456-3.514-3.64s1.4-3.64 3.514-3.64 3.514 1.498 3.514 3.752l-.112.112h-5.782c.056 1.456 1.008 2.436 2.38 2.436 1.036 0 1.932-.616 2.24-1.54h1.12c-.448 1.512-1.792 2.52-3.36 2.52zm-2.324-4.396h4.648c-.266-1.218-1.106-1.904-2.324-1.904s-2.058.686-2.324 1.904zm13.152 4.396c-2.114 0-3.514-1.456-3.514-3.64s1.4-3.64 3.514-3.64 3.514 1.456 3.514 3.64-1.4 3.64-3.514 3.64zm0-.98c1.442 0 2.394-1.064 2.394-2.66s-.952-2.66-2.394-2.66-2.394 1.064-2.394 2.66.952 2.66 2.394 2.66zm4.724.84v-7h1.12v.896c.49-.616 1.372-1.036 2.184-1.036 1.75 0 2.912 1.12 2.912 2.8v4.34h-1.12v-4.144c0-1.204-.798-2.016-1.988-2.016s-1.988.812-1.988 2.016v4.144z" fill="#f0ebf8"/><path d="m63.892 45-1.104-2.816h-4.448l-1.088 2.816h-2.304l4.528-10.976h2.208l4.496 10.976zm-4.8-4.736h2.944l-1.472-3.776zm12.7513-3.488c2.528 0 4.224 1.696 4.224 4.224s-1.696 4.224-4.224 4.224c-.976 0-2.048-.448-2.656-1.104v3.856h-1.92v-10.976h1.92v.88c.608-.656 1.68-1.104 2.656-1.104zm-.192 1.696c-1.472 0-2.464 1.008-2.464 2.528s.992 2.528 2.464 2.528c1.504 0 2.496-1.008 2.496-2.528s-.992-2.528-2.496-2.528zm10.1451-1.696c2.528 0 4.224 1.696 4.224 4.224s-1.696 4.224-4.224 4.224c-.976 0-2.048-.448-2.656-1.104v3.856h-1.92v-10.976h1.92v.88c.608-.656 1.68-1.104 2.656-1.104zm-.192 1.696c-1.472 0-2.464 1.008-2.464 2.528s.992 2.528 2.464 2.528c1.504 0 2.496-1.008 2.496-2.528s-.992-2.528-2.496-2.528zm13.304 6.752c-2.96 0-4.96-1.6-5.008-4h2.032c.048 1.248 1.232 2.08 2.976 2.08 1.648 0 2.752-.608 2.752-1.504 0-2.24-7.152-.88-7.152-4.768 0-1.936 1.76-3.232 4.4-3.232 2.208 0 4.016 1.264 4.528 3.152l-1.968.496c-.256-1.04-1.28-1.728-2.56-1.728-1.36 0-2.272.528-2.272 1.312 0 1.696 7.152.752 7.152 4.768 0 2.048-1.952 3.424-4.88 3.424zm9.1946 0c-1.6 0-2.656-.912-2.656-2.272v-4.352h-1.28v-1.6h1.28v-2.976h1.92v2.976h2.016v1.6h-2.016v4.352c0 .4.288.672.704.672h1.392v1.376c-.288.128-.832.224-1.36.224zm6.243 0c-2.608 0-4.336-1.696-4.336-4.224s1.728-4.224 4.336-4.224 4.336 1.696 4.336 4.224-1.728 4.224-4.336 4.224zm0-1.696c1.456 0 2.416-1.008 2.416-2.528s-.96-2.528-2.416-2.528-2.416 1.008-2.416 2.528.96 2.528 2.416 2.528zm5.328 1.472v-8h1.92v.944c.416-.656 1.2-1.104 1.936-1.104.288 0 .624.064.848.16v1.472h-.656c-1.28 0-2.128.72-2.128 1.792v4.736zm9.109.224c-2.608 0-4.336-1.696-4.336-4.224s1.728-4.224 4.336-4.224 4.336 1.696 4.336 4.224v.368l-.16.16h-6.56c.176 1.264 1.136 2.096 2.384 2.096.944 0 1.824-.544 2.192-1.344h1.952c-.528 1.76-2.192 2.944-4.144 2.944zm-2.256-5.296h4.512c-.368-.992-1.184-1.552-2.256-1.552s-1.888.56-2.256 1.552z" fill="#f0ebf8"/><rect height="55" rx="7.5" stroke="#d0c2e9" width="148" x=".5" y=".5"/></svg>