<svg fill="none" height="221" viewBox="0 0 435 221" width="435" xmlns="http://www.w3.org/2000/svg" xmlns:xlink="http://www.w3.org/1999/xlink"><linearGradient id="a"><stop offset="0" stop-color="#9747ff"/><stop offset="1" stop-color="#231f20" stop-opacity="0"/></linearGradient><linearGradient id="b" gradientUnits="userSpaceOnUse" x1="433.422" x2="471.074" xlink:href="#a" y1="223.048" y2="223.048"/><linearGradient id="c"><stop offset="0" stop-color="#892fff"/><stop offset="1" stop-color="#e2ccff"/></linearGradient><linearGradient id="d" gradientUnits="userSpaceOnUse" x1="421.656" x2="459.308" xlink:href="#c" y1="223.067" y2="223.067"/><linearGradient id="e" gradientUnits="userSpaceOnUse" x1="409.89" x2="447.542" xlink:href="#a" y1="223.086" y2="223.086"/><linearGradient id="f" gradientUnits="userSpaceOnUse" x1="398.123" x2="435.775" xlink:href="#c" y1="223.106" y2="223.106"/><linearGradient id="g" gradientUnits="userSpaceOnUse" x1="386.356" x2="424.009" xlink:href="#a" y1="223.125" y2="223.125"/><linearGradient id="h" gradientUnits="userSpaceOnUse" x1="374.59" x2="412.242" xlink:href="#c" y1="223.144" y2="223.144"/><linearGradient id="i" gradientUnits="userSpaceOnUse" x1="362.824" x2="400.476" xlink:href="#a" y1="223.163" y2="223.163"/><linearGradient id="j" gradientUnits="userSpaceOnUse" x1="351.058" x2="388.71" xlink:href="#c" y1="223.182" y2="223.182"/><linearGradient id="k" gradientUnits="userSpaceOnUse" x1="339.292" x2="376.944" xlink:href="#a" y1="223.201" y2="223.201"/><linearGradient id="l" gradientUnits="userSpaceOnUse" x1="327.525" x2="365.178" xlink:href="#c" y1="223.221" y2="223.221"/><linearGradient id="m" gradientUnits="userSpaceOnUse" x1="315.759" x2="353.411" xlink:href="#a" y1="223.24" y2="223.24"/><linearGradient id="n" gradientUnits="userSpaceOnUse" x1="303.992" x2="341.644" xlink:href="#c" y1="223.259" y2="223.259"/><linearGradient id="o" gradientUnits="userSpaceOnUse" x1="292.226" x2="329.878" xlink:href="#a" y1="223.278" y2="223.278"/><linearGradient id="p" gradientUnits="userSpaceOnUse" x1="280.46" x2="318.112" xlink:href="#c" y1="223.297" y2="223.297"/><linearGradient id="q" gradientUnits="userSpaceOnUse" x1="268.693" x2="306.346" xlink:href="#a" y1="223.317" y2="223.317"/><linearGradient id="r" gradientUnits="userSpaceOnUse" x1="256.927" x2="294.579" xlink:href="#c" y1="223.336" y2="223.336"/><linearGradient id="s" gradientUnits="userSpaceOnUse" x1="245.161" x2="282.813" xlink:href="#a" y1="223.355" y2="223.355"/><linearGradient id="t" gradientUnits="userSpaceOnUse" x1="233.396" x2="271.048" xlink:href="#c" y1="223.374" y2="223.374"/><linearGradient id="u" gradientUnits="userSpaceOnUse" x1="221.629" x2="259.281" xlink:href="#a" y1="223.393" y2="223.393"/><linearGradient id="v" gradientUnits="userSpaceOnUse" x1="209.862" x2="247.515" xlink:href="#c" y1="223.413" y2="223.413"/><linearGradient id="w" gradientUnits="userSpaceOnUse" x1="198.096" x2="235.748" xlink:href="#a" y1="223.432" y2="223.432"/><linearGradient id="x" gradientUnits="userSpaceOnUse" x1="186.329" x2="223.981" xlink:href="#c" y1="223.451" y2="223.451"/><linearGradient id="y" gradientUnits="userSpaceOnUse" x1="174.563" x2="212.215" xlink:href="#a" y1="223.47" y2="223.47"/><linearGradient id="z" gradientUnits="userSpaceOnUse" x1="162.797" x2="200.449" xlink:href="#c" y1="223.489" y2="223.489"/><linearGradient id="A" gradientUnits="userSpaceOnUse" x1="151.031" x2="188.683" xlink:href="#a" y1="223.509" y2="223.509"/><linearGradient id="B" gradientUnits="userSpaceOnUse" x1="139.265" x2="176.917" xlink:href="#c" y1="223.528" y2="223.528"/><linearGradient id="C" gradientUnits="userSpaceOnUse" x1="127.498" x2="165.15" xlink:href="#a" y1="223.547" y2="223.547"/><linearGradient id="D" gradientUnits="userSpaceOnUse" x1="115.731" x2="153.384" xlink:href="#c" y1="223.566" y2="223.566"/><linearGradient id="E" gradientUnits="userSpaceOnUse" x1="103.966" x2="141.618" xlink:href="#a" y1="223.586" y2="223.586"/><linearGradient id="F" gradientUnits="userSpaceOnUse" x1="92.1992" x2="129.851" xlink:href="#c" y1="223.605" y2="223.605"/><linearGradient id="G" gradientUnits="userSpaceOnUse" x1="80.4326" x2="118.085" xlink:href="#a" y1="223.624" y2="223.624"/><linearGradient id="H" gradientUnits="userSpaceOnUse" x1="68.666" x2="106.318" xlink:href="#c" y1="223.643" y2="223.643"/><linearGradient id="I" gradientUnits="userSpaceOnUse" x1="56.9004" x2="94.5526" xlink:href="#a" y1="223.662" y2="223.662"/><linearGradient id="J" gradientUnits="userSpaceOnUse" x1="45.1338" x2="82.786" xlink:href="#c" y1="223.682" y2="223.682"/><linearGradient id="K" gradientUnits="userSpaceOnUse" x1="33.3682" x2="71.0204" xlink:href="#a" y1="223.701" y2="223.701"/><linearGradient id="L" gradientUnits="userSpaceOnUse" x1="21.6016" x2="59.2538" xlink:href="#c" y1="223.72" y2="223.72"/><linearGradient id="M" gradientUnits="userSpaceOnUse" x1="9.83496" x2="47.4872" xlink:href="#a" y1="223.739" y2="223.739"/><linearGradient id="N" gradientUnits="userSpaceOnUse" x1="-1.93164" x2="35.7206" xlink:href="#c" y1="223.758" y2="223.758"/><linearGradient id="O" gradientUnits="userSpaceOnUse" x1="-13.6973" x2="23.9549" xlink:href="#a" y1="223.771" y2="223.771"/><linearGradient id="P" gradientUnits="userSpaceOnUse" x1="-25.4639" x2="12.1883" xlink:href="#c" y1="223.79" y2="223.79"/><clipPath id="Q"><path d="m-25 0h626v447h-626z"/></clipPath><mask id="R" height="447" maskUnits="userSpaceOnUse" width="626" x="-25" y="0"><g clip-path="url(#Q)" fill="none"><path d="m433.422 766.118c0-90.508 37.652-90.508 37.652-181.017 0-90.508-37.652-90.508-37.652-181.017 0-90.508 37.652-90.508 37.652-181.03 0-90.521-37.652-90.508-37.652-181.0167 0-90.5084 37.652-90.5214 37.652-181.0303 0-90.508-37.652-90.521-37.652-181.03" stroke="url(#b)" stroke-miterlimit="10" stroke-width=".714286"/><path d="m421.656 766.137c0-90.508 37.652-90.508 37.652-181.017 0-90.508-37.652-90.508-37.652-181.017 0-90.508 37.652-90.508 37.652-181.03 0-90.521-37.652-90.508-37.652-181.0165s37.652-90.5215 37.652-181.0295c0-90.509-37.652-90.522-37.652-181.03" stroke="url(#d)" stroke-miterlimit="10" stroke-width=".714286"/><path d="m409.89 766.156c0-90.508 37.652-90.508 37.652-181.016 0-90.509-37.652-90.509-37.652-181.017 0-90.509 37.652-90.509 37.652-181.03 0-90.522-37.652-90.509-37.652-181.0172 0-90.5085 37.652-90.5215 37.652-181.0298 0-90.509-37.652-90.522-37.652-181.03" stroke="url(#e)" stroke-miterlimit="10" stroke-width=".714286"/><path d="m398.123 766.176c0-90.509 37.652-90.509 37.652-181.017 0-90.509-37.652-90.509-37.652-181.017s37.652-90.508 37.652-181.03c0-90.521-37.652-90.508-37.652-181.0169 0-90.5085 37.652-90.5215 37.652-181.0301 0-90.508-37.652-90.521-37.652-181.03" stroke="url(#f)" stroke-miterlimit="10" stroke-width=".714286"/><path d="m386.356 766.195c0-90.509 37.653-90.509 37.653-181.017s-37.653-90.508-37.653-181.017c0-90.508 37.653-90.508 37.653-181.03 0-90.521-37.653-90.508-37.653-181.0168 0-90.5084 37.653-90.5214 37.653-181.0302 0-90.508-37.653-90.521-37.653-181.03" stroke="url(#g)" stroke-miterlimit="10" stroke-width=".714286"/><path d="m374.59 766.214c0-90.508 37.652-90.508 37.652-181.017 0-90.508-37.652-90.508-37.652-181.017 0-90.508 37.652-90.508 37.652-181.03 0-90.521-37.652-90.508-37.652-181.0166 0-90.5084 37.652-90.5215 37.652-181.0304 0-90.508-37.652-90.521-37.652-181.029" stroke="url(#h)" stroke-miterlimit="10" stroke-width=".714286"/><path d="m362.824 766.233c0-90.508 37.652-90.508 37.652-181.017 0-90.508-37.652-90.508-37.652-181.016 0-90.509 37.652-90.509 37.652-181.03 0-90.522-37.652-90.509-37.652-181.0173 0-90.5085 37.652-90.5215 37.652-181.0297 0-90.509-37.652-90.522-37.652-181.03" stroke="url(#i)" stroke-miterlimit="10" stroke-width=".714286"/><path d="m351.058 766.253c0-90.509 37.652-90.509 37.652-181.017 0-90.509-37.652-90.509-37.652-181.017 0-90.509 37.652-90.509 37.652-181.03 0-90.522-37.652-90.509-37.652-181.0171 0-90.5085 37.652-90.5215 37.652-181.0299 0-90.509-37.652-90.522-37.652-181.03" stroke="url(#j)" stroke-miterlimit="10" stroke-width=".714286"/><path d="m339.292 766.272c0-90.509 37.652-90.509 37.652-181.017 0-90.509-37.652-90.509-37.652-181.017 0-90.509 37.652-90.509 37.652-181.03 0-90.522-37.652-90.509-37.652-181.017 0-90.5085 37.652-90.5215 37.652-181.03 0-90.508-37.652-90.521-37.652-181.03" stroke="url(#k)" stroke-miterlimit="10" stroke-width=".714286"/><path d="m327.525 766.291c0-90.508 37.653-90.508 37.653-181.017 0-90.508-37.653-90.508-37.653-181.017 0-90.508 37.653-90.508 37.653-181.03 0-90.521-37.653-90.508-37.653-181.0167 0-90.5085 37.653-90.5215 37.653-181.0303 0-90.508-37.653-90.521-37.653-181.03" stroke="url(#l)" stroke-miterlimit="10" stroke-width=".714286"/><path d="m315.759 766.31c0-90.508 37.652-90.508 37.652-181.017 0-90.508-37.652-90.508-37.652-181.017 0-90.508 37.652-90.508 37.652-181.03 0-90.521-37.652-90.508-37.652-181.0165 0-90.5084 37.652-90.5214 37.652-181.0295 0-90.509-37.652-90.522-37.652-181.03" stroke="url(#m)" stroke-miterlimit="10" stroke-width=".714286"/><path d="m303.992 766.329c0-90.508 37.652-90.508 37.652-181.017 0-90.508-37.652-90.508-37.652-181.016 0-90.509 37.652-90.509 37.652-181.03 0-90.522-37.652-90.509-37.652-181.0173 0-90.5085 37.652-90.5215 37.652-181.0297 0-90.509-37.652-90.522-37.652-181.03" stroke="url(#n)" stroke-miterlimit="10" stroke-width=".714286"/><path d="m292.226 766.349c0-90.509 37.652-90.509 37.652-181.017 0-90.509-37.652-90.509-37.652-181.017 0-90.509 37.652-90.509 37.652-181.03 0-90.522-37.652-90.509-37.652-181.017 0-90.5085 37.652-90.5215 37.652-181.03 0-90.508-37.652-90.521-37.652-181.03" stroke="url(#o)" stroke-miterlimit="10" stroke-width=".714286"/><path d="m280.46 766.368c0-90.509 37.652-90.509 37.652-181.017 0-90.509-37.652-90.509-37.652-181.017 0-90.509 37.652-90.509 37.652-181.03 0-90.522-37.652-90.509-37.652-181.017 0-90.5084 37.652-90.5214 37.652-181.03 0-90.508-37.652-90.521-37.652-181.03" stroke="url(#p)" stroke-miterlimit="10" stroke-width=".714286"/><path d="m268.693 766.387c0-90.508 37.653-90.508 37.653-181.017 0-90.508-37.653-90.508-37.653-181.017 0-90.508 37.653-90.508 37.653-181.03 0-90.521-37.653-90.508-37.653-181.0167 0-90.5084 37.653-90.5215 37.653-181.0303 0-90.508-37.653-90.521-37.653-181.03" stroke="url(#q)" stroke-miterlimit="10" stroke-width=".714286"/><path d="m256.927 766.406c0-90.508 37.652-90.508 37.652-181.017 0-90.508-37.652-90.508-37.652-181.017 0-90.508 37.652-90.508 37.652-181.03 0-90.521-37.652-90.508-37.652-181.0166 0-90.5084 37.652-90.5215 37.652-181.0304 0-90.508-37.652-90.521-37.652-181.029" stroke="url(#r)" stroke-miterlimit="10" stroke-width=".714286"/><path d="m245.161 766.426c0-90.509 37.652-90.509 37.652-181.017 0-90.509-37.652-90.509-37.652-181.017 0-90.509 37.652-90.509 37.652-181.03 0-90.522-37.652-90.509-37.652-181.0172 0-90.5084 37.652-90.5214 37.652-181.0298 0-90.509-37.652-90.522-37.652-181.03" stroke="url(#s)" stroke-miterlimit="10" stroke-width=".714286"/><path d="m233.396 766.444c0-90.508 37.652-90.508 37.652-181.016 0-90.509-37.652-90.509-37.652-181.017 0-90.509 37.652-90.509 37.652-181.03 0-90.522-37.652-90.509-37.652-181.0172 0-90.5085 37.652-90.5215 37.652-181.0298 0-90.509-37.652-90.522-37.652-181.03" stroke="url(#t)" stroke-miterlimit="10" stroke-width=".714286"/><path d="m221.629 766.464c0-90.509 37.652-90.509 37.652-181.017 0-90.509-37.652-90.509-37.652-181.017 0-90.509 37.652-90.509 37.652-181.03 0-90.522-37.652-90.509-37.652-181.017 0-90.5084 37.652-90.5214 37.652-181.03 0-90.508-37.652-90.521-37.652-181.03" stroke="url(#u)" stroke-miterlimit="10" stroke-width=".714286"/><path d="m209.862 766.483c0-90.509 37.653-90.509 37.653-181.017s-37.653-90.508-37.653-181.017c0-90.508 37.653-90.508 37.653-181.03 0-90.521-37.653-90.508-37.653-181.0168 0-90.5084 37.653-90.5215 37.653-181.0302 0-90.508-37.653-90.521-37.653-181.03" stroke="url(#v)" stroke-miterlimit="10" stroke-width=".714286"/><path d="m198.096 766.502c0-90.508 37.652-90.508 37.652-181.017 0-90.508-37.652-90.508-37.652-181.017 0-90.508 37.652-90.508 37.652-181.03 0-90.521-37.652-90.508-37.652-181.0165s37.652-90.5215 37.652-181.0295c0-90.509-37.652-90.522-37.652-181.03" stroke="url(#w)" stroke-miterlimit="10" stroke-width=".714286"/><path d="m186.329 766.521c0-90.508 37.652-90.508 37.652-181.016 0-90.509-37.652-90.509-37.652-181.017 0-90.509 37.652-90.509 37.652-181.03 0-90.522-37.652-90.509-37.652-181.0172 0-90.5085 37.652-90.5215 37.652-181.0298 0-90.509-37.652-90.522-37.652-181.03" stroke="url(#x)" stroke-miterlimit="10" stroke-width=".714286"/><path d="m174.562 766.541c.001-90.509 37.653-90.509 37.653-181.017 0-90.509-37.652-90.509-37.652-181.017 0-90.509 37.652-90.509 37.652-181.03 0-90.522-37.652-90.509-37.652-181.0171 0-90.5084 37.652-90.5214 37.652-181.0299 0-90.508-37.652-90.521-37.652-181.03" stroke="url(#y)" stroke-miterlimit="10" stroke-width=".714286"/><path d="m162.797 766.56c0-90.509 37.652-90.509 37.652-181.017 0-90.509-37.652-90.509-37.652-181.017 0-90.509 37.652-90.509 37.652-181.03 0-90.522-37.652-90.509-37.652-181.0171 0-90.5085 37.652-90.5215 37.652-181.0299 0-90.509-37.652-90.522-37.652-181.03" stroke="url(#z)" stroke-miterlimit="10" stroke-width=".714286"/><path d="m151.031 766.579c0-90.508 37.652-90.508 37.652-181.017 0-90.508-37.652-90.508-37.652-181.017 0-90.508 37.652-90.508 37.652-181.03 0-90.521-37.652-90.508-37.652-181.0167 0-90.5084 37.652-90.5214 37.652-181.0303 0-90.508-37.652-90.521-37.652-181.03" stroke="url(#A)" stroke-miterlimit="10" stroke-width=".714286"/><path d="m139.265 766.598c0-90.508 37.652-90.508 37.652-181.017 0-90.508-37.652-90.508-37.652-181.016 0-90.509 37.652-90.509 37.652-181.03 0-90.522-37.652-90.509-37.652-181.0173 0-90.5085 37.652-90.5215 37.652-181.0297 0-90.509-37.652-90.522-37.652-181.03" stroke="url(#B)" stroke-miterlimit="10" stroke-width=".714286"/><path d="m127.498 766.617c0-90.508 37.652-90.508 37.652-181.017 0-90.508-37.652-90.508-37.652-181.016 0-90.509 37.652-90.509 37.652-181.03 0-90.522-37.652-90.509-37.652-181.0173 0-90.5085 37.652-90.5215 37.652-181.0297 0-90.509-37.652-90.522-37.652-181.03" stroke="url(#C)" stroke-miterlimit="10" stroke-width=".714286"/><path d="m115.731 766.637c0-90.509 37.653-90.509 37.653-181.017 0-90.509-37.653-90.509-37.653-181.017 0-90.509 37.653-90.509 37.653-181.03 0-90.522-37.653-90.509-37.653-181.017 0-90.5084 37.653-90.5215 37.653-181.03 0-90.508-37.653-90.521-37.653-181.03" stroke="url(#D)" stroke-miterlimit="10" stroke-width=".714286"/><path d="m103.966 766.656c0-90.509 37.652-90.509 37.652-181.017 0-90.509-37.652-90.509-37.652-181.017s37.652-90.508 37.652-181.03c0-90.521-37.652-90.508-37.652-181.0169 0-90.5084 37.652-90.5215 37.652-181.0301 0-90.508-37.652-90.521-37.652-181.03" stroke="url(#E)" stroke-miterlimit="10" stroke-width=".714286"/><path d="m92.1992 766.675c0-90.509 37.6518-90.509 37.6518-181.017s-37.6518-90.508-37.6518-181.017c0-90.508 37.6518-90.508 37.6518-181.03 0-90.521-37.6518-90.508-37.6518-181.0168 0-90.5084 37.6518-90.5215 37.6518-181.0302 0-90.508-37.6518-90.521-37.6518-181.03" stroke="url(#F)" stroke-miterlimit="10" stroke-width=".714286"/><path d="m80.4326 766.694c0-90.508 37.6524-90.508 37.6524-181.017 0-90.508-37.6524-90.508-37.6524-181.017 0-90.508 37.6524-90.508 37.6524-181.029 0-90.522-37.6524-90.509-37.6524-181.0174 0-90.5085 37.6524-90.5215 37.6524-181.0296 0-90.509-37.6524-90.522-37.6524-181.03" stroke="url(#G)" stroke-miterlimit="10" stroke-width=".714286"/><path d="m68.666 766.714c0-90.509 37.652-90.509 37.652-181.017 0-90.509-37.652-90.509-37.652-181.017 0-90.509 37.652-90.509 37.652-181.03 0-90.522-37.652-90.509-37.652-181.017 0-90.5085 37.652-90.5215 37.652-181.03 0-90.508-37.652-90.521-37.652-181.03" stroke="url(#H)" stroke-miterlimit="10" stroke-width=".714286"/><path d="m56.9004 766.733c0-90.509 37.6522-90.509 37.6522-181.017 0-90.509-37.6522-90.509-37.6522-181.017 0-90.509 37.6522-90.509 37.6522-181.03 0-90.522-37.6522-90.509-37.6522-181.017 0-90.5085 37.6522-90.5215 37.6522-181.03 0-90.508-37.6522-90.521-37.6522-181.03" stroke="url(#I)" stroke-miterlimit="10" stroke-width=".714286"/><path d="m45.1338 766.752c0-90.509 37.6522-90.509 37.6522-181.017s-37.6522-90.508-37.6522-181.017c0-90.508 37.6522-90.508 37.6522-181.03 0-90.521-37.6522-90.508-37.6522-181.0168 0-90.5084 37.6522-90.5214 37.6522-181.0302 0-90.508-37.6522-90.521-37.6522-181.03" stroke="url(#J)" stroke-miterlimit="10" stroke-width=".714286"/><path d="m33.3682 766.771c0-90.508 37.6522-90.508 37.6522-181.017 0-90.508-37.6522-90.508-37.6522-181.017 0-90.508 37.6522-90.508 37.6522-181.03 0-90.521-37.6522-90.508-37.6522-181.0167 0-90.5085 37.6522-90.5215 37.6522-181.0303 0-90.508-37.6522-90.521-37.6522-181.03" stroke="url(#K)" stroke-miterlimit="10" stroke-width=".714286"/><path d="m21.6016 766.79c0-90.508 37.6522-90.508 37.6522-181.017 0-90.508-37.6522-90.508-37.6522-181.017 0-90.508 37.6522-90.508 37.6522-181.029 0-90.522-37.6522-90.509-37.6522-181.0174 0-90.5085 37.6522-90.5215 37.6522-181.0296 0-90.509-37.6522-90.522-37.6522-181.03" stroke="url(#L)" stroke-miterlimit="10" stroke-width=".714286"/><path d="m9.83496 766.81c0-90.509 37.65224-90.509 37.65224-181.017 0-90.509-37.65224-90.509-37.65224-181.017 0-90.509 37.65224-90.509 37.65224-181.03 0-90.522-37.65224-90.509-37.65224-181.0171 0-90.5085 37.65224-90.5215 37.65224-181.0299 0-90.509-37.65224-90.522-37.65224-181.03" stroke="url(#M)" stroke-miterlimit="10" stroke-width=".714286"/><path d="m-1.93164 766.829c0-90.509 37.65224-90.509 37.65224-181.017 0-90.509-37.65224-90.509-37.65224-181.017 0-90.509 37.65224-90.509 37.65224-181.03 0-90.522-37.65224-90.509-37.65224-181.017 0-90.5084 37.65224-90.5215 37.65224-181.03 0-90.508-37.65224-90.521-37.65224-181.03" stroke="url(#N)" stroke-miterlimit="10" stroke-width=".714286"/><path d="m-13.6973 766.848c0-90.509 37.6523-90.509 37.6523-181.017 0-90.509-37.6523-90.509-37.6523-181.03 0-90.522 37.6523-90.509 37.6523-181.03 0-90.522-37.6523-90.509-37.6523-181.017 0-90.5084 37.6523-90.5215 37.6523-181.03 0-90.508-37.6523-90.521-37.6523-181.03" stroke="url(#O)" stroke-miterlimit="10" stroke-width=".714286"/><path d="m-25.4639 766.867c0-90.508 37.6522-90.508 37.6522-181.017 0-90.508-37.6522-90.508-37.6522-181.03 0-90.521 37.6522-90.508 37.6522-181.03 0-90.521-37.6522-90.508-37.6522-181.0164s37.6522-90.5215 37.6522-181.0296c0-90.509-37.6522-90.509-37.6522-181.03" stroke="url(#P)" stroke-miterlimit="10" stroke-width=".714286"/></g></mask><path clip-rule="evenodd" d="m.580408 99.4936c-.203414-.3004-.028826-.7102.328919-.772l419.450673-72.4344c.425-.0734.738.3888.511.7551l-223.714 361.5367c-.191.308-.637.317-.84.017l-81.48-120.346 242.032-198.5743-274.8019 150.1733z" fill="#d9d9d9" fill-rule="evenodd" opacity=".2"/><g mask="url(#R)"><path clip-rule="evenodd" d="m.580408 99.4936c-.203414-.3004-.028826-.7102.328919-.772l419.450673-72.4344c.425-.0734.738.3888.511.7551l-223.714 361.5367c-.191.308-.637.317-.84.017l-81.48-120.346 242.032-198.5743-274.8019 150.1733z" fill="#d9d9d9" fill-rule="evenodd"/></g></svg>