<svg width="32" height="32" viewBox="0 0 32 32" fill="none" xmlns="http://www.w3.org/2000/svg">
<rect width="32" height="32" rx="16" fill="#F0EBF8"/>
<g clip-path="url(#clip0_1032_2175)">
<path d="M23.75 16C23.75 11.7188 20.2812 8.25 16 8.25C11.7188 8.25 8.25 11.7188 8.25 16C8.25 19.8681 11.0841 23.0744 14.7891 23.6562V18.2403H12.8203V16H14.7891V14.2925C14.7891 12.3503 15.9453 11.2775 17.7163 11.2775C18.5644 11.2775 19.4513 11.4288 19.4513 11.4288V13.335H18.4738C17.5113 13.335 17.2109 13.9325 17.2109 14.5453V16H19.3603L19.0166 18.2403H17.2109V23.6562C20.9159 23.0744 23.75 19.8681 23.75 16Z" fill="black"/>
</g>
<defs>
<clipPath id="clip0_1032_2175">
<rect width="16" height="16" fill="white" transform="translate(8 8)"/>
</clipPath>
</defs>
</svg>
