<svg fill="none" height="757" viewBox="0 0 444 757" width="444" xmlns="http://www.w3.org/2000/svg" xmlns:xlink="http://www.w3.org/1999/xlink"><linearGradient id="a" gradientUnits="userSpaceOnUse" x1="440.762" x2="-99.3601" y1=".000005" y2="149.282"><stop offset="0" stop-color="#8540ff"/><stop offset="1" stop-color="#4c2199"/></linearGradient><linearGradient id="b"><stop offset="0" stop-color="#9747ff"/><stop offset="1" stop-color="#231f20" stop-opacity="0"/></linearGradient><linearGradient id="c" gradientUnits="userSpaceOnUse" x1="406.189" x2="421.919" xlink:href="#b" y1="757.444" y2="773.087"/><linearGradient id="d" gradientUnits="userSpaceOnUse" x1="401.274" x2="417.004" xlink:href="#b" y1="752.556" y2="768.199"/><linearGradient id="e" gradientUnits="userSpaceOnUse" x1="396.358" x2="412.088" xlink:href="#b" y1="747.667" y2="763.311"/><linearGradient id="f" gradientUnits="userSpaceOnUse" x1="391.443" x2="407.172" xlink:href="#b" y1="742.779" y2="758.422"/><linearGradient id="g"><stop offset="0" stop-color="#892fff"/><stop offset="1" stop-color="#e2ccff"/></linearGradient><linearGradient id="h" gradientUnits="userSpaceOnUse" x1="386.527" x2="402.257" xlink:href="#g" y1="737.891" y2="753.534"/><linearGradient id="i" gradientUnits="userSpaceOnUse" x1="381.612" x2="397.341" xlink:href="#b" y1="733.002" y2="748.645"/><linearGradient id="j" gradientUnits="userSpaceOnUse" x1="376.696" x2="392.426" xlink:href="#g" y1="728.114" y2="743.757"/><linearGradient id="k" gradientUnits="userSpaceOnUse" x1="371.781" x2="387.51" xlink:href="#b" y1="723.225" y2="738.868"/><linearGradient id="l" gradientUnits="userSpaceOnUse" x1="366.865" x2="382.595" xlink:href="#g" y1="718.337" y2="733.98"/><linearGradient id="m" gradientUnits="userSpaceOnUse" x1="361.949" x2="377.679" xlink:href="#b" y1="713.448" y2="729.091"/><linearGradient id="n" gradientUnits="userSpaceOnUse" x1="357.034" x2="372.764" xlink:href="#g" y1="708.56" y2="724.203"/><linearGradient id="o" gradientUnits="userSpaceOnUse" x1="352.118" x2="367.848" xlink:href="#b" y1="703.671" y2="719.315"/><linearGradient id="p" gradientUnits="userSpaceOnUse" x1="347.203" x2="362.933" xlink:href="#g" y1="698.783" y2="714.426"/><linearGradient id="q" gradientUnits="userSpaceOnUse" x1="342.287" x2="358.017" xlink:href="#b" y1="693.895" y2="709.538"/><linearGradient id="r" gradientUnits="userSpaceOnUse" x1="337.372" x2="353.101" xlink:href="#g" y1="689.006" y2="704.649"/><linearGradient id="s" gradientUnits="userSpaceOnUse" x1="332.456" x2="348.186" xlink:href="#b" y1="684.118" y2="699.761"/><linearGradient id="t" gradientUnits="userSpaceOnUse" x1="327.541" x2="343.27" xlink:href="#g" y1="679.229" y2="694.872"/><linearGradient id="u" gradientUnits="userSpaceOnUse" x1="322.625" x2="338.355" xlink:href="#b" y1="674.341" y2="689.984"/><linearGradient id="v" gradientUnits="userSpaceOnUse" x1="317.71" x2="333.439" xlink:href="#g" y1="669.452" y2="685.095"/><linearGradient id="w" gradientUnits="userSpaceOnUse" x1="312.794" x2="328.524" xlink:href="#b" y1="664.564" y2="680.207"/><linearGradient id="x" gradientUnits="userSpaceOnUse" x1="307.878" x2="323.608" xlink:href="#g" y1="659.675" y2="675.318"/><linearGradient id="y" gradientUnits="userSpaceOnUse" x1="302.963" x2="318.693" xlink:href="#b" y1="654.787" y2="670.43"/><linearGradient id="z" gradientUnits="userSpaceOnUse" x1="298.047" x2="313.777" xlink:href="#g" y1="649.899" y2="665.542"/><linearGradient id="A" gradientUnits="userSpaceOnUse" x1="293.132" x2="308.862" xlink:href="#b" y1="645.01" y2="660.653"/><linearGradient id="B" gradientUnits="userSpaceOnUse" x1="288.216" x2="303.946" xlink:href="#g" y1="640.122" y2="655.765"/><linearGradient id="C" gradientUnits="userSpaceOnUse" x1="283.301" x2="299.031" xlink:href="#b" y1="635.233" y2="650.876"/><linearGradient id="D" gradientUnits="userSpaceOnUse" x1="278.385" x2="294.115" xlink:href="#g" y1="630.345" y2="645.988"/><linearGradient id="E" gradientUnits="userSpaceOnUse" x1="273.47" x2="289.199" xlink:href="#b" y1="625.456" y2="641.099"/><linearGradient id="F" gradientUnits="userSpaceOnUse" x1="268.554" x2="284.284" xlink:href="#g" y1="620.568" y2="636.211"/><linearGradient id="G" gradientUnits="userSpaceOnUse" x1="263.639" x2="279.368" xlink:href="#b" y1="615.679" y2="631.322"/><linearGradient id="H" gradientUnits="userSpaceOnUse" x1="258.723" x2="274.453" xlink:href="#g" y1="610.791" y2="626.434"/><linearGradient id="I" gradientUnits="userSpaceOnUse" x1="253.807" x2="269.537" xlink:href="#b" y1="605.903" y2="621.546"/><linearGradient id="J" gradientUnits="userSpaceOnUse" x1="248.892" x2="264.622" xlink:href="#g" y1="601.014" y2="616.657"/><linearGradient id="K" gradientUnits="userSpaceOnUse" x1="243.976" x2="259.706" xlink:href="#b" y1="596.126" y2="611.769"/><linearGradient id="L" gradientUnits="userSpaceOnUse" x1="239.061" x2="254.791" xlink:href="#g" y1="591.237" y2="606.88"/><linearGradient id="M" gradientUnits="userSpaceOnUse" x1="234.145" x2="249.875" xlink:href="#b" y1="586.349" y2="601.992"/><linearGradient id="N" gradientUnits="userSpaceOnUse" x1="229.23" x2="244.959" xlink:href="#g" y1="581.46" y2="597.103"/><linearGradient id="O" gradientUnits="userSpaceOnUse" x1="224.314" x2="240.044" xlink:href="#b" y1="576.572" y2="592.215"/><linearGradient id="P" gradientUnits="userSpaceOnUse" x1="219.399" x2="235.128" xlink:href="#g" y1="571.683" y2="587.326"/><linearGradient id="Q" gradientUnits="userSpaceOnUse" x1="214.483" x2="230.213" xlink:href="#b" y1="566.795" y2="582.438"/><linearGradient id="R" gradientUnits="userSpaceOnUse" x1="209.568" x2="225.297" xlink:href="#g" y1="561.907" y2="577.55"/><linearGradient id="S" gradientUnits="userSpaceOnUse" x1="204.652" x2="220.382" xlink:href="#b" y1="557.018" y2="572.661"/><linearGradient id="T" gradientUnits="userSpaceOnUse" x1="199.736" x2="215.466" xlink:href="#g" y1="552.13" y2="567.773"/><linearGradient id="U" gradientUnits="userSpaceOnUse" x1="194.821" x2="210.551" xlink:href="#b" y1="547.241" y2="562.884"/><linearGradient id="V" gradientUnits="userSpaceOnUse" x1="189.905" x2="205.635" xlink:href="#g" y1="542.353" y2="557.996"/><linearGradient id="W" gradientUnits="userSpaceOnUse" x1="184.99" x2="200.72" xlink:href="#b" y1="537.464" y2="553.107"/><linearGradient id="X" gradientUnits="userSpaceOnUse" x1="180.074" x2="195.804" xlink:href="#g" y1="532.576" y2="548.219"/><linearGradient id="Y" gradientUnits="userSpaceOnUse" x1="175.159" x2="190.888" xlink:href="#b" y1="527.687" y2="543.33"/><linearGradient id="Z" gradientUnits="userSpaceOnUse" x1="170.243" x2="185.973" xlink:href="#g" y1="522.799" y2="538.442"/><linearGradient id="aa" gradientUnits="userSpaceOnUse" x1="165.33" x2="181.06" xlink:href="#b" y1="517.908" y2="533.551"/><linearGradient id="ab" gradientUnits="userSpaceOnUse" x1="160.415" x2="176.145" xlink:href="#g" y1="513.019" y2="528.662"/><clipPath id="ac"><path d="m0 0h444v757h-444z"/></clipPath><clipPath id="ad"><path d="m0 0h640.871v369.579h-640.871z" transform="matrix(.70514921 -.70905894 .70905894 .70514921 -65.8131 739.955)"/></clipPath><g clip-path="url(#ac)"><path d="m0 0h444v757h-444z" fill="url(#a)"/><g clip-path="url(#ad)" stroke-miterlimit="10" stroke-width=".497072"><path d="m180.237 984.649c37.658-37.866 53.387-22.223 91.045-60.089 37.657-37.866 21.927-53.509 59.585-91.375 37.657-37.866 53.387-22.223 91.049-60.095 37.663-37.871 21.928-53.509 59.585-91.375 37.658-37.866 53.393-22.229 91.05-60.095s21.933-53.514 59.591-91.38" stroke="url(#c)"/><path d="m175.322 979.761c37.657-37.866 53.387-22.223 91.044-60.09 37.657-37.866 21.928-53.509 59.585-91.375s53.387-22.223 91.05-60.094c37.663-37.872 21.927-53.509 59.585-91.376 37.657-37.866 53.392-22.228 91.05-60.094 37.657-37.866 21.933-53.515 59.59-91.381" stroke="url(#d)"/><path d="m170.406 974.872c37.657-37.866 53.387-22.223 91.045-60.089 37.657-37.866 21.927-53.509 59.584-91.375 37.658-37.866 53.388-22.223 91.05-60.095 37.663-37.871 21.928-53.509 59.585-91.375 37.658-37.866 53.393-22.228 91.05-60.095 37.657-37.866 21.933-53.514 59.59-91.38" stroke="url(#e)"/><path d="m165.491 969.984c37.657-37.866 53.387-22.223 91.044-60.089s21.928-53.509 59.585-91.376c37.657-37.866 53.387-22.223 91.05-60.094 37.663-37.872 21.927-53.509 59.585-91.375 37.657-37.866 53.392-22.229 91.05-60.095 37.657-37.866 21.933-53.515 59.59-91.381" stroke="url(#f)"/><path d="m160.575 965.095c37.657-37.866 53.387-22.223 91.044-60.089 37.658-37.866 21.928-53.509 59.585-91.375 37.658-37.866 53.387-22.223 91.05-60.095 37.663-37.871 21.928-53.509 59.585-91.375s53.393-22.228 91.05-60.094c37.657-37.867 21.933-53.515 59.59-91.381" stroke="url(#h)"/><path d="m155.659 960.207c37.658-37.866 53.388-22.223 91.045-60.089s21.927-53.509 59.585-91.375c37.657-37.867 53.387-22.224 91.05-60.095 37.662-37.872 21.927-53.509 59.585-91.375 37.657-37.866 53.392-22.229 91.049-60.095 37.658-37.866 21.933-53.514 59.591-91.381" stroke="url(#i)"/><path d="m150.744 955.318c37.657-37.866 53.387-22.223 91.044-60.089 37.658-37.866 21.928-53.509 59.585-91.375 37.658-37.866 53.387-22.223 91.05-60.095 37.663-37.871 21.928-53.509 59.585-91.375s53.393-22.228 91.05-60.094 21.933-53.515 59.59-91.381" stroke="url(#j)"/><path d="m145.828 950.43c37.658-37.866 53.387-22.223 91.045-60.089 37.657-37.866 21.927-53.509 59.585-91.375 37.657-37.866 53.387-22.223 91.05-60.095 37.662-37.872 21.927-53.509 59.585-91.375 37.657-37.866 53.392-22.229 91.049-60.095 37.658-37.866 21.933-53.514 59.591-91.38" stroke="url(#k)"/><path d="m140.913 945.542c37.657-37.867 53.387-22.224 91.044-60.09 37.658-37.866 21.928-53.509 59.585-91.375 37.658-37.866 53.387-22.223 91.05-60.094 37.663-37.872 21.928-53.51 59.585-91.376s53.392-22.228 91.05-60.094c37.657-37.866 21.933-53.515 59.59-91.381" stroke="url(#l)"/><path d="m135.997 940.653c37.658-37.866 53.387-22.223 91.045-60.089 37.657-37.866 21.927-53.509 59.585-91.375 37.657-37.866 53.387-22.223 91.049-60.095 37.663-37.871 21.928-53.509 59.585-91.375 37.658-37.866 53.393-22.229 91.05-60.095 37.658-37.866 21.933-53.514 59.591-91.38" stroke="url(#m)"/><path d="m131.082 935.765c37.657-37.866 53.387-22.223 91.044-60.09 37.658-37.866 21.928-53.509 59.585-91.375s53.387-22.223 91.05-60.094c37.663-37.872 21.928-53.509 59.585-91.376 37.657-37.866 53.392-22.228 91.05-60.094 37.657-37.866 21.933-53.515 59.59-91.381" stroke="url(#n)"/><path d="m126.166 930.876c37.658-37.866 53.387-22.223 91.045-60.089 37.657-37.866 21.927-53.509 59.585-91.375 37.657-37.866 53.387-22.223 91.049-60.095 37.663-37.871 21.928-53.509 59.585-91.375 37.658-37.866 53.393-22.228 91.05-60.095 37.658-37.866 21.933-53.514 59.591-91.38" stroke="url(#o)"/><path d="m121.251 925.988c37.657-37.866 53.387-22.223 91.044-60.089s21.928-53.509 59.585-91.376c37.657-37.866 53.387-22.223 91.05-60.094 37.663-37.872 21.927-53.509 59.585-91.375 37.657-37.866 53.392-22.229 91.05-60.095 37.657-37.866 21.933-53.515 59.59-91.381" stroke="url(#p)"/><path d="m116.335 921.099c37.657-37.866 53.387-22.223 91.045-60.089 37.657-37.866 21.927-53.509 59.584-91.375 37.658-37.866 53.388-22.223 91.05-60.095 37.663-37.871 21.928-53.509 59.585-91.375 37.658-37.866 53.393-22.228 91.05-60.094 37.657-37.867 21.933-53.515 59.59-91.381" stroke="url(#q)"/><path d="m111.42 916.211c37.657-37.866 53.387-22.223 91.044-60.089s21.928-53.509 59.585-91.375c37.657-37.867 53.387-22.224 91.05-60.095 37.663-37.872 21.927-53.509 59.585-91.375 37.657-37.866 53.392-22.229 91.05-60.095 37.657-37.866 21.933-53.514 59.59-91.381" stroke="url(#r)"/><path d="m106.504 911.322c37.657-37.866 53.387-22.223 91.044-60.089 37.658-37.866 21.928-53.509 59.585-91.375 37.658-37.866 53.387-22.223 91.05-60.095 37.663-37.871 21.928-53.509 59.585-91.375 37.658-37.866 53.393-22.228 91.05-60.094s21.933-53.515 59.59-91.381" stroke="url(#s)"/><path d="m101.589 906.434c37.657-37.866 53.387-22.223 91.044-60.089s21.927-53.509 59.585-91.375c37.657-37.866 53.387-22.223 91.05-60.095 37.662-37.872 21.927-53.509 59.585-91.375 37.657-37.866 53.392-22.229 91.049-60.095 37.658-37.866 21.933-53.514 59.591-91.38" stroke="url(#t)"/><path d="m96.673 901.546c37.657-37.867 53.387-22.224 91.044-60.09 37.658-37.866 21.928-53.509 59.585-91.375 37.658-37.866 53.387-22.223 91.05-60.094 37.663-37.872 21.928-53.51 59.585-91.376s53.393-22.228 91.05-60.094 21.933-53.515 59.59-91.381" stroke="url(#u)"/><path d="m91.7574 896.657c37.6576-37.866 53.3876-22.223 91.0446-60.089s21.927-53.509 59.585-91.375c37.657-37.866 53.387-22.223 91.05-60.095 37.662-37.871 21.927-53.509 59.585-91.375 37.657-37.866 53.392-22.229 91.049-60.095 37.658-37.866 21.933-53.514 59.591-91.38" stroke="url(#v)"/><path d="m86.8419 891.769c37.6571-37.866 53.3871-22.223 91.0441-60.09 37.658-37.866 21.928-53.509 59.585-91.375 37.658-37.866 53.387-22.223 91.05-60.094 37.663-37.872 21.928-53.509 59.585-91.376 37.657-37.866 53.392-22.228 91.05-60.094 37.657-37.866 21.933-53.515 59.59-91.381" stroke="url(#w)"/><path d="m81.9263 886.88c37.6577-37.866 53.3867-22.223 91.0447-60.089 37.657-37.866 21.927-53.509 59.585-91.375 37.657-37.866 53.387-22.223 91.049-60.095 37.663-37.871 21.928-53.509 59.585-91.375 37.658-37.866 53.393-22.229 91.05-60.095 37.658-37.866 21.933-53.514 59.591-91.38" stroke="url(#x)"/><path d="m77.0108 881.992c37.6572-37.866 53.3872-22.223 91.0442-60.089 37.658-37.867 21.928-53.51 59.585-91.376s53.387-22.223 91.05-60.094c37.663-37.872 21.928-53.509 59.585-91.375 37.657-37.867 53.392-22.229 91.05-60.095 37.657-37.866 21.933-53.515 59.59-91.381" stroke="url(#y)"/><path d="m72.0952 877.103c37.6578-37.866 53.3868-22.223 91.0448-60.089 37.657-37.866 21.927-53.509 59.585-91.375 37.657-37.866 53.387-22.223 91.049-60.095 37.663-37.871 21.928-53.509 59.585-91.375 37.658-37.866 53.393-22.228 91.05-60.094 37.657-37.867 21.933-53.515 59.59-91.381" stroke="url(#z)"/><path d="m67.1797 872.215c37.6573-37.866 53.3873-22.223 91.0443-60.089s21.928-53.509 59.585-91.375c37.657-37.867 53.387-22.224 91.05-60.095 37.663-37.872 21.927-53.509 59.585-91.375 37.657-37.866 53.392-22.229 91.05-60.095 37.657-37.866 21.933-53.514 59.59-91.381" stroke="url(#A)"/><path d="m62.2642 867.326c37.6573-37.866 53.3868-22.223 91.0448-60.089 37.657-37.866 21.927-53.509 59.584-91.375 37.658-37.866 53.388-22.223 91.05-60.095 37.663-37.871 21.928-53.509 59.585-91.375 37.658-37.866 53.393-22.228 91.05-60.094s21.933-53.515 59.59-91.381" stroke="url(#B)"/><path d="m57.3486 862.438c37.6574-37.866 53.3874-22.223 91.0444-60.089s21.928-53.509 59.585-91.375 53.387-22.223 91.05-60.095 21.927-53.509 59.585-91.375c37.657-37.866 53.392-22.229 91.05-60.095 37.657-37.866 21.933-53.514 59.59-91.38" stroke="url(#C)"/><path d="m52.433 857.549c37.6574-37.866 53.387-22.223 91.044-60.089 37.658-37.866 21.928-53.509 59.585-91.375 37.658-37.866 53.387-22.223 91.05-60.094 37.663-37.872 21.928-53.51 59.585-91.376s53.393-22.228 91.05-60.094 21.933-53.515 59.59-91.381" stroke="url(#D)"/><path d="m47.5175 852.661c37.6573-37.866 53.3875-22.223 91.0445-60.089s21.928-53.509 59.585-91.375 53.387-22.223 91.05-60.095c37.662-37.871 21.927-53.509 59.585-91.375 37.657-37.866 53.392-22.229 91.049-60.095 37.658-37.866 21.933-53.514 59.591-91.38" stroke="url(#E)"/><path d="m42.602 847.773c37.6573-37.867 53.3871-22.223 91.044-60.09 37.658-37.866 21.928-53.509 59.585-91.375 37.658-37.866 53.387-22.223 91.05-60.094 37.663-37.872 21.928-53.509 59.585-91.376 37.657-37.866 53.393-22.228 91.05-60.094s21.933-53.515 59.59-91.381" stroke="url(#F)"/><path d="m37.6864 842.884c37.6573-37.866 53.3871-22.223 91.0446-60.089 37.657-37.866 21.927-53.509 59.585-91.375 37.657-37.866 53.387-22.223 91.05-60.095 37.662-37.871 21.927-53.509 59.584-91.375 37.658-37.866 53.393-22.229 91.05-60.095 37.658-37.866 21.933-53.514 59.591-91.38" stroke="url(#G)"/><path d="m32.7709 837.996c37.6573-37.866 53.3871-22.223 91.0441-60.089 37.658-37.867 21.928-53.51 59.585-91.376 37.658-37.866 53.387-22.223 91.05-60.094 37.663-37.872 21.928-53.509 59.585-91.375 37.657-37.867 53.392-22.229 91.05-60.095 37.657-37.866 21.933-53.515 59.59-91.381" stroke="url(#H)"/><path d="m27.8553 833.107c37.6574-37.866 53.3871-22.223 91.0447-60.089 37.657-37.866 21.927-53.509 59.585-91.375 37.657-37.866 53.387-22.223 91.05-60.095 37.662-37.871 21.927-53.509 59.584-91.375 37.658-37.866 53.393-22.228 91.05-60.094 37.658-37.867 21.933-53.515 59.591-91.381" stroke="url(#I)"/><path d="m22.9398 828.219c37.6574-37.866 53.3871-22.223 91.0442-60.089 37.658-37.866 21.928-53.509 59.585-91.376 37.657-37.866 53.387-22.223 91.05-60.094 37.663-37.872 21.928-53.509 59.585-91.375s53.392-22.229 91.05-60.095c37.657-37.866 21.933-53.514 59.59-91.381" stroke="url(#J)"/><path d="m18.0242 823.33c37.6574-37.866 53.3871-22.223 91.0448-60.089 37.657-37.866 21.927-53.509 59.585-91.375 37.657-37.866 53.387-22.223 91.049-60.095 37.663-37.871 21.928-53.509 59.585-91.375 37.658-37.866 53.393-22.228 91.05-60.094s21.933-53.515 59.59-91.381" stroke="url(#K)"/><path d="m13.1087 818.442c37.6573-37.866 53.3871-22.223 91.0443-60.089 37.657-37.866 21.928-53.509 59.585-91.375 37.657-37.867 53.387-22.223 91.05-60.095s21.927-53.509 59.585-91.375c37.657-37.866 53.392-22.229 91.05-60.095 37.657-37.866 21.933-53.514 59.59-91.38" stroke="url(#L)"/><path d="m8.19318 813.553c37.65732-37.866 53.38712-22.223 91.04442-60.089 37.6574-37.866 21.9274-53.509 59.5854-91.375 37.657-37.866 53.387-22.223 91.049-60.094 37.663-37.872 21.928-53.51 59.585-91.376 37.658-37.866 53.393-22.228 91.05-60.094s21.933-53.515 59.59-91.381" stroke="url(#M)"/><path d="m3.27759 808.665c37.65731-37.866 53.38711-22.223 91.04441-60.089 37.657-37.866 21.928-53.509 59.585-91.375s53.387-22.223 91.05-60.095c37.663-37.871 21.927-53.509 59.585-91.375 37.657-37.866 53.392-22.229 91.05-60.095 37.657-37.866 21.933-53.514 59.59-91.38" stroke="url(#N)"/><path d="m-1.63794 803.777c37.65734-37.867 53.38704-22.223 91.04444-60.09 37.6575-37.866 21.9275-53.509 59.5845-91.375 37.658-37.866 53.387-22.223 91.05-60.094 37.663-37.872 21.928-53.509 59.585-91.376 37.657-37.866 53.393-22.228 91.05-60.094s21.933-53.515 59.59-91.381" stroke="url(#O)"/><path d="m-6.55347 798.888c37.65737-37.866 53.38707-22.223 91.04437-60.089 37.6571-37.866 21.9281-53.509 59.5851-91.375s53.387-22.223 91.05-60.095c37.662-37.871 21.927-53.509 59.585-91.375 37.657-37.866 53.392-22.229 91.049-60.095 37.658-37.866 21.933-53.514 59.591-91.38" stroke="url(#P)"/><path d="m-11.469 794c37.6573-37.866 53.3871-22.223 91.0444-60.089 37.6576-37.867 21.9276-53.51 59.5846-91.376 37.658-37.866 53.387-22.223 91.05-60.094 37.663-37.872 21.928-53.509 59.585-91.375 37.657-37.867 53.393-22.229 91.05-60.095s21.933-53.515 59.59-91.381" stroke="url(#Q)"/><path d="m-16.3846 789.111c37.6573-37.866 53.3871-22.223 91.0444-60.089 37.6572-37.866 21.9276-53.509 59.5852-91.375 37.657-37.866 53.387-22.223 91.05-60.095 37.662-37.871 21.927-53.509 59.585-91.375 37.657-37.866 53.392-22.228 91.049-60.094 37.658-37.867 21.933-53.515 59.591-91.381" stroke="url(#R)"/><path d="m-21.3001 784.223c37.6573-37.866 53.3871-22.223 91.0444-60.089 37.6577-37.866 21.9276-53.509 59.5847-91.376 37.658-37.866 53.387-22.223 91.05-60.094 37.663-37.872 21.928-53.509 59.585-91.375s53.392-22.229 91.05-60.095c37.657-37.866 21.933-53.514 59.59-91.381" stroke="url(#S)"/><path d="m-26.2156 779.334c37.6573-37.866 53.387-22.223 91.0444-60.089 37.6572-37.866 21.9276-53.509 59.5852-91.375 37.657-37.866 53.387-22.223 91.05-60.095 37.662-37.871 21.927-53.509 59.584-91.375 37.658-37.866 53.393-22.228 91.05-60.094 37.658-37.866 21.933-53.515 59.591-91.381" stroke="url(#T)"/><path d="m-31.1312 774.446c37.65731-37.866 53.3871-22.223 91.0444-60.089s21.9276-53.509 59.5848-91.375c37.657-37.867 53.387-22.223 91.05-60.095s21.928-53.509 59.585-91.375 53.392-22.229 91.05-60.095c37.657-37.866 21.933-53.514 59.59-91.38" stroke="url(#U)"/><path d="m-36.0468 769.557c37.65738-37.866 53.3871-22.223 91.0445-60.089 37.6573-37.866 21.9275-53.509 59.5853-91.375 37.657-37.866 53.387-22.223 91.049-60.094 37.663-37.872 21.928-53.51 59.585-91.376 37.658-37.866 53.393-22.228 91.05-60.094 37.658-37.866 21.933-53.515 59.591-91.381" stroke="url(#V)"/><path d="m-40.9623 764.669c37.65735-37.866 53.3871-22.223 91.0444-60.089 37.6574-37.866 21.9276-53.509 59.5849-91.375 37.657-37.866 53.387-22.223 91.05-60.095 37.663-37.871 21.927-53.509 59.585-91.375 37.657-37.866 53.392-22.229 91.05-60.095 37.657-37.866 21.933-53.514 59.59-91.38" stroke="url(#W)"/><path d="m-45.8779 759.781c37.65736-37.867 53.38711-22.223 91.0444-60.09 37.6574-37.866 21.9276-53.509 59.5845-91.375 37.658-37.866 53.388-22.223 91.05-60.094 37.663-37.872 21.928-53.509 59.585-91.376 37.658-37.866 53.393-22.228 91.05-60.094s21.933-53.515 59.59-91.381" stroke="url(#X)"/><path d="m-50.7934 754.892c37.6573-37.866 53.38708-22.223 91.0444-60.089 37.6573-37.866 21.9276-53.509 59.5849-91.375 37.6571-37.866 53.3871-22.223 91.0501-60.095 37.663-37.871 21.927-53.509 59.585-91.375 37.657-37.866 53.392-22.229 91.05-60.095 37.657-37.866 21.933-53.514 59.59-91.38" stroke="url(#Y)"/><path d="m-55.7089 750.004c37.6573-37.866 53.38705-22.223 91.0444-60.089 37.6573-37.867 21.9276-53.51 59.5849-91.376 37.6576-37.866 53.3866-22.223 91.0496-60.094 37.663-37.872 21.928-53.509 59.585-91.375 37.658-37.867 53.393-22.229 91.05-60.095s21.933-53.515 59.59-91.381" stroke="url(#Z)"/><path d="m-60.6245 745.115c37.6574-37.866 53.38712-22.223 91.0445-60.089 37.6573-37.866 21.9275-53.509 59.5903-91.381 37.6627-37.871 53.3867-22.223 91.0497-60.094 37.663-37.872 21.928-53.509 59.585-91.375s53.393-22.229 91.05-60.095 21.933-53.515 59.59-91.381" stroke="url(#aa)"/><path d="m-65.54 740.227c37.6573-37.866 53.387-22.223 91.0444-60.089 37.6573-37.866 21.9275-53.509 59.5903-91.381 37.6623-37.872 53.3873-22.223 91.0503-60.095 37.662-37.871 21.927-53.509 59.584-91.375 37.658-37.866 53.393-22.228 91.05-60.094 37.658-37.866 21.928-53.51 59.591-91.381" stroke="url(#ab)"/></g></g></svg>