<svg fill="none" height="670" viewBox="0 0 1440 670" width="1440" xmlns="http://www.w3.org/2000/svg" xmlns:xlink="http://www.w3.org/1999/xlink"><linearGradient id="a" gradientUnits="userSpaceOnUse" x1="1429.5" x2="498.69" y1=".000004" y2="942.705"><stop offset="0" stop-color="#8540ff"/><stop offset="1" stop-color="#4c2199"/></linearGradient><linearGradient id="b"><stop offset="0" stop-color="#9747ff"/><stop offset="1" stop-color="#231f20" stop-opacity="0"/></linearGradient><linearGradient id="c" gradientUnits="userSpaceOnUse" x1="1392.36" x2="1424.01" xlink:href="#b" y1="757.318" y2="788.789"/><linearGradient id="d" gradientUnits="userSpaceOnUse" x1="1382.47" x2="1414.12" xlink:href="#b" y1="747.484" y2="778.954"/><linearGradient id="e" gradientUnits="userSpaceOnUse" x1="1372.59" x2="1404.23" xlink:href="#b" y1="737.649" y2="769.12"/><linearGradient id="f" gradientUnits="userSpaceOnUse" x1="1362.7" x2="1394.34" xlink:href="#b" y1="727.815" y2="759.285"/><linearGradient id="g"><stop offset="0" stop-color="#892fff"/><stop offset="1" stop-color="#e2ccff"/></linearGradient><linearGradient id="h" gradientUnits="userSpaceOnUse" x1="1352.81" x2="1384.45" xlink:href="#g" y1="717.981" y2="749.451"/><linearGradient id="i" gradientUnits="userSpaceOnUse" x1="1342.92" x2="1374.56" xlink:href="#b" y1="708.146" y2="739.616"/><linearGradient id="j" gradientUnits="userSpaceOnUse" x1="1333.03" x2="1364.67" xlink:href="#g" y1="698.312" y2="729.782"/><linearGradient id="k" gradientUnits="userSpaceOnUse" x1="1323.14" x2="1354.79" xlink:href="#b" y1="688.477" y2="719.947"/><linearGradient id="l" gradientUnits="userSpaceOnUse" x1="1313.25" x2="1344.9" xlink:href="#g" y1="678.643" y2="710.113"/><linearGradient id="m" gradientUnits="userSpaceOnUse" x1="1303.36" x2="1335.01" xlink:href="#b" y1="668.808" y2="700.279"/><linearGradient id="n" gradientUnits="userSpaceOnUse" x1="1293.47" x2="1325.12" xlink:href="#g" y1="658.974" y2="690.444"/><linearGradient id="o" gradientUnits="userSpaceOnUse" x1="1283.58" x2="1315.23" xlink:href="#b" y1="649.139" y2="680.609"/><linearGradient id="p" gradientUnits="userSpaceOnUse" x1="1273.7" x2="1305.34" xlink:href="#g" y1="639.305" y2="670.775"/><linearGradient id="q" gradientUnits="userSpaceOnUse" x1="1263.81" x2="1295.45" xlink:href="#b" y1="629.47" y2="660.94"/><linearGradient id="r" gradientUnits="userSpaceOnUse" x1="1253.92" x2="1285.56" xlink:href="#g" y1="619.636" y2="651.106"/><linearGradient id="s" gradientUnits="userSpaceOnUse" x1="1244.03" x2="1275.67" xlink:href="#b" y1="609.801" y2="641.272"/><linearGradient id="t" gradientUnits="userSpaceOnUse" x1="1234.14" x2="1265.78" xlink:href="#g" y1="599.967" y2="631.437"/><linearGradient id="u" gradientUnits="userSpaceOnUse" x1="1224.25" x2="1255.9" xlink:href="#b" y1="590.132" y2="621.603"/><linearGradient id="v" gradientUnits="userSpaceOnUse" x1="1214.36" x2="1246.01" xlink:href="#g" y1="580.298" y2="611.768"/><linearGradient id="w" gradientUnits="userSpaceOnUse" x1="1204.47" x2="1236.12" xlink:href="#b" y1="570.463" y2="601.934"/><linearGradient id="x" gradientUnits="userSpaceOnUse" x1="1194.58" x2="1226.23" xlink:href="#g" y1="560.629" y2="592.099"/><linearGradient id="y" gradientUnits="userSpaceOnUse" x1="1184.69" x2="1216.34" xlink:href="#b" y1="550.794" y2="582.265"/><linearGradient id="z" gradientUnits="userSpaceOnUse" x1="1174.81" x2="1206.45" xlink:href="#g" y1="540.96" y2="572.43"/><linearGradient id="A" gradientUnits="userSpaceOnUse" x1="1164.92" x2="1196.56" xlink:href="#b" y1="531.125" y2="562.596"/><linearGradient id="B" gradientUnits="userSpaceOnUse" x1="1155.03" x2="1186.67" xlink:href="#g" y1="521.291" y2="552.761"/><linearGradient id="C" gradientUnits="userSpaceOnUse" x1="1145.14" x2="1176.78" xlink:href="#b" y1="511.456" y2="542.927"/><linearGradient id="D" gradientUnits="userSpaceOnUse" x1="1135.25" x2="1166.89" xlink:href="#g" y1="501.622" y2="533.092"/><linearGradient id="E" gradientUnits="userSpaceOnUse" x1="1125.36" x2="1157.01" xlink:href="#b" y1="491.787" y2="523.258"/><linearGradient id="F" gradientUnits="userSpaceOnUse" x1="1115.47" x2="1147.12" xlink:href="#g" y1="481.953" y2="513.423"/><linearGradient id="G" gradientUnits="userSpaceOnUse" x1="1105.58" x2="1137.23" xlink:href="#b" y1="472.118" y2="503.589"/><linearGradient id="H" gradientUnits="userSpaceOnUse" x1="1095.69" x2="1127.34" xlink:href="#g" y1="462.284" y2="493.754"/><linearGradient id="I" gradientUnits="userSpaceOnUse" x1="1085.8" x2="1117.45" xlink:href="#b" y1="452.45" y2="483.92"/><linearGradient id="J" gradientUnits="userSpaceOnUse" x1="1075.92" x2="1107.56" xlink:href="#g" y1="442.615" y2="474.085"/><linearGradient id="K" gradientUnits="userSpaceOnUse" x1="1066.03" x2="1097.67" xlink:href="#b" y1="432.781" y2="464.251"/><linearGradient id="L" gradientUnits="userSpaceOnUse" x1="1056.14" x2="1087.78" xlink:href="#g" y1="422.946" y2="454.416"/><linearGradient id="M" gradientUnits="userSpaceOnUse" x1="1046.25" x2="1077.89" xlink:href="#b" y1="413.112" y2="444.582"/><linearGradient id="N" gradientUnits="userSpaceOnUse" x1="1036.36" x2="1068" xlink:href="#g" y1="403.277" y2="434.747"/><linearGradient id="O" gradientUnits="userSpaceOnUse" x1="1026.47" x2="1058.12" xlink:href="#b" y1="393.443" y2="424.913"/><linearGradient id="P" gradientUnits="userSpaceOnUse" x1="1016.58" x2="1048.23" xlink:href="#g" y1="383.608" y2="415.079"/><linearGradient id="Q" gradientUnits="userSpaceOnUse" x1="1006.69" x2="1038.34" xlink:href="#b" y1="373.774" y2="405.244"/><linearGradient id="R" gradientUnits="userSpaceOnUse" x1="996.804" x2="1028.45" xlink:href="#g" y1="363.939" y2="395.41"/><linearGradient id="S" gradientUnits="userSpaceOnUse" x1="986.914" x2="1018.56" xlink:href="#b" y1="354.105" y2="385.575"/><linearGradient id="T" gradientUnits="userSpaceOnUse" x1="977.026" x2="1008.67" xlink:href="#g" y1="344.27" y2="375.741"/><linearGradient id="U" gradientUnits="userSpaceOnUse" x1="967.137" x2="998.781" xlink:href="#b" y1="334.436" y2="365.906"/><linearGradient id="V" gradientUnits="userSpaceOnUse" x1="957.247" x2="988.892" xlink:href="#g" y1="324.601" y2="356.072"/><linearGradient id="W" gradientUnits="userSpaceOnUse" x1="947.359" x2="979.003" xlink:href="#b" y1="314.767" y2="346.237"/><linearGradient id="X" gradientUnits="userSpaceOnUse" x1="937.47" x2="969.114" xlink:href="#g" y1="304.932" y2="336.403"/><linearGradient id="Y" gradientUnits="userSpaceOnUse" x1="927.58" x2="959.225" xlink:href="#b" y1="295.098" y2="326.568"/><linearGradient id="Z" gradientUnits="userSpaceOnUse" x1="917.692" x2="949.336" xlink:href="#g" y1="285.263" y2="316.734"/><linearGradient id="aa" gradientUnits="userSpaceOnUse" x1="907.808" x2="939.453" xlink:href="#b" y1="275.423" y2="306.894"/><linearGradient id="ab" gradientUnits="userSpaceOnUse" x1="897.919" x2="929.564" xlink:href="#g" y1="265.589" y2="297.059"/><clipPath id="ac"><path d="m0 0h1440v670h-1440z"/></clipPath><clipPath id="ad"><path d="m0 0h1289.29v743.512h-1289.29z" transform="matrix(.70514921 -.70905894 .70905894 .70514921 442.798 722.134)"/></clipPath><g clip-path="url(#ac)"><path d="m0 0h1440v670h-1440z" fill="url(#a)"/><g clip-path="url(#ad)" stroke-miterlimit="10"><path d="m937.797 1214.4c75.763-76.17 107.403-44.7 183.163-120.88s44.11-107.65 119.87-183.829c75.76-76.178 107.4-44.707 183.17-120.897 75.77-76.189 44.12-107.648 119.87-183.827 75.76-76.178 107.42-44.718 183.18-120.897 75.76-76.178 44.12-107.659 119.88-183.838" stroke="url(#c)"/><path d="m927.908 1204.57c75.762-76.18 107.402-44.71 183.162-120.89 75.76-76.17 44.11-107.645 119.87-183.823s107.4-44.708 183.17-120.897 44.12-107.649 119.88-183.827c75.75-76.178 107.41-44.719 183.17-120.897s44.12-107.66 119.88-183.838" stroke="url(#d)"/><path d="m918.019 1194.74c75.759-76.18 107.401-44.71 183.161-120.89 75.76-76.179 44.11-107.649 119.87-183.828 75.76-76.178 107.41-44.707 183.17-120.897 75.77-76.189 44.12-107.648 119.88-183.827 75.75-76.178 107.41-44.718 183.17-120.897 75.76-76.178 44.12-107.659 119.88-183.837" stroke="url(#e)"/><path d="m908.13 1184.9c75.759-76.18 107.4-44.71 183.16-120.89 75.76-76.173 44.12-107.644 119.87-183.822 75.76-76.178 107.41-44.708 183.18-120.897 75.76-76.189 44.11-107.649 119.87-183.827s107.41-44.719 183.17-120.897 44.12-107.66 119.88-183.838" stroke="url(#f)"/><path d="m898.241 1175.07c75.759-76.18 107.399-44.71 183.159-120.89 75.76-76.178 44.12-107.648 119.87-183.826 75.76-76.179 107.41-44.708 183.18-120.898 75.77-76.189 44.11-107.648 119.87-183.826 75.76-76.179 107.41-44.719 183.17-120.898 75.76-76.178 44.13-107.659 119.88-183.837" stroke="url(#h)"/><path d="m888.352 1165.23c75.759-76.18 107.403-44.71 183.158-120.88 75.76-76.182 44.12-107.653 119.88-183.831 75.75-76.178 107.4-44.708 183.17-120.897s44.11-107.649 119.87-183.827 107.41-44.719 183.17-120.897 44.13-107.66 119.88-183.838" stroke="url(#i)"/><path d="m878.463 1155.4c75.759-76.18 107.403-44.71 183.157-120.89 75.76-76.177 44.12-107.647 119.88-183.825 75.75-76.179 107.4-44.708 183.17-120.898 75.77-76.189 44.11-107.648 119.87-183.826 75.76-76.179 107.41-44.719 183.17-120.898 75.76-76.178 44.13-107.659 119.89-183.837" stroke="url(#j)"/><path d="m868.574 1145.56c75.759-76.18 107.404-44.7 183.166-120.88 75.75-76.181 44.11-107.652 119.87-183.83s107.4-44.708 183.17-120.897 44.11-107.649 119.87-183.827 107.42-44.719 183.17-120.897c75.76-76.178 44.13-107.66 119.89-183.838" stroke="url(#k)"/><path d="m858.685 1135.73c75.759-76.18 107.403-44.71 183.165-120.89 75.75-76.176 44.11-107.646 119.87-183.824 75.76-76.179 107.4-44.708 183.17-120.898 75.77-76.189 44.11-107.648 119.87-183.826 75.76-76.179 107.42-44.719 183.17-120.897 75.76-76.179 44.13-107.66 119.89-183.838" stroke="url(#l)"/><path d="m848.796 1125.89c75.759-76.17 107.403-44.7 183.164-120.88 75.76-76.18 44.11-107.651 119.87-183.829s107.4-44.708 183.17-120.897 44.12-107.649 119.87-183.827c75.76-76.178 107.42-44.719 183.18-120.897 75.75-76.178 44.12-107.66 119.88-183.838" stroke="url(#m)"/><path d="m838.907 1116.06c75.759-76.18 107.404-44.71 183.163-120.887 75.76-76.178 44.11-107.648 119.87-183.826 75.76-76.179 107.4-44.708 183.17-120.898 75.77-76.189 44.12-107.648 119.87-183.826 75.76-76.179 107.42-44.719 183.18-120.898 75.76-76.178 44.12-107.659 119.88-183.837" stroke="url(#n)"/><path d="m829.018 1106.23c75.759-76.18 107.403-44.71 183.162-120.891 75.76-76.178 44.11-107.649 119.87-183.827s107.4-44.708 183.17-120.897 44.12-107.649 119.88-183.827c75.75-76.178 107.41-44.719 183.17-120.897s44.12-107.66 119.88-183.838" stroke="url(#o)"/><path d="m819.129 1096.39c75.759-76.18 107.403-44.71 183.161-120.886 75.76-76.178 44.11-107.648 119.87-183.826 75.76-76.179 107.41-44.708 183.17-120.898 75.77-76.189 44.12-107.648 119.88-183.826 75.75-76.179 107.41-44.719 183.17-120.898 75.76-76.178 44.12-107.659 119.88-183.837" stroke="url(#p)"/><path d="m809.24 1086.56c75.759-76.18 107.404-44.71 183.162-120.89 75.758-76.178 44.118-107.649 119.868-183.827 75.76-76.178 107.41-44.708 183.18-120.897s44.11-107.649 119.87-183.827 107.41-44.719 183.17-120.897 44.12-107.66 119.88-183.838" stroke="url(#q)"/><path d="m799.351 1076.72c75.759-76.18 107.403-44.71 183.162-120.884 75.757-76.179 44.117-107.649 119.867-183.827 75.76-76.179 107.41-44.708 183.18-120.897 75.77-76.19 44.11-107.649 119.87-183.827 75.76-76.179 107.41-44.719 183.17-120.897 75.76-76.179 44.13-107.66 119.88-183.838" stroke="url(#r)"/><path d="m789.462 1066.89c75.759-76.181 107.403-44.71 183.162-120.889 75.756-76.178 44.116-107.649 119.876-183.827 75.75-76.178 107.4-44.708 183.17-120.897s44.11-107.649 119.87-183.827 107.41-44.719 183.17-120.897 44.13-107.659 119.88-183.838" stroke="url(#s)"/><path d="m779.573 1057.05c75.759-76.176 107.404-44.71 183.162-120.883 75.755-76.179 44.115-107.649 119.875-183.827 75.75-76.179 107.4-44.708 183.17-120.897 75.77-76.19 44.11-107.649 119.87-183.827 75.76-76.179 107.41-44.719 183.17-120.897 75.76-76.179 44.13-107.66 119.89-183.838" stroke="url(#t)"/><path d="m769.684 1047.22c75.759-76.18 107.403-44.71 183.162-120.888 75.754-76.178 44.113-107.648 119.874-183.827 75.76-76.178 107.4-44.708 183.17-120.897s44.11-107.648 119.87-183.827c75.76-76.178 107.42-44.719 183.17-120.897 75.76-76.178 44.13-107.659 119.89-183.838" stroke="url(#u)"/><path d="m759.795 1037.38c75.759-76.174 107.403-44.704 183.162-120.882 75.763-76.179 44.113-107.649 119.873-183.827s107.4-44.708 183.17-120.897c75.77-76.19 44.11-107.649 119.87-183.827s107.42-44.719 183.17-120.897c75.76-76.179 44.13-107.66 119.89-183.838" stroke="url(#v)"/><path d="m749.906 1027.55c75.759-76.179 107.404-44.709 183.162-120.887 75.762-76.178 44.113-107.648 119.872-183.827 75.76-76.178 107.4-44.708 183.17-120.897s44.12-107.648 119.87-183.827c75.76-76.178 107.42-44.719 183.18-120.897 75.75-76.178 44.12-107.659 119.88-183.838" stroke="url(#w)"/><path d="m740.017 1017.71c75.759-76.173 107.403-44.703 183.162-120.881 75.758-76.179 44.113-107.649 119.871-183.827 75.76-76.178 107.4-44.708 183.17-120.897 75.77-76.19 44.12-107.649 119.87-183.827 75.76-76.178 107.42-44.719 183.18-120.897 75.76-76.179 44.12-107.66 119.88-183.838" stroke="url(#x)"/><path d="m730.128 1007.88c75.759-76.178 107.403-44.708 183.162-120.886 75.758-76.178 44.113-107.648 119.87-183.827 75.76-76.178 107.4-44.708 183.17-120.897s44.12-107.648 119.88-183.827c75.75-76.178 107.41-44.719 183.17-120.897s44.12-107.659 119.88-183.8376" stroke="url(#y)"/><path d="m720.24 998.046c75.758-76.178 107.403-44.708 183.161-120.886 75.758-76.179 44.113-107.649 119.869-183.827 75.76-76.178 107.41-44.708 183.17-120.897 75.77-76.189 44.12-107.649 119.88-183.827 75.75-76.178 107.41-44.719 183.17-120.897s44.12-107.66 119.88-183.838" stroke="url(#z)"/><path d="m710.35 988.211c75.759-76.178 107.403-44.707 183.162-120.886 75.758-76.178 44.113-107.648 119.868-183.827 75.76-76.178 107.41-44.707 183.18-120.897 75.76-76.189 44.11-107.648 119.87-183.827 75.76-76.178 107.41-44.718 183.17-120.897 75.76-76.178 44.12-107.659 119.88-183.8375" stroke="url(#A)"/><path d="m700.461 978.377c75.759-76.178 107.403-44.708 183.162-120.886 75.758-76.179 44.113-107.649 119.867-183.827 75.76-76.178 107.41-44.708 183.18-120.897s44.11-107.649 119.87-183.827 107.41-44.719 183.17-120.897 44.13-107.66 119.88-183.838" stroke="url(#B)"/><path d="m690.573 968.542c75.758-76.178 107.403-44.707 183.161-120.886 75.758-76.178 44.113-107.648 119.872-183.827 75.754-76.178 107.404-44.707 183.174-120.897 75.77-76.189 44.11-107.648 119.87-183.827 75.76-76.178 107.41-44.718 183.17-120.897 75.76-76.178 44.13-107.659 119.88-183.8375" stroke="url(#C)"/><path d="m680.683 958.708c75.759-76.178 107.403-44.708 183.162-120.886 75.758-76.178 44.113-107.649 119.871-183.827 75.754-76.178 107.404-44.708 183.174-120.897s44.11-107.649 119.87-183.827 107.41-44.719 183.17-120.897 44.13-107.66 119.89-183.838" stroke="url(#D)"/><path d="m670.794 948.873c75.759-76.178 107.404-44.707 183.162-120.886 75.758-76.178 44.113-107.648 119.872-183.827 75.762-76.178 107.402-44.707 183.172-120.897 75.77-76.189 44.11-107.648 119.87-183.827 75.76-76.178 107.42-44.718 183.17-120.897 75.76-76.178 44.13-107.659 119.89-183.8375" stroke="url(#E)"/><path d="m660.906 939.039c75.758-76.178 107.403-44.708 183.161-120.886s44.113-107.649 119.872-183.827c75.761-76.178 107.401-44.708 183.171-120.897s44.11-107.649 119.87-183.827 107.42-44.719 183.18-120.897c75.75-76.178 44.12-107.66 119.88-183.838" stroke="url(#F)"/><path d="m651.016 929.204c75.759-76.178 107.403-44.707 183.162-120.886 75.758-76.178 44.113-107.648 119.871-183.827 75.761-76.178 107.401-44.707 183.171-120.897 75.77-76.189 44.12-107.648 119.87-183.827 75.76-76.178 107.42-44.718 183.18-120.897 75.75-76.178 44.12-107.6592 119.88-183.8375" stroke="url(#G)"/><path d="m641.127 919.37c75.759-76.178 107.404-44.708 183.162-120.886s44.113-107.649 119.872-183.827 107.399-44.708 183.169-120.897 44.12-107.649 119.87-183.827c75.76-76.178 107.42-44.719 183.18-120.897s44.12-107.6597 119.88-183.83793" stroke="url(#H)"/><path d="m631.239 909.536c75.758-76.179 107.403-44.708 183.161-120.887 75.758-76.178 44.113-107.648 119.872-183.826 75.758-76.179 107.398-44.708 183.168-120.898 75.77-76.189 44.12-107.648 119.88-183.826 75.75-76.179 107.41-44.719 183.17-120.898 75.76-76.178 44.12-107.6592 119.88-183.8374" stroke="url(#I)"/><path d="m621.349 899.701c75.759-76.178 107.403-44.708 183.162-120.886 75.758-76.178 44.113-107.649 119.872-183.827 75.757-76.178 107.407-44.708 183.167-120.897 75.77-76.189 44.12-107.649 119.88-183.827 75.75-76.178 107.41-44.719 183.17-120.897 75.76-76.1783 44.12-107.6596 119.88-183.8379" stroke="url(#J)"/><path d="m611.46 889.867c75.759-76.179 107.404-44.708 183.162-120.887 75.758-76.178 44.113-107.648 119.872-183.826 75.758-76.179 107.406-44.708 183.176-120.898 75.77-76.189 44.11-107.648 119.87-183.826 75.76-76.179 107.41-44.719 183.17-120.898 75.76-76.1778 44.12-107.6591 119.88-183.8373" stroke="url(#K)"/><path d="m601.572 880.032c75.758-76.178 107.403-44.708 183.161-120.886s44.113-107.649 119.872-183.827c75.758-76.178 107.405-44.708 183.175-120.897s44.11-107.649 119.87-183.827 107.41-44.719 183.17-120.897c75.76-76.1783 44.13-107.6596 119.88-183.8378" stroke="url(#L)"/><path d="m591.682 870.198c75.759-76.179 107.403-44.708 183.162-120.887 75.758-76.178 44.113-107.648 119.872-183.826 75.758-76.179 107.404-44.708 183.174-120.898 75.77-76.189 44.11-107.648 119.87-183.826 75.76-76.179 107.41-44.719 183.17-120.898 75.76-76.1778 44.13-107.6591 119.88-183.8374" stroke="url(#M)"/><path d="m581.793 860.363c75.759-76.178 107.404-44.708 183.162-120.886s44.113-107.649 119.872-183.827c75.758-76.178 107.403-44.708 183.173-120.897s44.11-107.649 119.87-183.827 107.41-44.719 183.17-120.897c75.76-76.1783 44.13-107.6596 119.89-183.8378" stroke="url(#N)"/><path d="m571.905 850.529c75.758-76.179 107.403-44.708 183.161-120.887 75.758-76.178 44.113-107.648 119.872-183.826 75.758-76.179 107.403-44.708 183.172-120.897 75.77-76.19 44.11-107.649 119.87-183.827 75.76-76.179 107.42-44.719 183.17-120.897 75.76-76.1787 44.13-107.6601 119.89-183.8383" stroke="url(#O)"/><path d="m562.015 840.694c75.759-76.178 107.403-44.708 183.162-120.886 75.758-76.178 44.113-107.649 119.872-183.827 75.758-76.178 107.403-44.708 183.171-120.897 75.77-76.189 44.11-107.649 119.87-183.827s107.42-44.719 183.17-120.897c75.76-76.1782 44.13-107.65952 119.89-183.8378" stroke="url(#P)"/><path d="m552.126 830.86c75.759-76.179 107.404-44.708 183.162-120.886 75.758-76.179 44.113-107.649 119.872-183.827 75.758-76.179 107.403-44.708 183.17-120.897 75.77-76.19 44.12-107.649 119.87-183.827 75.76-76.179 107.42-44.719 183.18-120.897 75.75-76.1787 44.12-107.66 119.88-183.8382" stroke="url(#Q)"/><path d="m542.238 821.025c75.758-76.178 107.403-44.708 183.161-120.886s44.113-107.649 119.872-183.827c75.758-76.178 107.403-44.708 183.169-120.897 75.77-76.189 44.12-107.649 119.87-183.827 75.76-76.178 107.42-44.719 183.18-120.8969 75.76-76.1783 44.12-107.6596 119.88-183.8378" stroke="url(#R)"/><path d="m532.348 811.191c75.759-76.179 107.403-44.708 183.162-120.886 75.758-76.179 44.113-107.649 119.872-183.827 75.758-76.179 107.403-44.708 183.168-120.897 75.77-76.19 44.12-107.649 119.88-183.827 75.75-76.179 107.41-44.719 183.17-120.8974 75.76-76.17824 44.12-107.6595 119.88-183.8376" stroke="url(#S)"/><path d="m522.459 801.356c75.759-76.178 107.404-44.708 183.162-120.886s44.113-107.648 119.872-183.827c75.758-76.178 107.403-44.708 183.167-120.897 75.77-76.189 44.12-107.648 119.88-183.827 75.75-76.178 107.41-44.719 183.17-120.8969 75.76-76.17821 44.12-107.6595 119.88-183.8381" stroke="url(#T)"/><path d="m512.571 791.522c75.758-76.179 107.403-44.708 183.161-120.886 75.758-76.179 44.113-107.649 119.872-183.827 75.758-76.179 107.403-44.708 183.172-120.897 75.774-76.19 44.114-107.649 119.874-183.827 75.76-76.179 107.41-44.719 183.17-120.8974 75.76-76.1782 44.12-107.6595 119.88-183.8376" stroke="url(#U)"/><path d="m502.681 781.687c75.759-76.178 107.403-44.708 183.162-120.886 75.758-76.178 44.113-107.648 119.872-183.827 75.758-76.178 107.403-44.708 183.172-120.897 75.773-76.189 44.113-107.648 119.873-183.827 75.76-76.178 107.41-44.719 183.17-120.8969 75.76-76.1782 44.13-107.6595 119.88-183.8381" stroke="url(#V)"/><path d="m492.792 771.853c75.759-76.178 107.404-44.708 183.162-120.886 75.758-76.179 44.113-107.649 119.872-183.827 75.758-76.178 107.403-44.708 183.172-120.897 75.772-76.19 44.112-107.649 119.872-183.827 75.76-76.1785 107.41-44.719 183.17-120.8973s44.13-107.6596 119.88-183.8377" stroke="url(#W)"/><path d="m482.904 762.018c75.758-76.178 107.403-44.708 183.161-120.886s44.113-107.648 119.872-183.827c75.758-76.178 107.403-44.708 183.172-120.897 75.771-76.189 44.111-107.648 119.871-183.827 75.76-76.1779 107.41-44.719 183.17-120.8968 75.76-76.1783 44.13-107.6596 119.89-183.8382" stroke="url(#X)"/><path d="m473.014 752.184c75.759-76.178 107.403-44.708 183.162-120.886 75.758-76.179 44.113-107.649 119.872-183.827 75.758-76.178 107.403-44.708 183.172-120.897 75.77-76.19 44.11-107.649 119.87-183.827 75.76-76.1784 107.42-44.719 183.17-120.8973 75.76-76.1782 44.13-107.6595 119.89-183.8377" stroke="url(#Y)"/><path d="m463.125 742.349c75.759-76.178 107.404-44.708 183.162-120.886s44.113-107.648 119.872-183.827c75.758-76.178 107.403-44.708 183.172-120.897s44.113-107.648 119.869-183.827c75.76-76.1779 107.42-44.7185 183.17-120.8968 75.76-76.1782 44.13-107.6595 119.89-183.8382" stroke="url(#Z)"/><path d="m453.237 732.515c75.758-76.178 107.403-44.708 183.161-120.886 75.758-76.179 44.113-107.649 119.883-183.838 75.769-76.189 107.403-44.708 183.172-120.897 75.767-76.189 44.113-107.649 119.867-183.827 75.76-76.1783 107.42-44.719 183.18-120.89723 75.76-76.17827 44.12-107.65977 119.88-183.83777" stroke="url(#aa)"/><path d="m443.347 722.68c75.759-76.178 107.403-44.707 183.162-120.886 75.758-76.178 44.113-107.648 119.882-183.838 75.77-76.189 107.404-44.707 183.173-120.897 75.766-76.189 44.113-107.648 119.876-183.827 75.75-76.1778 107.41-44.7185 183.17-120.8967 75.76-76.1783 44.11-107.6483 119.88-183.8383" stroke="url(#ab)"/></g></g></svg>