<svg fill="none" height="210" viewBox="0 0 141 210" width="141" xmlns="http://www.w3.org/2000/svg" xmlns:xlink="http://www.w3.org/1999/xlink"><clipPath id="a"><path d="m0 0h130.77v130.77h-130.77z" transform="matrix(.845728 .533615 .180862 .983508 6.47607 3.29236)"/></clipPath><path d="m126.923 141.806c3.599 19.575-1.37 29.44-11.615 33.553-8.419 3.38-17.2065 8.603-34.8433-4.302-30.4105-19.749-60.5478-64.136-67.1059-99.7983-4.33274-14.5387.2149-26.2219 6.8826-32.6926 8.1003-7.861 22.4649-10.8323 39.1451 0 30.4105 19.7487 60.9775 67.5779 67.5365 103.2399z" fill="#673ab7"/><g clip-path="url(#a)"><path d="m85.4257 166.797c30.5403 19.269 50.0033 6.099 43.4723-29.417-6.531-35.515-36.5835-79.9276-67.1238-99.1971s-50.0036-6.0994-43.4724 29.4164c6.5312 35.5157 36.5836 79.9277 67.1239 99.1977z" fill="#f0f0f0"/><g fill="#6da544"><path d="m18.3018 67.5992c5.0847 27.65 24.4258 60.6898 47.1543 83.0618l-22.1803-120.6139c-19.3868-4.2005-30.0586 9.9026-24.974 37.5521z"/><path d="m128.898 137.38c-5.085-27.649-24.426-60.6891-47.1542-83.0613l22.1802 120.6143c19.387 4.2 30.059-9.903 24.974-37.553z"/></g></g></svg>