<svg width="28" height="28" viewBox="0 0 28 28" fill="none" xmlns="http://www.w3.org/2000/svg"><g clip-path="url(#clip0_256_17857)"><path d="M14 28C21.732 28 28 21.732 28 14C28 6.26801 21.732 0 14 0C6.26801 0 0 6.26801 0 14C0 21.732 6.26801 28 14 28Z" fill="#F0F0F0"/><path d="M0 14C0 20.0196 3.79925 25.1511 9.13046 27.1293V0.87085C3.79925 2.8489 0 7.98055 0 14Z" fill="#6DA544"/><path d="M28 14C28 7.98055 24.2008 2.8489 18.8696 0.87085V27.1293C24.2008 25.1511 28 20.0196 28 14Z" fill="#6DA544"/></g><defs><clipPath id="clip0_256_17857"><rect width="28" height="28" fill="#fff"/></clipPath></defs></svg>