<svg fill="none" height="32" viewBox="0 0 32 32" width="32" xmlns="http://www.w3.org/2000/svg" xmlns:xlink="http://www.w3.org/1999/xlink"><clipPath id="a"><path d="m8 8h16v16h-16z"/></clipPath><rect fill="#522e92" height="32" rx="16" width="32"/><g clip-path="url(#a)"><path d="m16 24c4.4183 0 8-3.5817 8-8s-3.5817-8-8-8-8 3.5817-8 8 3.5817 8 8 8z" fill="#f0f0f0"/><g fill="#6da544"><path d="m8 15.9999c0 3.4398 2.171 6.3721 5.2174 7.5025v-15.00484c-3.0464 1.13031-5.2174 4.06264-5.2174 7.50234z"/><path d="m24 15.9999c0-3.4397-2.171-6.37203-5.2174-7.50234v15.00484c3.0464-1.1304 5.2174-4.0627 5.2174-7.5025z"/></g></g></svg>