<svg fill="none" height="317" viewBox="0 0 384 317" width="384" xmlns="http://www.w3.org/2000/svg" xmlns:xlink="http://www.w3.org/1999/xlink"><linearGradient id="a"><stop offset="0" stop-color="#892fff"/><stop offset="1" stop-color="#e2ccff"/></linearGradient><linearGradient id="b" gradientUnits="userSpaceOnUse" x1="326.759" x2="361.625" xlink:href="#a" y1="159.002" y2="159.002"/><linearGradient id="c" gradientUnits="userSpaceOnUse" x1="370.273" x2="405.139" xlink:href="#a" y1="159.002" y2="159.002"/><linearGradient id="d"><stop offset="0" stop-color="#9747ff"/><stop offset="1" stop-color="#231f20" stop-opacity="0"/></linearGradient><linearGradient id="e" gradientUnits="userSpaceOnUse" x1="315.864" x2="350.73" xlink:href="#d" y1="159.002" y2="159.002"/><linearGradient id="f" gradientUnits="userSpaceOnUse" x1="359.378" x2="394.244" xlink:href="#d" y1="159.002" y2="159.002"/><linearGradient id="g" gradientUnits="userSpaceOnUse" x1="304.968" x2="339.834" xlink:href="#a" y1="159.002" y2="159.002"/><linearGradient id="h" gradientUnits="userSpaceOnUse" x1="348.482" x2="383.348" xlink:href="#a" y1="159.002" y2="159.002"/><linearGradient id="i" gradientUnits="userSpaceOnUse" x1="294.073" x2="328.939" xlink:href="#d" y1="159.002" y2="159.002"/><linearGradient id="j" gradientUnits="userSpaceOnUse" x1="337.586" x2="372.452" xlink:href="#d" y1="159.002" y2="159.002"/><linearGradient id="k" gradientUnits="userSpaceOnUse" x1="381.101" x2="415.967" xlink:href="#d" y1="159.002" y2="159.002"/><linearGradient id="l" gradientUnits="userSpaceOnUse" x1="283.177" x2="318.043" xlink:href="#a" y1="159.002" y2="159.002"/><linearGradient id="m" gradientUnits="userSpaceOnUse" x1="272.281" x2="307.147" xlink:href="#d" y1="159.002" y2="159.002"/><linearGradient id="n" gradientUnits="userSpaceOnUse" x1="261.386" x2="296.252" xlink:href="#a" y1="159.002" y2="159.002"/><linearGradient id="o" gradientUnits="userSpaceOnUse" x1="250.49" x2="285.356" xlink:href="#d" y1="159.002" y2="159.002"/><linearGradient id="p" gradientUnits="userSpaceOnUse" x1="239.594" x2="274.46" xlink:href="#a" y1="159.002" y2="159.002"/><linearGradient id="q" gradientUnits="userSpaceOnUse" x1="228.699" x2="263.565" xlink:href="#d" y1="159.002" y2="159.002"/><linearGradient id="r" gradientUnits="userSpaceOnUse" x1="217.803" x2="252.669" xlink:href="#a" y1="159.002" y2="159.002"/><linearGradient id="s" gradientUnits="userSpaceOnUse" x1="206.908" x2="241.774" xlink:href="#d" y1="159.002" y2="159.002"/><linearGradient id="t" gradientUnits="userSpaceOnUse" x1="196.012" x2="230.878" xlink:href="#a" y1="159.002" y2="159.002"/><linearGradient id="u" gradientUnits="userSpaceOnUse" x1="185.116" x2="219.982" xlink:href="#d" y1="159.002" y2="159.002"/><linearGradient id="v" gradientUnits="userSpaceOnUse" x1="174.221" x2="209.087" xlink:href="#a" y1="159.002" y2="159.002"/><linearGradient id="w" gradientUnits="userSpaceOnUse" x1="163.325" x2="198.191" xlink:href="#d" y1="159.002" y2="159.002"/><linearGradient id="x" gradientUnits="userSpaceOnUse" x1="152.429" x2="187.295" xlink:href="#a" y1="159.002" y2="159.002"/><linearGradient id="y" gradientUnits="userSpaceOnUse" x1="141.534" x2="176.4" xlink:href="#d" y1="159.002" y2="159.002"/><linearGradient id="z" gradientUnits="userSpaceOnUse" x1="130.638" x2="165.504" xlink:href="#a" y1="159.002" y2="159.002"/><linearGradient id="A" gradientUnits="userSpaceOnUse" x1="119.743" x2="154.609" xlink:href="#d" y1="159.002" y2="159.002"/><linearGradient id="B" gradientUnits="userSpaceOnUse" x1="108.847" x2="143.713" xlink:href="#a" y1="159.002" y2="159.002"/><linearGradient id="C" gradientUnits="userSpaceOnUse" x1="97.9511" x2="132.817" xlink:href="#d" y1="159.002" y2="159.002"/><linearGradient id="D" gradientUnits="userSpaceOnUse" x1="87.0552" x2="121.921" xlink:href="#a" y1="159.002" y2="159.002"/><linearGradient id="E" gradientUnits="userSpaceOnUse" x1="76.1601" x2="111.026" xlink:href="#d" y1="159.002" y2="159.002"/><linearGradient id="F" gradientUnits="userSpaceOnUse" x1="65.2641" x2="100.13" xlink:href="#a" y1="159.002" y2="159.002"/><linearGradient id="G" gradientUnits="userSpaceOnUse" x1="54.3686" x2="89.2346" xlink:href="#d" y1="159.002" y2="159.002"/><linearGradient id="H" gradientUnits="userSpaceOnUse" x1="43.4731" x2="78.3391" xlink:href="#a" y1="159.002" y2="159.002"/><linearGradient id="I" gradientUnits="userSpaceOnUse" x1="32.5771" x2="67.4431" xlink:href="#d" y1="159.002" y2="159.002"/><linearGradient id="J" gradientUnits="userSpaceOnUse" x1="21.6816" x2="56.5476" xlink:href="#a" y1="159.002" y2="159.002"/><linearGradient id="K" gradientUnits="userSpaceOnUse" x1="10.7861" x2="45.6521" xlink:href="#d" y1="159.002" y2="159.002"/><linearGradient id="L" gradientUnits="userSpaceOnUse" x1="-.109397" x2="34.7566" xlink:href="#a" y1="159.002" y2="159.002"/><linearGradient id="M" gradientUnits="userSpaceOnUse" x1="-11.0049" x2="23.8611" xlink:href="#d" y1="159.002" y2="159.002"/><linearGradient id="N" gradientUnits="userSpaceOnUse" x1="-21.9009" x2="12.9651" xlink:href="#a" y1="159.002" y2="159.002"/><linearGradient id="O" gradientUnits="userSpaceOnUse" x1="-32.7964" x2="2.0696" xlink:href="#d" y1="159.002" y2="159.002"/><clipPath id="P"><path d="m0 0h384v317h-384z"/></clipPath><clipPath id="Q"><path d="m0 0h338v401h-338z" transform="matrix(0 -1 1 0 -9 328)"/></clipPath><g clip-path="url(#P)"><path d="m0 0h384v317h-384z" fill="#f0ebf8"/><g clip-path="url(#Q)" opacity=".2" stroke-miterlimit="10"><path d="m326.759 662.922c0-83.984 34.866-83.984 34.866-167.967 0-83.984-34.866-83.984-34.866-167.968 0-83.983 34.866-83.983 34.866-167.979 0-83.9957-34.866-83.9837-34.866-167.9673s34.866-83.9957 34.866-167.9797c0-83.983-34.866-83.995-34.866-167.979" stroke="url(#b)"/><path d="m370.273 662.922c0-83.984 34.866-83.984 34.866-167.967 0-83.984-34.866-83.984-34.866-167.968 0-83.983 34.866-83.983 34.866-167.979 0-83.9957-34.866-83.9837-34.866-167.9673s34.866-83.9957 34.866-167.9797c0-83.983-34.866-83.995-34.866-167.979" stroke="url(#c)"/><path d="m315.864 662.922c0-83.984 34.866-83.984 34.866-167.967 0-83.984-34.866-83.984-34.866-167.968 0-83.983 34.866-83.983 34.866-167.979 0-83.9957-34.866-83.9837-34.866-167.9673s34.866-83.9957 34.866-167.9797c0-83.983-34.866-83.995-34.866-167.979" stroke="url(#e)"/><path d="m359.378 662.922c0-83.984 34.866-83.984 34.866-167.967 0-83.984-34.866-83.984-34.866-167.968 0-83.983 34.866-83.983 34.866-167.979 0-83.9957-34.866-83.9837-34.866-167.9673s34.866-83.9957 34.866-167.9797c0-83.983-34.866-83.995-34.866-167.979" stroke="url(#f)"/><path d="m304.968 662.922c0-83.984 34.866-83.984 34.866-167.967 0-83.984-34.866-83.984-34.866-167.968 0-83.983 34.866-83.983 34.866-167.979 0-83.9957-34.866-83.9837-34.866-167.9673s34.866-83.9957 34.866-167.9797c0-83.983-34.866-83.995-34.866-167.979" stroke="url(#g)"/><path d="m348.482 662.922c0-83.984 34.866-83.984 34.866-167.967 0-83.984-34.866-83.984-34.866-167.968 0-83.983 34.866-83.983 34.866-167.979 0-83.9957-34.866-83.9837-34.866-167.9673s34.866-83.9957 34.866-167.9797c0-83.983-34.866-83.995-34.866-167.979" stroke="url(#h)"/><path d="m294.073 662.922c0-83.984 34.866-83.984 34.866-167.967 0-83.984-34.866-83.984-34.866-167.968 0-83.983 34.866-83.983 34.866-167.979 0-83.9957-34.866-83.9837-34.866-167.9673s34.866-83.9957 34.866-167.9797c0-83.983-34.866-83.995-34.866-167.979" stroke="url(#i)"/><path d="m337.586 662.922c0-83.984 34.866-83.984 34.866-167.967 0-83.984-34.866-83.984-34.866-167.968 0-83.983 34.866-83.983 34.866-167.979 0-83.9957-34.866-83.9837-34.866-167.9673s34.866-83.9957 34.866-167.9797c0-83.983-34.866-83.995-34.866-167.979" stroke="url(#j)"/><path d="m381.101 662.922c0-83.984 34.866-83.984 34.866-167.967 0-83.984-34.866-83.984-34.866-167.968 0-83.983 34.866-83.983 34.866-167.979 0-83.9957-34.866-83.9837-34.866-167.9673s34.866-83.9957 34.866-167.9797c0-83.983-34.866-83.995-34.866-167.979" stroke="url(#k)"/><path d="m283.177 662.922c0-83.984 34.866-83.984 34.866-167.967 0-83.984-34.866-83.984-34.866-167.968 0-83.983 34.866-83.983 34.866-167.979 0-83.9957-34.866-83.9837-34.866-167.9673s34.866-83.9957 34.866-167.9797c0-83.983-34.866-83.995-34.866-167.979" stroke="url(#l)"/><path d="m272.281 662.922c0-83.984 34.866-83.984 34.866-167.967 0-83.984-34.866-83.984-34.866-167.968 0-83.983 34.866-83.983 34.866-167.979 0-83.9957-34.866-83.9837-34.866-167.9673s34.866-83.9957 34.866-167.9797c0-83.983-34.866-83.995-34.866-167.979" stroke="url(#m)"/><path d="m261.386 662.922c0-83.984 34.866-83.984 34.866-167.967 0-83.984-34.866-83.984-34.866-167.968 0-83.983 34.866-83.983 34.866-167.979 0-83.9957-34.866-83.9837-34.866-167.9673s34.866-83.9957 34.866-167.9797c0-83.983-34.866-83.995-34.866-167.979" stroke="url(#n)"/><path d="m250.49 662.922c0-83.984 34.866-83.984 34.866-167.967 0-83.984-34.866-83.984-34.866-167.968 0-83.983 34.866-83.983 34.866-167.979 0-83.9957-34.866-83.9837-34.866-167.9673s34.866-83.9957 34.866-167.9797c0-83.983-34.866-83.995-34.866-167.979" stroke="url(#o)"/><path d="m239.594 662.922c0-83.984 34.866-83.984 34.866-167.967 0-83.984-34.866-83.984-34.866-167.968 0-83.983 34.866-83.983 34.866-167.979 0-83.9957-34.866-83.9837-34.866-167.9673s34.866-83.9957 34.866-167.9797c0-83.983-34.866-83.995-34.866-167.979" stroke="url(#p)"/><path d="m228.699 662.922c0-83.984 34.866-83.984 34.866-167.967 0-83.984-34.866-83.984-34.866-167.968 0-83.983 34.866-83.983 34.866-167.979 0-83.9957-34.866-83.9837-34.866-167.9673s34.866-83.9957 34.866-167.9797c0-83.983-34.866-83.995-34.866-167.979" stroke="url(#q)"/><path d="m217.803 662.922c0-83.984 34.866-83.984 34.866-167.967 0-83.984-34.866-83.984-34.866-167.968 0-83.983 34.866-83.983 34.866-167.979 0-83.9957-34.866-83.9837-34.866-167.9673s34.866-83.9957 34.866-167.9797c0-83.983-34.866-83.995-34.866-167.979" stroke="url(#r)"/><path d="m206.908 662.922c0-83.984 34.866-83.984 34.866-167.967 0-83.984-34.866-83.984-34.866-167.968 0-83.983 34.866-83.983 34.866-167.979 0-83.9957-34.866-83.9837-34.866-167.9673s34.866-83.9957 34.866-167.9797c0-83.983-34.866-83.995-34.866-167.979" stroke="url(#s)"/><path d="m196.012 662.922c0-83.984 34.866-83.984 34.866-167.967 0-83.984-34.866-83.984-34.866-167.968 0-83.983 34.866-83.983 34.866-167.979 0-83.9957-34.866-83.9837-34.866-167.9673s34.866-83.9957 34.866-167.9797c0-83.983-34.866-83.995-34.866-167.979" stroke="url(#t)"/><path d="m185.116 662.922c0-83.984 34.866-83.984 34.866-167.967 0-83.984-34.866-83.984-34.866-167.968 0-83.983 34.866-83.983 34.866-167.979 0-83.9957-34.866-83.9837-34.866-167.9673s34.866-83.9957 34.866-167.9797c0-83.983-34.866-83.995-34.866-167.979" stroke="url(#u)"/><path d="m174.221 662.922c0-83.984 34.866-83.984 34.866-167.967 0-83.984-34.866-83.984-34.866-167.968 0-83.983 34.866-83.983 34.866-167.979 0-83.9957-34.866-83.9837-34.866-167.9673s34.866-83.9957 34.866-167.9797c0-83.983-34.866-83.995-34.866-167.979" stroke="url(#v)"/><path d="m163.325 662.922c0-83.984 34.866-83.984 34.866-167.967 0-83.984-34.866-83.984-34.866-167.968 0-83.983 34.866-83.983 34.866-167.979 0-83.9957-34.866-83.9837-34.866-167.9673s34.866-83.9957 34.866-167.9797c0-83.983-34.866-83.995-34.866-167.979" stroke="url(#w)"/><path d="m152.429 662.922c0-83.984 34.866-83.984 34.866-167.967 0-83.984-34.866-83.984-34.866-167.968 0-83.983 34.866-83.983 34.866-167.979 0-83.9957-34.866-83.9837-34.866-167.9673s34.866-83.9957 34.866-167.9797c0-83.983-34.866-83.995-34.866-167.979" stroke="url(#x)"/><path d="m141.534 662.922c0-83.984 34.866-83.984 34.866-167.967 0-83.984-34.866-83.984-34.866-167.968 0-83.983 34.866-83.983 34.866-167.979 0-83.9957-34.866-83.9837-34.866-167.9673s34.866-83.9957 34.866-167.9797c0-83.983-34.866-83.995-34.866-167.979" stroke="url(#y)"/><path d="m130.638 662.922c0-83.984 34.866-83.984 34.866-167.967 0-83.984-34.866-83.984-34.866-167.968 0-83.983 34.866-83.983 34.866-167.979 0-83.9957-34.866-83.9837-34.866-167.9673s34.866-83.9957 34.866-167.9797c0-83.983-34.866-83.995-34.866-167.979" stroke="url(#z)"/><path d="m119.743 662.922c0-83.984 34.866-83.984 34.866-167.967 0-83.984-34.866-83.984-34.866-167.968 0-83.983 34.866-83.983 34.866-167.979 0-83.9957-34.866-83.9837-34.866-167.9673s34.866-83.9957 34.866-167.9797c0-83.983-34.866-83.995-34.866-167.979" stroke="url(#A)"/><path d="m108.847 662.922c0-83.984 34.866-83.984 34.866-167.967 0-83.984-34.866-83.984-34.866-167.968 0-83.983 34.866-83.983 34.866-167.979 0-83.9957-34.866-83.9837-34.866-167.9673s34.866-83.9957 34.866-167.9797c0-83.983-34.866-83.995-34.866-167.979" stroke="url(#B)"/><path d="m97.9512 662.922c0-83.984 34.8658-83.984 34.8658-167.967 0-83.984-34.8658-83.984-34.8658-167.968 0-83.983 34.8658-83.983 34.8658-167.979 0-83.9957-34.8659-83.9837-34.8659-167.9673s34.8659-83.9957 34.8659-167.9797c0-83.983-34.8659-83.995-34.8659-167.979" stroke="url(#C)"/><path d="m87.0552 662.922c0-83.984 34.8658-83.984 34.8658-167.967 0-83.984-34.8658-83.984-34.8658-167.968 0-83.983 34.8658-83.983 34.8658-167.979 0-83.9957-34.8658-83.9837-34.8659-167.9673 0-83.9836 34.8659-83.9957 34.8659-167.9797 0-83.983-34.8659-83.995-34.8659-167.979" stroke="url(#D)"/><path d="m76.1602 662.922c0-83.984 34.8658-83.984 34.8658-167.967 0-83.984-34.8659-83.984-34.8659-167.968 0-83.983 34.8659-83.983 34.8659-167.979 0-83.9957-34.8659-83.9837-34.8659-167.9673s34.8659-83.9957 34.8659-167.9797c0-83.983-34.8659-83.995-34.8659-167.979" stroke="url(#E)"/><path d="m65.2642 662.922c0-83.984 34.8658-83.984 34.8658-167.967 0-83.984-34.8659-83.984-34.8659-167.968 0-83.983 34.8659-83.983 34.8659-167.979 0-83.9957-34.8659-83.9837-34.8659-167.9673s34.8659-83.9957 34.8659-167.9797c0-83.983-34.8659-83.995-34.8659-167.979" stroke="url(#F)"/><path d="m54.3687 662.922c-.0001-83.984 34.866-83.984 34.866-167.967-.0001-83.984-34.8661-83.984-34.8661-167.968 0-83.983 34.866-83.983 34.866-167.979 0-83.9957-34.866-83.9837-34.866-167.9673s34.866-83.9957 34.866-167.9797c0-83.983-34.866-83.995-34.866-167.979" stroke="url(#G)"/><path d="m43.4731 662.922c0-83.984 34.866-83.984 34.866-167.967 0-83.984-34.866-83.984-34.866-167.968 0-83.983 34.866-83.983 34.866-167.979 0-83.9957-34.866-83.9837-34.866-167.9673s34.866-83.9957 34.866-167.9797c0-83.983-34.866-83.995-34.866-167.979" stroke="url(#H)"/><path d="m32.5771 662.922c0-83.984 34.866-83.984 34.866-167.967 0-83.984-34.866-83.984-34.866-167.968 0-83.983 34.866-83.983 34.866-167.979 0-83.9957-34.866-83.9837-34.866-167.9673s34.866-83.9957 34.866-167.9797c0-83.983-34.866-83.995-34.866-167.979" stroke="url(#I)"/><path d="m21.6816 662.922c0-83.984 34.866-83.984 34.866-167.967 0-83.984-34.866-83.984-34.866-167.968 0-83.983 34.866-83.983 34.866-167.979 0-83.9957-34.866-83.9837-34.866-167.9673s34.866-83.9957 34.866-167.9797c0-83.983-34.866-83.995-34.866-167.979" stroke="url(#J)"/><path d="m10.7861 662.922c0-83.984 34.866-83.984 34.866-167.967 0-83.984-34.866-83.984-34.866-167.968 0-83.983 34.866-83.983 34.866-167.979 0-83.9957-34.866-83.9837-34.866-167.9673s34.866-83.9957 34.866-167.9797c0-83.983-34.866-83.995-34.866-167.979" stroke="url(#K)"/><path d="m-.109375 662.922c-.000004-83.984 34.865975-83.984 34.865975-167.967 0-83.984-34.865986-83.984-34.86599-167.968-.000003-83.983 34.86599-83.983 34.86599-167.979 0-83.9957-34.866001-83.9837-34.866004-167.9673-.000004-83.9836 34.866004-83.9957 34.866004-167.9797 0-83.983-34.866015-83.995-34.866019-167.979" stroke="url(#L)"/><path d="m-11.0049 662.922c0-83.984 34.866-83.984 34.866-167.967 0-83.984-34.866-83.984-34.866-167.968 0-83.983 34.866-83.983 34.866-167.979 0-83.9957-34.866-83.9837-34.866-167.9673s34.866-83.9957 34.866-167.9797c0-83.983-34.866-83.995-34.866-167.979" stroke="url(#M)"/><path d="m-21.9009 662.922c0-83.984 34.866-83.984 34.866-167.967 0-83.984-34.866-83.984-34.866-167.968 0-83.983 34.866-83.983 34.866-167.979 0-83.9957-34.866-83.9837-34.866-167.9673s34.866-83.9957 34.866-167.9797c0-83.983-34.866-83.995-34.866-167.979" stroke="url(#N)"/><path d="m-32.7964 662.922c0-83.984 34.86601-83.984 34.86601-167.967 0-83.984-34.86601-83.984-34.86601-167.968 0-83.983 34.866-83.983 34.866-167.979-.00001-83.9957-34.866-83.9837-34.866-167.9673s34.86599-83.9957 34.86598-167.9797c0-83.983-34.86598-83.995-34.86598-167.979" stroke="url(#O)"/></g></g></svg>