<svg width="352" height="96" viewBox="0 0 352 96" fill="none" xmlns="http://www.w3.org/2000/svg">
<g clip-path="url(#clip0_714_2435)">
<rect width="352" height="96" fill="#522E92"/>
<g opacity="0.2" clip-path="url(#clip1_714_2435)">
<path d="M311.76 651.922C311.76 567.938 346.626 567.938 346.626 483.955C346.626 399.971 311.76 399.971 311.76 315.987C311.76 232.004 346.626 232.004 346.626 148.008C346.626 64.0123 311.76 64.0243 311.76 -19.9593C311.76 -103.943 346.626 -103.955 346.626 -187.939C346.626 -271.922 311.76 -271.934 311.76 -355.918" stroke="url(#paint0_linear_714_2435)" stroke-miterlimit="10"/>
<path d="M300.864 651.922C300.864 567.938 335.73 567.938 335.73 483.955C335.73 399.971 300.864 399.971 300.864 315.987C300.864 232.004 335.73 232.004 335.73 148.008C335.73 64.0123 300.864 64.0243 300.864 -19.9593C300.864 -103.943 335.73 -103.955 335.73 -187.939C335.73 -271.922 300.864 -271.934 300.864 -355.918" stroke="url(#paint1_linear_714_2435)" stroke-miterlimit="10"/>
<path d="M344.378 651.922C344.378 567.938 379.244 567.938 379.244 483.955C379.244 399.971 344.378 399.971 344.378 315.987C344.378 232.004 379.244 232.004 379.244 148.008C379.244 64.0123 344.378 64.0243 344.378 -19.9593C344.378 -103.943 379.244 -103.955 379.244 -187.939C379.244 -271.922 344.378 -271.934 344.378 -355.918" stroke="url(#paint2_linear_714_2435)" stroke-miterlimit="10"/>
<path d="M289.969 651.922C289.969 567.938 324.835 567.938 324.835 483.955C324.835 399.971 289.969 399.971 289.969 315.987C289.969 232.004 324.835 232.004 324.835 148.008C324.835 64.0123 289.969 64.0243 289.969 -19.9593C289.969 -103.943 324.835 -103.955 324.835 -187.939C324.835 -271.922 289.969 -271.934 289.969 -355.918" stroke="url(#paint3_linear_714_2435)" stroke-miterlimit="10"/>
<path d="M333.482 651.922C333.482 567.938 368.348 567.938 368.348 483.955C368.348 399.971 333.482 399.971 333.482 315.987C333.482 232.004 368.348 232.004 368.348 148.008C368.348 64.0123 333.482 64.0243 333.482 -19.9593C333.482 -103.943 368.348 -103.955 368.348 -187.939C368.348 -271.922 333.482 -271.934 333.482 -355.918" stroke="url(#paint4_linear_714_2435)" stroke-miterlimit="10"/>
<path d="M279.073 651.922C279.073 567.938 313.939 567.938 313.939 483.955C313.939 399.971 279.073 399.971 279.073 315.987C279.073 232.004 313.939 232.004 313.939 148.008C313.939 64.0123 279.073 64.0243 279.073 -19.9593C279.073 -103.943 313.939 -103.955 313.939 -187.939C313.939 -271.922 279.073 -271.934 279.073 -355.918" stroke="url(#paint5_linear_714_2435)" stroke-miterlimit="10"/>
<path d="M322.587 651.922C322.587 567.938 357.453 567.938 357.453 483.955C357.453 399.971 322.587 399.971 322.587 315.987C322.587 232.004 357.453 232.004 357.453 148.008C357.453 64.0123 322.587 64.0243 322.587 -19.9593C322.587 -103.943 357.453 -103.955 357.453 -187.939C357.453 -271.922 322.587 -271.934 322.587 -355.918" stroke="url(#paint6_linear_714_2435)" stroke-miterlimit="10"/>
<path d="M268.177 651.922C268.177 567.938 303.043 567.938 303.043 483.955C303.043 399.971 268.177 399.971 268.177 315.987C268.177 232.004 303.043 232.004 303.043 148.008C303.043 64.0123 268.177 64.0243 268.177 -19.9593C268.177 -103.943 303.043 -103.955 303.043 -187.939C303.043 -271.922 268.177 -271.934 268.177 -355.918" stroke="url(#paint7_linear_714_2435)" stroke-miterlimit="10"/>
<path d="M257.281 651.922C257.281 567.938 292.147 567.938 292.147 483.955C292.147 399.971 257.281 399.971 257.281 315.987C257.281 232.004 292.147 232.004 292.147 148.008C292.147 64.0123 257.281 64.0243 257.281 -19.9593C257.281 -103.943 292.147 -103.955 292.147 -187.939C292.147 -271.922 257.281 -271.934 257.281 -355.918" stroke="url(#paint8_linear_714_2435)" stroke-miterlimit="10"/>
<path d="M246.386 651.922C246.386 567.938 281.252 567.938 281.252 483.955C281.252 399.971 246.386 399.971 246.386 315.987C246.386 232.004 281.252 232.004 281.252 148.008C281.252 64.0123 246.386 64.0243 246.386 -19.9593C246.386 -103.943 281.252 -103.955 281.252 -187.939C281.252 -271.922 246.386 -271.934 246.386 -355.918" stroke="url(#paint9_linear_714_2435)" stroke-miterlimit="10"/>
<path d="M235.49 651.922C235.49 567.938 270.356 567.938 270.356 483.955C270.356 399.971 235.49 399.971 235.49 315.987C235.49 232.004 270.356 232.004 270.356 148.008C270.356 64.0123 235.49 64.0243 235.49 -19.9593C235.49 -103.943 270.356 -103.955 270.356 -187.939C270.356 -271.922 235.49 -271.934 235.49 -355.918" stroke="url(#paint10_linear_714_2435)" stroke-miterlimit="10"/>
<path d="M224.594 651.922C224.594 567.938 259.46 567.938 259.46 483.955C259.46 399.971 224.594 399.971 224.594 315.987C224.594 232.004 259.46 232.004 259.46 148.008C259.46 64.0123 224.594 64.0243 224.594 -19.9593C224.594 -103.943 259.46 -103.955 259.46 -187.939C259.46 -271.922 224.594 -271.934 224.594 -355.918" stroke="url(#paint11_linear_714_2435)" stroke-miterlimit="10"/>
<path d="M213.698 651.922C213.698 567.938 248.564 567.938 248.564 483.955C248.564 399.971 213.698 399.971 213.698 315.987C213.698 232.004 248.564 232.004 248.564 148.008C248.564 64.0123 213.698 64.0243 213.698 -19.9593C213.698 -103.943 248.564 -103.955 248.564 -187.939C248.564 -271.922 213.698 -271.934 213.698 -355.918" stroke="url(#paint12_linear_714_2435)" stroke-miterlimit="10"/>
<path d="M202.803 651.922C202.803 567.938 237.669 567.938 237.669 483.955C237.669 399.971 202.803 399.971 202.803 315.987C202.803 232.004 237.669 232.004 237.669 148.008C237.669 64.0123 202.803 64.0243 202.803 -19.9593C202.803 -103.943 237.669 -103.955 237.669 -187.939C237.669 -271.922 202.803 -271.934 202.803 -355.918" stroke="url(#paint13_linear_714_2435)" stroke-miterlimit="10"/>
<path d="M191.907 651.922C191.907 567.938 226.773 567.938 226.773 483.955C226.773 399.971 191.907 399.971 191.907 315.987C191.907 232.004 226.773 232.004 226.773 148.008C226.773 64.0123 191.907 64.0243 191.907 -19.9593C191.907 -103.943 226.773 -103.955 226.773 -187.939C226.773 -271.922 191.907 -271.934 191.907 -355.918" stroke="url(#paint14_linear_714_2435)" stroke-miterlimit="10"/>
<path d="M181.012 651.922C181.012 567.938 215.878 567.938 215.878 483.955C215.878 399.971 181.012 399.971 181.012 315.987C181.012 232.004 215.878 232.004 215.878 148.008C215.878 64.0123 181.012 64.0243 181.012 -19.9593C181.012 -103.943 215.878 -103.955 215.878 -187.939C215.878 -271.922 181.012 -271.934 181.012 -355.918" stroke="url(#paint15_linear_714_2435)" stroke-miterlimit="10"/>
<path d="M170.116 651.922C170.116 567.938 204.982 567.938 204.982 483.955C204.982 399.971 170.116 399.971 170.116 315.987C170.116 232.004 204.982 232.004 204.982 148.008C204.982 64.0123 170.116 64.0243 170.116 -19.9593C170.116 -103.943 204.982 -103.955 204.982 -187.939C204.982 -271.922 170.116 -271.934 170.116 -355.918" stroke="url(#paint16_linear_714_2435)" stroke-miterlimit="10"/>
<path d="M159.221 651.922C159.221 567.938 194.087 567.938 194.087 483.955C194.087 399.971 159.221 399.971 159.221 315.987C159.221 232.004 194.087 232.004 194.087 148.008C194.087 64.0123 159.221 64.0243 159.221 -19.9593C159.221 -103.943 194.087 -103.955 194.087 -187.939C194.087 -271.922 159.221 -271.934 159.221 -355.918" stroke="url(#paint17_linear_714_2435)" stroke-miterlimit="10"/>
<path d="M148.324 651.922C148.324 567.938 183.19 567.938 183.19 483.955C183.19 399.971 148.324 399.971 148.324 315.987C148.324 232.004 183.19 232.004 183.19 148.008C183.19 64.0123 148.324 64.0243 148.324 -19.9593C148.324 -103.943 183.19 -103.955 183.19 -187.939C183.19 -271.922 148.324 -271.934 148.324 -355.918" stroke="url(#paint18_linear_714_2435)" stroke-miterlimit="10"/>
<path d="M137.429 651.922C137.429 567.938 172.295 567.938 172.295 483.955C172.295 399.971 137.429 399.971 137.429 315.987C137.429 232.004 172.295 232.004 172.295 148.008C172.295 64.0123 137.429 64.0243 137.429 -19.9593C137.429 -103.943 172.295 -103.955 172.295 -187.939C172.295 -271.922 137.429 -271.934 137.429 -355.918" stroke="url(#paint19_linear_714_2435)" stroke-miterlimit="10"/>
<path d="M126.533 651.922C126.533 567.938 161.399 567.938 161.399 483.955C161.399 399.971 126.533 399.971 126.533 315.987C126.533 232.004 161.399 232.004 161.399 148.008C161.399 64.0123 126.533 64.0243 126.533 -19.9593C126.533 -103.943 161.399 -103.955 161.399 -187.939C161.399 -271.922 126.533 -271.934 126.533 -355.918" stroke="url(#paint20_linear_714_2435)" stroke-miterlimit="10"/>
<path d="M115.638 651.922C115.638 567.938 150.504 567.938 150.504 483.955C150.504 399.971 115.638 399.971 115.638 315.987C115.638 232.004 150.504 232.004 150.504 148.008C150.504 64.0123 115.638 64.0243 115.638 -19.9593C115.638 -103.943 150.504 -103.955 150.504 -187.939C150.504 -271.922 115.638 -271.934 115.638 -355.918" stroke="url(#paint21_linear_714_2435)" stroke-miterlimit="10"/>
<path d="M104.742 651.922C104.742 567.938 139.608 567.938 139.608 483.955C139.608 399.971 104.742 399.971 104.742 315.987C104.742 232.004 139.608 232.004 139.608 148.008C139.608 64.0123 104.742 64.0243 104.742 -19.9593C104.742 -103.943 139.608 -103.955 139.608 -187.939C139.608 -271.922 104.742 -271.934 104.742 -355.918" stroke="url(#paint22_linear_714_2435)" stroke-miterlimit="10"/>
<path d="M93.8467 651.922C93.8467 567.938 128.713 567.938 128.713 483.955C128.713 399.971 93.8467 399.971 93.8467 315.987C93.8467 232.004 128.713 232.004 128.713 148.008C128.713 64.0123 93.8467 64.0243 93.8467 -19.9593C93.8466 -103.943 128.713 -103.955 128.713 -187.939C128.713 -271.922 93.8466 -271.934 93.8466 -355.918" stroke="url(#paint23_linear_714_2435)" stroke-miterlimit="10"/>
<path d="M82.9512 651.922C82.9512 567.938 117.817 567.938 117.817 483.955C117.817 399.971 82.9512 399.971 82.9512 315.987C82.9512 232.004 117.817 232.004 117.817 148.008C117.817 64.0123 82.9511 64.0243 82.9511 -19.9593C82.9511 -103.943 117.817 -103.955 117.817 -187.939C117.817 -271.922 82.9511 -271.934 82.9511 -355.918" stroke="url(#paint24_linear_714_2435)" stroke-miterlimit="10"/>
<path d="M72.0547 651.922C72.0547 567.938 106.921 567.938 106.921 483.955C106.921 399.971 72.0547 399.971 72.0547 315.987C72.0547 232.004 106.921 232.004 106.921 148.008C106.921 64.0123 72.0547 64.0243 72.0547 -19.9593C72.0547 -103.943 106.921 -103.955 106.921 -187.939C106.921 -271.922 72.0546 -271.934 72.0546 -355.918" stroke="url(#paint25_linear_714_2435)" stroke-miterlimit="10"/>
<path d="M61.1602 651.922C61.1602 567.938 96.0261 567.938 96.0261 483.955C96.0261 399.971 61.1601 399.971 61.1601 315.987C61.1601 232.004 96.0261 232.004 96.0261 148.008C96.0261 64.0123 61.1601 64.0243 61.1601 -19.9593C61.1601 -103.943 96.0261 -103.955 96.0261 -187.939C96.0261 -271.922 61.1601 -271.934 61.1601 -355.918" stroke="url(#paint26_linear_714_2435)" stroke-miterlimit="10"/>
<path d="M50.2637 651.922C50.2637 567.938 85.1297 567.938 85.1297 483.955C85.1296 399.971 50.2637 399.971 50.2637 315.987C50.2637 232.004 85.1296 232.004 85.1296 148.008C85.1296 64.0123 50.2636 64.0243 50.2636 -19.9593C50.2636 -103.943 85.1296 -103.955 85.1296 -187.939C85.1296 -271.922 50.2636 -271.934 50.2636 -355.918" stroke="url(#paint27_linear_714_2435)" stroke-miterlimit="10"/>
<path d="M39.3682 651.922C39.3682 567.938 74.2342 567.938 74.2342 483.955C74.2342 399.971 39.3682 399.971 39.3681 315.987C39.3681 232.004 74.2342 232.004 74.2341 148.008C74.2341 64.0123 39.3681 64.0243 39.3681 -19.9593C39.3681 -103.943 74.2341 -103.955 74.2341 -187.939C74.2341 -271.922 39.3681 -271.934 39.3681 -355.918" stroke="url(#paint28_linear_714_2435)" stroke-miterlimit="10"/>
<path d="M28.4727 651.922C28.4727 567.938 63.3387 567.938 63.3387 483.955C63.3387 399.971 28.4726 399.971 28.4726 315.987C28.4726 232.004 63.3386 232.004 63.3386 148.008C63.3386 64.0123 28.4726 64.0243 28.4726 -19.9593C28.4726 -103.943 63.3386 -103.955 63.3386 -187.939C63.3386 -271.922 28.4726 -271.934 28.4726 -355.918" stroke="url(#paint29_linear_714_2435)" stroke-miterlimit="10"/>
<path d="M17.5771 651.922C17.5771 567.938 52.4431 567.938 52.4431 483.955C52.4431 399.971 17.5771 399.971 17.5771 315.987C17.5771 232.004 52.4431 232.004 52.4431 148.008C52.4431 64.0123 17.5771 64.0243 17.5771 -19.9593C17.5771 -103.943 52.4431 -103.955 52.4431 -187.939C52.4431 -271.922 17.5771 -271.934 17.5771 -355.918" stroke="url(#paint30_linear_714_2435)" stroke-miterlimit="10"/>
<path d="M6.68164 651.922C6.68164 567.938 41.5476 567.938 41.5476 483.955C41.5476 399.971 6.68163 399.971 6.68163 315.987C6.68162 232.004 41.5476 232.004 41.5476 148.008C41.5476 64.0123 6.68161 64.0243 6.68161 -19.9593C6.68161 -103.943 41.5476 -103.955 41.5476 -187.939C41.5476 -271.922 6.6816 -271.934 6.6816 -355.918" stroke="url(#paint31_linear_714_2435)" stroke-miterlimit="10"/>
<path d="M-4.21387 651.922C-4.21387 567.938 30.6521 567.938 30.6521 483.955C30.6521 399.971 -4.21388 399.971 -4.21388 315.987C-4.21389 232.004 30.6521 232.004 30.6521 148.008C30.6521 64.0123 -4.21389 64.0243 -4.2139 -19.9593C-4.2139 -103.943 30.6521 -103.955 30.6521 -187.939C30.6521 -271.922 -4.21391 -271.934 -4.21391 -355.918" stroke="url(#paint32_linear_714_2435)" stroke-miterlimit="10"/>
<path d="M-15.1094 651.922C-15.1094 567.938 19.7566 567.938 19.7566 483.955C19.7566 399.971 -15.1094 399.971 -15.1094 315.987C-15.1094 232.004 19.7566 232.004 19.7566 148.008C19.7566 64.0123 -15.1094 64.0243 -15.1094 -19.9593C-15.1094 -103.943 19.7566 -103.955 19.7566 -187.939C19.7566 -271.922 -15.1094 -271.934 -15.1094 -355.918" stroke="url(#paint33_linear_714_2435)" stroke-miterlimit="10"/>
<path d="M-26.0049 651.922C-26.0049 567.938 8.86112 567.938 8.86112 483.955C8.86111 399.971 -26.0049 399.971 -26.0049 315.987C-26.0049 232.004 8.8611 232.004 8.8611 148.008C8.8611 64.0123 -26.0049 64.0243 -26.0049 -19.9593C-26.0049 -103.943 8.86109 -103.955 8.86109 -187.939C8.86108 -271.922 -26.0049 -271.934 -26.0049 -355.918" stroke="url(#paint34_linear_714_2435)" stroke-miterlimit="10"/>
</g>
</g>
<defs>
<linearGradient id="paint0_linear_714_2435" x1="311.76" y1="148.002" x2="346.626" y2="148.002" gradientUnits="userSpaceOnUse">
<stop stop-color="#892FFF"/>
<stop offset="1" stop-color="#E2CCFF"/>
</linearGradient>
<linearGradient id="paint1_linear_714_2435" x1="300.864" y1="148.002" x2="335.73" y2="148.002" gradientUnits="userSpaceOnUse">
<stop stop-color="#9747FF"/>
<stop offset="1" stop-color="#231F20" stop-opacity="0"/>
</linearGradient>
<linearGradient id="paint2_linear_714_2435" x1="344.378" y1="148.002" x2="379.244" y2="148.002" gradientUnits="userSpaceOnUse">
<stop stop-color="#9747FF"/>
<stop offset="1" stop-color="#231F20" stop-opacity="0"/>
</linearGradient>
<linearGradient id="paint3_linear_714_2435" x1="289.969" y1="148.002" x2="324.835" y2="148.002" gradientUnits="userSpaceOnUse">
<stop stop-color="#892FFF"/>
<stop offset="1" stop-color="#E2CCFF"/>
</linearGradient>
<linearGradient id="paint4_linear_714_2435" x1="333.482" y1="148.002" x2="368.348" y2="148.002" gradientUnits="userSpaceOnUse">
<stop stop-color="#892FFF"/>
<stop offset="1" stop-color="#E2CCFF"/>
</linearGradient>
<linearGradient id="paint5_linear_714_2435" x1="279.073" y1="148.002" x2="313.939" y2="148.002" gradientUnits="userSpaceOnUse">
<stop stop-color="#9747FF"/>
<stop offset="1" stop-color="#231F20" stop-opacity="0"/>
</linearGradient>
<linearGradient id="paint6_linear_714_2435" x1="322.587" y1="148.002" x2="357.453" y2="148.002" gradientUnits="userSpaceOnUse">
<stop stop-color="#9747FF"/>
<stop offset="1" stop-color="#231F20" stop-opacity="0"/>
</linearGradient>
<linearGradient id="paint7_linear_714_2435" x1="268.177" y1="148.002" x2="303.043" y2="148.002" gradientUnits="userSpaceOnUse">
<stop stop-color="#892FFF"/>
<stop offset="1" stop-color="#E2CCFF"/>
</linearGradient>
<linearGradient id="paint8_linear_714_2435" x1="257.281" y1="148.002" x2="292.147" y2="148.002" gradientUnits="userSpaceOnUse">
<stop stop-color="#9747FF"/>
<stop offset="1" stop-color="#231F20" stop-opacity="0"/>
</linearGradient>
<linearGradient id="paint9_linear_714_2435" x1="246.386" y1="148.002" x2="281.252" y2="148.002" gradientUnits="userSpaceOnUse">
<stop stop-color="#892FFF"/>
<stop offset="1" stop-color="#E2CCFF"/>
</linearGradient>
<linearGradient id="paint10_linear_714_2435" x1="235.49" y1="148.002" x2="270.356" y2="148.002" gradientUnits="userSpaceOnUse">
<stop stop-color="#9747FF"/>
<stop offset="1" stop-color="#231F20" stop-opacity="0"/>
</linearGradient>
<linearGradient id="paint11_linear_714_2435" x1="224.594" y1="148.002" x2="259.46" y2="148.002" gradientUnits="userSpaceOnUse">
<stop stop-color="#892FFF"/>
<stop offset="1" stop-color="#E2CCFF"/>
</linearGradient>
<linearGradient id="paint12_linear_714_2435" x1="213.698" y1="148.002" x2="248.564" y2="148.002" gradientUnits="userSpaceOnUse">
<stop stop-color="#9747FF"/>
<stop offset="1" stop-color="#231F20" stop-opacity="0"/>
</linearGradient>
<linearGradient id="paint13_linear_714_2435" x1="202.803" y1="148.002" x2="237.669" y2="148.002" gradientUnits="userSpaceOnUse">
<stop stop-color="#892FFF"/>
<stop offset="1" stop-color="#E2CCFF"/>
</linearGradient>
<linearGradient id="paint14_linear_714_2435" x1="191.907" y1="148.002" x2="226.773" y2="148.002" gradientUnits="userSpaceOnUse">
<stop stop-color="#9747FF"/>
<stop offset="1" stop-color="#231F20" stop-opacity="0"/>
</linearGradient>
<linearGradient id="paint15_linear_714_2435" x1="181.012" y1="148.002" x2="215.878" y2="148.002" gradientUnits="userSpaceOnUse">
<stop stop-color="#892FFF"/>
<stop offset="1" stop-color="#E2CCFF"/>
</linearGradient>
<linearGradient id="paint16_linear_714_2435" x1="170.116" y1="148.002" x2="204.982" y2="148.002" gradientUnits="userSpaceOnUse">
<stop stop-color="#9747FF"/>
<stop offset="1" stop-color="#231F20" stop-opacity="0"/>
</linearGradient>
<linearGradient id="paint17_linear_714_2435" x1="159.221" y1="148.002" x2="194.087" y2="148.002" gradientUnits="userSpaceOnUse">
<stop stop-color="#892FFF"/>
<stop offset="1" stop-color="#E2CCFF"/>
</linearGradient>
<linearGradient id="paint18_linear_714_2435" x1="148.324" y1="148.002" x2="183.19" y2="148.002" gradientUnits="userSpaceOnUse">
<stop stop-color="#9747FF"/>
<stop offset="1" stop-color="#231F20" stop-opacity="0"/>
</linearGradient>
<linearGradient id="paint19_linear_714_2435" x1="137.429" y1="148.002" x2="172.295" y2="148.002" gradientUnits="userSpaceOnUse">
<stop stop-color="#892FFF"/>
<stop offset="1" stop-color="#E2CCFF"/>
</linearGradient>
<linearGradient id="paint20_linear_714_2435" x1="126.533" y1="148.002" x2="161.399" y2="148.002" gradientUnits="userSpaceOnUse">
<stop stop-color="#9747FF"/>
<stop offset="1" stop-color="#231F20" stop-opacity="0"/>
</linearGradient>
<linearGradient id="paint21_linear_714_2435" x1="115.638" y1="148.002" x2="150.504" y2="148.002" gradientUnits="userSpaceOnUse">
<stop stop-color="#892FFF"/>
<stop offset="1" stop-color="#E2CCFF"/>
</linearGradient>
<linearGradient id="paint22_linear_714_2435" x1="104.742" y1="148.002" x2="139.608" y2="148.002" gradientUnits="userSpaceOnUse">
<stop stop-color="#9747FF"/>
<stop offset="1" stop-color="#231F20" stop-opacity="0"/>
</linearGradient>
<linearGradient id="paint23_linear_714_2435" x1="93.8467" y1="148.002" x2="128.713" y2="148.002" gradientUnits="userSpaceOnUse">
<stop stop-color="#892FFF"/>
<stop offset="1" stop-color="#E2CCFF"/>
</linearGradient>
<linearGradient id="paint24_linear_714_2435" x1="82.9511" y1="148.002" x2="117.817" y2="148.002" gradientUnits="userSpaceOnUse">
<stop stop-color="#9747FF"/>
<stop offset="1" stop-color="#231F20" stop-opacity="0"/>
</linearGradient>
<linearGradient id="paint25_linear_714_2435" x1="72.0547" y1="148.002" x2="106.921" y2="148.002" gradientUnits="userSpaceOnUse">
<stop stop-color="#892FFF"/>
<stop offset="1" stop-color="#E2CCFF"/>
</linearGradient>
<linearGradient id="paint26_linear_714_2435" x1="61.1601" y1="148.002" x2="96.0261" y2="148.002" gradientUnits="userSpaceOnUse">
<stop stop-color="#9747FF"/>
<stop offset="1" stop-color="#231F20" stop-opacity="0"/>
</linearGradient>
<linearGradient id="paint27_linear_714_2435" x1="50.2636" y1="148.002" x2="85.1296" y2="148.002" gradientUnits="userSpaceOnUse">
<stop stop-color="#892FFF"/>
<stop offset="1" stop-color="#E2CCFF"/>
</linearGradient>
<linearGradient id="paint28_linear_714_2435" x1="39.3681" y1="148.002" x2="74.2341" y2="148.002" gradientUnits="userSpaceOnUse">
<stop stop-color="#9747FF"/>
<stop offset="1" stop-color="#231F20" stop-opacity="0"/>
</linearGradient>
<linearGradient id="paint29_linear_714_2435" x1="28.4726" y1="148.002" x2="63.3386" y2="148.002" gradientUnits="userSpaceOnUse">
<stop stop-color="#892FFF"/>
<stop offset="1" stop-color="#E2CCFF"/>
</linearGradient>
<linearGradient id="paint30_linear_714_2435" x1="17.5771" y1="148.002" x2="52.4431" y2="148.002" gradientUnits="userSpaceOnUse">
<stop stop-color="#9747FF"/>
<stop offset="1" stop-color="#231F20" stop-opacity="0"/>
</linearGradient>
<linearGradient id="paint31_linear_714_2435" x1="6.68162" y1="148.002" x2="41.5476" y2="148.002" gradientUnits="userSpaceOnUse">
<stop stop-color="#892FFF"/>
<stop offset="1" stop-color="#E2CCFF"/>
</linearGradient>
<linearGradient id="paint32_linear_714_2435" x1="-4.21389" y1="148.002" x2="30.6521" y2="148.002" gradientUnits="userSpaceOnUse">
<stop stop-color="#9747FF"/>
<stop offset="1" stop-color="#231F20" stop-opacity="0"/>
</linearGradient>
<linearGradient id="paint33_linear_714_2435" x1="-15.1094" y1="148.002" x2="19.7566" y2="148.002" gradientUnits="userSpaceOnUse">
<stop stop-color="#892FFF"/>
<stop offset="1" stop-color="#E2CCFF"/>
</linearGradient>
<linearGradient id="paint34_linear_714_2435" x1="-26.0049" y1="148.002" x2="8.8611" y2="148.002" gradientUnits="userSpaceOnUse">
<stop stop-color="#9747FF"/>
<stop offset="1" stop-color="#231F20" stop-opacity="0"/>
</linearGradient>
<clipPath id="clip0_714_2435">
<rect width="352" height="96" fill="white"/>
</clipPath>
<clipPath id="clip1_714_2435">
<rect width="98" height="359" fill="white" transform="translate(-3 97) rotate(-90)"/>
</clipPath>
</defs>
</svg>
