<svg fill="none" height="444" viewBox="0 0 411 444" width="411" xmlns="http://www.w3.org/2000/svg" xmlns:xlink="http://www.w3.org/1999/xlink"><linearGradient id="a"><stop offset="0" stop-color="#9747ff"/><stop offset="1" stop-color="#231f20" stop-opacity="0"/></linearGradient><linearGradient id="b" gradientUnits="userSpaceOnUse" x1="164.223" x2="154.748" xlink:href="#a" y1="479.077" y2="509.515"/><linearGradient id="c" gradientUnits="userSpaceOnUse" x1="167.184" x2="157.709" xlink:href="#a" y1="469.566" y2="500.003"/><linearGradient id="d" gradientUnits="userSpaceOnUse" x1="170.145" x2="160.67" xlink:href="#a" y1="460.054" y2="490.492"/><linearGradient id="e" gradientUnits="userSpaceOnUse" x1="173.107" x2="163.631" xlink:href="#a" y1="450.543" y2="480.98"/><linearGradient id="f"><stop offset="0" stop-color="#892fff"/><stop offset="1" stop-color="#e2ccff"/></linearGradient><linearGradient id="g" gradientUnits="userSpaceOnUse" x1="176.068" x2="166.592" xlink:href="#f" y1="441.031" y2="471.468"/><linearGradient id="h" gradientUnits="userSpaceOnUse" x1="179.029" x2="169.553" xlink:href="#a" y1="431.52" y2="461.957"/><linearGradient id="i" gradientUnits="userSpaceOnUse" x1="181.99" x2="172.514" xlink:href="#f" y1="422.008" y2="452.445"/><linearGradient id="j" gradientUnits="userSpaceOnUse" x1="184.951" x2="175.476" xlink:href="#a" y1="412.496" y2="442.933"/><linearGradient id="k" gradientUnits="userSpaceOnUse" x1="187.912" x2="178.437" xlink:href="#f" y1="402.984" y2="433.422"/><linearGradient id="l" gradientUnits="userSpaceOnUse" x1="190.873" x2="181.398" xlink:href="#a" y1="393.473" y2="423.91"/><linearGradient id="m" gradientUnits="userSpaceOnUse" x1="193.835" x2="184.359" xlink:href="#f" y1="383.961" y2="414.399"/><linearGradient id="n" gradientUnits="userSpaceOnUse" x1="196.796" x2="187.32" xlink:href="#a" y1="374.45" y2="404.887"/><linearGradient id="o" gradientUnits="userSpaceOnUse" x1="199.757" x2="190.281" xlink:href="#f" y1="364.938" y2="395.375"/><linearGradient id="p" gradientUnits="userSpaceOnUse" x1="202.718" x2="193.242" xlink:href="#a" y1="355.427" y2="385.864"/><linearGradient id="q" gradientUnits="userSpaceOnUse" x1="205.679" x2="196.203" xlink:href="#f" y1="345.915" y2="376.352"/><linearGradient id="r" gradientUnits="userSpaceOnUse" x1="208.64" x2="199.165" xlink:href="#a" y1="336.403" y2="366.84"/><linearGradient id="s" gradientUnits="userSpaceOnUse" x1="211.601" x2="202.126" xlink:href="#f" y1="326.891" y2="357.329"/><linearGradient id="t" gradientUnits="userSpaceOnUse" x1="214.563" x2="205.087" xlink:href="#a" y1="317.38" y2="347.817"/><linearGradient id="u" gradientUnits="userSpaceOnUse" x1="217.524" x2="208.048" xlink:href="#f" y1="307.868" y2="338.305"/><linearGradient id="v" gradientUnits="userSpaceOnUse" x1="220.485" x2="211.009" xlink:href="#a" y1="298.357" y2="328.794"/><linearGradient id="w" gradientUnits="userSpaceOnUse" x1="223.446" x2="213.97" xlink:href="#f" y1="288.845" y2="319.282"/><linearGradient id="x" gradientUnits="userSpaceOnUse" x1="226.407" x2="216.931" xlink:href="#a" y1="279.333" y2="309.771"/><linearGradient id="y" gradientUnits="userSpaceOnUse" x1="229.368" x2="219.893" xlink:href="#f" y1="269.822" y2="300.259"/><linearGradient id="z" gradientUnits="userSpaceOnUse" x1="232.329" x2="222.854" xlink:href="#a" y1="260.31" y2="290.747"/><linearGradient id="A" gradientUnits="userSpaceOnUse" x1="235.291" x2="225.815" xlink:href="#f" y1="250.798" y2="281.236"/><linearGradient id="B" gradientUnits="userSpaceOnUse" x1="238.252" x2="228.776" xlink:href="#a" y1="241.287" y2="271.724"/><linearGradient id="C" gradientUnits="userSpaceOnUse" x1="241.213" x2="231.737" xlink:href="#f" y1="231.775" y2="262.213"/><linearGradient id="D" gradientUnits="userSpaceOnUse" x1="244.174" x2="234.698" xlink:href="#a" y1="222.264" y2="252.701"/><linearGradient id="E" gradientUnits="userSpaceOnUse" x1="247.135" x2="237.659" xlink:href="#f" y1="212.752" y2="243.189"/><linearGradient id="F" gradientUnits="userSpaceOnUse" x1="250.096" x2="240.621" xlink:href="#a" y1="203.24" y2="233.678"/><linearGradient id="G" gradientUnits="userSpaceOnUse" x1="253.057" x2="243.582" xlink:href="#f" y1="193.729" y2="224.166"/><linearGradient id="H" gradientUnits="userSpaceOnUse" x1="256.019" x2="246.543" xlink:href="#a" y1="184.217" y2="214.654"/><linearGradient id="I" gradientUnits="userSpaceOnUse" x1="258.98" x2="249.504" xlink:href="#f" y1="174.705" y2="205.143"/><linearGradient id="J" gradientUnits="userSpaceOnUse" x1="261.941" x2="252.465" xlink:href="#a" y1="165.194" y2="195.631"/><linearGradient id="K" gradientUnits="userSpaceOnUse" x1="264.902" x2="255.426" xlink:href="#f" y1="155.682" y2="186.12"/><linearGradient id="L" gradientUnits="userSpaceOnUse" x1="267.863" x2="258.387" xlink:href="#a" y1="146.171" y2="176.608"/><linearGradient id="M" gradientUnits="userSpaceOnUse" x1="270.824" x2="261.349" xlink:href="#f" y1="136.659" y2="167.096"/><linearGradient id="N" gradientUnits="userSpaceOnUse" x1="273.785" x2="264.31" xlink:href="#a" y1="127.147" y2="157.585"/><linearGradient id="O" gradientUnits="userSpaceOnUse" x1="276.747" x2="267.271" xlink:href="#f" y1="117.636" y2="148.073"/><linearGradient id="P" gradientUnits="userSpaceOnUse" x1="279.708" x2="270.232" xlink:href="#a" y1="108.124" y2="138.561"/><linearGradient id="Q" gradientUnits="userSpaceOnUse" x1="282.669" x2="273.193" xlink:href="#f" y1="98.6126" y2="129.05"/><linearGradient id="R" gradientUnits="userSpaceOnUse" x1="285.63" x2="276.155" xlink:href="#a" y1="89.1008" y2="119.538"/><linearGradient id="S" gradientUnits="userSpaceOnUse" x1="288.591" x2="279.115" xlink:href="#f" y1="79.5893" y2="110.027"/><linearGradient id="T" gradientUnits="userSpaceOnUse" x1="291.553" x2="282.077" xlink:href="#a" y1="70.0776" y2="100.515"/><linearGradient id="U" gradientUnits="userSpaceOnUse" x1="294.513" x2="285.038" xlink:href="#f" y1="60.5659" y2="91.0031"/><linearGradient id="V" gradientUnits="userSpaceOnUse" x1="297.474" x2="287.999" xlink:href="#a" y1="51.0543" y2="81.4916"/><linearGradient id="W" gradientUnits="userSpaceOnUse" x1="300.436" x2="290.96" xlink:href="#f" y1="41.5428" y2="71.98"/><linearGradient id="X" gradientUnits="userSpaceOnUse" x1="303.397" x2="293.921" xlink:href="#a" y1="32.0311" y2="62.4683"/><linearGradient id="Y" gradientUnits="userSpaceOnUse" x1="306.358" x2="296.883" xlink:href="#f" y1="22.5195" y2="52.9568"/><linearGradient id="Z" gradientUnits="userSpaceOnUse" x1="309.324" x2="299.849" xlink:href="#a" y1="13.0095" y2="43.4467"/><linearGradient id="aa" gradientUnits="userSpaceOnUse" x1="312.286" x2="302.81" xlink:href="#f" y1="3.49777" y2="33.935"/><linearGradient id="ab" gradientUnits="userSpaceOnUse" x1="437.221" x2="467.658" xlink:href="#a" y1="260.619" y2="270.095"/><linearGradient id="ac" gradientUnits="userSpaceOnUse" x1="427.71" x2="458.147" xlink:href="#a" y1="257.659" y2="267.134"/><linearGradient id="ad" gradientUnits="userSpaceOnUse" x1="418.198" x2="448.635" xlink:href="#a" y1="254.697" y2="264.173"/><linearGradient id="ae" gradientUnits="userSpaceOnUse" x1="408.686" x2="439.123" xlink:href="#a" y1="251.736" y2="261.212"/><linearGradient id="af" gradientUnits="userSpaceOnUse" x1="399.174" x2="429.612" xlink:href="#f" y1="248.775" y2="258.251"/><linearGradient id="ag" gradientUnits="userSpaceOnUse" x1="389.663" x2="420.1" xlink:href="#a" y1="245.814" y2="255.29"/><linearGradient id="ah" gradientUnits="userSpaceOnUse" x1="380.151" x2="410.588" xlink:href="#f" y1="242.853" y2="252.328"/><linearGradient id="ai" gradientUnits="userSpaceOnUse" x1="370.639" x2="401.077" xlink:href="#a" y1="239.892" y2="249.367"/><linearGradient id="aj" gradientUnits="userSpaceOnUse" x1="361.128" x2="391.565" xlink:href="#f" y1="236.93" y2="246.406"/><linearGradient id="ak" gradientUnits="userSpaceOnUse" x1="351.616" x2="382.054" xlink:href="#a" y1="233.969" y2="243.445"/><linearGradient id="al" gradientUnits="userSpaceOnUse" x1="342.105" x2="372.542" xlink:href="#f" y1="231.008" y2="240.484"/><linearGradient id="am" gradientUnits="userSpaceOnUse" x1="332.593" x2="363.03" xlink:href="#a" y1="228.047" y2="237.523"/><linearGradient id="an" gradientUnits="userSpaceOnUse" x1="323.082" x2="353.519" xlink:href="#f" y1="225.086" y2="234.562"/><linearGradient id="ao" gradientUnits="userSpaceOnUse" x1="313.57" x2="344.007" xlink:href="#a" y1="222.125" y2="231.6"/><linearGradient id="ap" gradientUnits="userSpaceOnUse" x1="304.058" x2="334.495" xlink:href="#f" y1="219.164" y2="228.639"/><linearGradient id="aq" gradientUnits="userSpaceOnUse" x1="294.547" x2="324.984" xlink:href="#a" y1="216.203" y2="225.678"/><linearGradient id="ar" gradientUnits="userSpaceOnUse" x1="285.035" x2="315.472" xlink:href="#f" y1="213.241" y2="222.717"/><linearGradient id="as" gradientUnits="userSpaceOnUse" x1="275.524" x2="305.961" xlink:href="#a" y1="210.28" y2="219.756"/><linearGradient id="at" gradientUnits="userSpaceOnUse" x1="266.012" x2="296.449" xlink:href="#f" y1="207.319" y2="216.795"/><linearGradient id="au" gradientUnits="userSpaceOnUse" x1="256.5" x2="286.937" xlink:href="#a" y1="204.358" y2="213.834"/><linearGradient id="av" gradientUnits="userSpaceOnUse" x1="246.988" x2="277.426" xlink:href="#f" y1="201.397" y2="210.873"/><linearGradient id="aw" gradientUnits="userSpaceOnUse" x1="237.477" x2="267.914" xlink:href="#a" y1="198.436" y2="207.911"/><linearGradient id="ax" gradientUnits="userSpaceOnUse" x1="227.965" x2="258.402" xlink:href="#f" y1="195.474" y2="204.95"/><linearGradient id="ay" gradientUnits="userSpaceOnUse" x1="218.453" x2="248.891" xlink:href="#a" y1="192.513" y2="201.989"/><linearGradient id="az" gradientUnits="userSpaceOnUse" x1="208.942" x2="239.379" xlink:href="#f" y1="189.552" y2="199.028"/><linearGradient id="aA" gradientUnits="userSpaceOnUse" x1="199.43" x2="229.868" xlink:href="#a" y1="186.591" y2="196.067"/><linearGradient id="aB" gradientUnits="userSpaceOnUse" x1="189.919" x2="220.356" xlink:href="#f" y1="183.63" y2="193.106"/><linearGradient id="aC" gradientUnits="userSpaceOnUse" x1="180.407" x2="210.844" xlink:href="#a" y1="180.669" y2="190.144"/><linearGradient id="aD" gradientUnits="userSpaceOnUse" x1="170.896" x2="201.333" xlink:href="#f" y1="177.708" y2="187.183"/><linearGradient id="aE" gradientUnits="userSpaceOnUse" x1="161.384" x2="191.821" xlink:href="#a" y1="174.746" y2="184.222"/><linearGradient id="aF" gradientUnits="userSpaceOnUse" x1="151.872" x2="182.309" xlink:href="#f" y1="171.785" y2="181.261"/><linearGradient id="aG" gradientUnits="userSpaceOnUse" x1="142.361" x2="172.798" xlink:href="#a" y1="168.824" y2="178.3"/><linearGradient id="aH" gradientUnits="userSpaceOnUse" x1="132.849" x2="163.286" xlink:href="#f" y1="165.863" y2="175.339"/><linearGradient id="aI" gradientUnits="userSpaceOnUse" x1="123.337" x2="153.774" xlink:href="#a" y1="162.902" y2="172.378"/><linearGradient id="aJ" gradientUnits="userSpaceOnUse" x1="113.826" x2="144.263" xlink:href="#f" y1="159.941" y2="169.416"/><linearGradient id="aK" gradientUnits="userSpaceOnUse" x1="104.314" x2="134.751" xlink:href="#a" y1="156.98" y2="166.455"/><linearGradient id="aL" gradientUnits="userSpaceOnUse" x1="94.8024" x2="125.24" xlink:href="#f" y1="154.019" y2="163.494"/><linearGradient id="aM" gradientUnits="userSpaceOnUse" x1="85.2907" x2="115.728" xlink:href="#a" y1="151.057" y2="160.533"/><linearGradient id="aN" gradientUnits="userSpaceOnUse" x1="75.779" x2="106.216" xlink:href="#f" y1="148.096" y2="157.572"/><linearGradient id="aO" gradientUnits="userSpaceOnUse" x1="66.2678" x2="96.705" xlink:href="#a" y1="145.135" y2="154.611"/><linearGradient id="aP" gradientUnits="userSpaceOnUse" x1="56.756" x2="87.1933" xlink:href="#f" y1="142.174" y2="151.65"/><linearGradient id="aQ" gradientUnits="userSpaceOnUse" x1="47.2443" x2="77.6815" xlink:href="#a" y1="139.213" y2="148.688"/><linearGradient id="aR" gradientUnits="userSpaceOnUse" x1="37.7326" x2="68.1698" xlink:href="#f" y1="136.252" y2="145.727"/><linearGradient id="aS" gradientUnits="userSpaceOnUse" x1="28.2209" x2="58.6581" xlink:href="#a" y1="133.29" y2="142.766"/><linearGradient id="aT" gradientUnits="userSpaceOnUse" x1="18.7092" x2="49.1464" xlink:href="#f" y1="130.329" y2="139.805"/><linearGradient id="aU" gradientUnits="userSpaceOnUse" x1="9.19794" x2="39.6351" xlink:href="#a" y1="127.368" y2="136.844"/><linearGradient id="aV" gradientUnits="userSpaceOnUse" x1="-.313782" x2="30.1234" xlink:href="#f" y1="124.407" y2="133.883"/><linearGradient id="aW" gradientUnits="userSpaceOnUse" x1="-9.8255" x2="20.6117" xlink:href="#a" y1="121.446" y2="130.922"/><linearGradient id="aX" gradientUnits="userSpaceOnUse" x1="-19.3372" x2="11.1" xlink:href="#f" y1="118.485" y2="127.96"/><linearGradient id="aY" gradientUnits="userSpaceOnUse" x1="-28.8468" x2="1.5904" xlink:href="#a" y1="115.518" y2="124.994"/><linearGradient id="aZ" gradientUnits="userSpaceOnUse" x1="-38.359" x2="-7.9218" xlink:href="#f" y1="112.557" y2="122.033"/><clipPath id="a0"><path d="m0 0h340v300.714h-340z" transform="matrix(.95480076 .29724656 -.29724656 .95480076 99.2266 41.9137)"/></clipPath><clipPath id="a1"><path d="m0 0h340v300.714h-340z" transform="matrix(.29724656 -.95480076 .95480076 .29724656 .057129 325.616)"/></clipPath><mask id="a2" height="390" maskUnits="userSpaceOnUse" width="415" x="9" y="41"><g clip-path="url(#a0)" fill="none" opacity=".2"><path d="m-275.42 342.209c73.271 22.81 63.796 53.247 137.067 76.058 73.2712 22.811 82.7468-7.626 156.0181 15.184 73.2712 22.811 63.7956 53.248 137.0769 76.062 73.282 22.814 82.747-7.627 156.019 15.184 73.271 22.811 63.806 53.251 137.077 76.062s82.757-7.623 156.029 15.187" stroke="url(#b)" stroke-miterlimit="10" stroke-width=".714286"/><path d="m-272.459 332.697c73.271 22.811 63.796 53.248 137.067 76.059 73.2711 22.81 82.7468-7.627 156.018 15.184 73.2713 22.81 63.7956 53.248 137.077 76.062 73.282 22.814 82.747-7.627 156.019 15.184 73.271 22.81 63.806 53.251 137.077 76.061 73.271 22.811 82.757-7.623 156.029 15.188" stroke="url(#c)" stroke-miterlimit="10" stroke-width=".714286"/><path d="m-269.498 323.185c73.271 22.811 63.796 53.248 137.067 76.059s82.7467-7.627 156.0179 15.184c73.2713 22.811 63.7956 53.248 137.0771 76.062 73.282 22.814 82.747-7.627 156.019 15.184 73.271 22.811 63.806 53.251 137.077 76.062 73.271 22.81 82.757-7.624 156.029 15.187" stroke="url(#d)" stroke-miterlimit="10" stroke-width=".714286"/><path d="m-266.537 313.674c73.272 22.81 63.796 53.248 137.067 76.058 73.2715 22.811 82.7471-7.626 156.0184 15.184 73.2712 22.811 63.7956 53.248 137.0776 76.062s82.747-7.626 156.018 15.184c73.271 22.811 63.806 53.251 137.077 76.062 73.272 22.811 82.758-7.623 156.029 15.187" stroke="url(#e)" stroke-miterlimit="10" stroke-width=".714286"/><path d="m-263.576 304.162c73.272 22.811 63.796 53.248 137.067 76.059 73.2714 22.811 82.7471-7.627 156.0183 15.184 73.2717 22.811 63.7956 53.248 137.0777 76.062 73.282 22.814 82.747-7.627 156.018 15.184s63.806 53.251 137.077 76.062c73.272 22.81 82.758-7.624 156.029 15.187" stroke="url(#g)" stroke-miterlimit="10" stroke-width=".714286"/><path d="m-260.614 294.651c73.271 22.81 63.795 53.248 137.067 76.058 73.2708 22.811 82.7465-7.626 156.0177 15.184 73.2713 22.811 63.7956 53.248 137.0773 76.062 73.282 22.814 82.747-7.626 156.018 15.184 73.272 22.811 63.806 53.251 137.078 76.062 73.271 22.811 82.757-7.623 156.028 15.187" stroke="url(#h)" stroke-miterlimit="10" stroke-width=".714286"/><path d="m-257.653 285.139c73.271 22.811 63.795 53.248 137.067 76.058 73.2708 22.811 82.7464-7.626 156.0177 15.185 73.2713 22.81 63.7956 53.247 137.0773 76.061 73.282 22.814 82.747-7.626 156.018 15.184 73.271 22.811 63.806 53.252 137.078 76.062 73.271 22.811 82.757-7.623 156.028 15.188" stroke="url(#i)" stroke-miterlimit="10" stroke-width=".714286"/><path d="m-254.692 275.627c73.271 22.811 63.796 53.248 137.067 76.059 73.2712 22.81 82.7468-7.627 156.0181 15.184 73.2709 22.811 63.7959 53.248 137.0769 76.062 73.282 22.814 82.747-7.627 156.019 15.184 73.271 22.81 63.806 53.251 137.077 76.062 73.271 22.81 82.757-7.624 156.029 15.187" stroke="url(#j)" stroke-miterlimit="10" stroke-width=".714286"/><path d="m-251.731 266.116c73.271 22.81 63.796 53.247 137.067 76.058 73.2711 22.811 82.7468-7.627 156.018 15.184 73.271 22.811 63.796 53.248 137.077 76.062 73.282 22.814 82.747-7.627 156.019 15.184 73.271 22.811 63.806 53.251 137.077 76.062 73.271 22.81 82.757-7.623 156.029 15.187" stroke="url(#k)" stroke-miterlimit="10" stroke-width=".714286"/><path d="m-248.77 256.604c73.271 22.811 63.796 53.248 137.067 76.059 73.2711 22.81 82.7467-7.627 156.018 15.184 73.271 22.81 63.796 53.248 137.077 76.062 73.282 22.814 82.747-7.627 156.019 15.184 73.271 22.81 63.806 53.251 137.077 76.061 73.271 22.811 82.757-7.623 156.029 15.188" stroke="url(#l)" stroke-miterlimit="10" stroke-width=".714286"/><path d="m-245.809 247.092c73.272 22.811 63.796 53.248 137.067 76.059 73.2715 22.811 82.7471-7.627 156.0184 15.184 73.2716 22.811 63.7956 53.248 137.0776 76.062s82.747-7.627 156.018 15.184 63.806 53.251 137.077 76.062c73.272 22.81 82.758-7.623 156.029 15.187" stroke="url(#m)" stroke-miterlimit="10" stroke-width=".714286"/><path d="m-242.848 237.581c73.272 22.81 63.796 53.248 137.067 76.058 73.2714 22.811 82.7471-7.626 156.0183 15.184 73.2717 22.811 63.7957 53.248 137.0777 76.062s82.747-7.626 156.018 15.184c73.271 22.811 63.806 53.251 137.077 76.062 73.272 22.811 82.758-7.623 156.029 15.187" stroke="url(#n)" stroke-miterlimit="10" stroke-width=".714286"/><path d="m-239.887 228.069c73.272 22.811 63.796 53.248 137.067 76.059 73.2714 22.811 82.747-7.627 156.0183 15.184 73.2717 22.811 63.7957 53.248 137.0777 76.062 73.281 22.814 82.747-7.627 156.018 15.184s63.806 53.251 137.077 76.062c73.271 22.81 82.758-7.624 156.029 15.187" stroke="url(#o)" stroke-miterlimit="10" stroke-width=".714286"/><path d="m-236.925 218.558c73.271 22.81 63.795 53.248 137.0666 76.058 73.2712 22.811 82.7468-7.626 156.0181 15.184 73.2713 22.811 63.7953 53.248 137.0773 76.062s82.747-7.626 156.018 15.184c73.272 22.811 63.806 53.251 137.078 76.062 73.271 22.811 82.757-7.623 156.028 15.187" stroke="url(#p)" stroke-miterlimit="10" stroke-width=".714286"/><path d="m-233.964 209.046c73.271 22.811 63.795 53.248 137.0665 76.058 73.2712 22.811 82.7469-7.626 156.0181 15.185 73.2714 22.81 63.7954 53.247 137.0774 76.061s82.747-7.626 156.018 15.184c73.271 22.811 63.806 53.252 137.078 76.062 73.271 22.811 82.757-7.623 156.028 15.188" stroke="url(#q)" stroke-miterlimit="10" stroke-width=".714286"/><path d="m-231.003 199.534c73.271 22.811 63.796 53.248 137.0669 76.059 73.2713 22.81 82.7469-7.627 156.0182 15.184 73.2709 22.811 63.7959 53.248 137.0769 76.062 73.282 22.814 82.747-7.627 156.019 15.184 73.271 22.81 63.806 53.251 137.077 76.062 73.271 22.81 82.757-7.624 156.029 15.187" stroke="url(#r)" stroke-miterlimit="10" stroke-width=".714286"/><path d="m-228.042 190.023c73.271 22.81 63.796 53.247 137.0669 76.058 73.2712 22.811 82.74685-7.626 156.0181 15.184 73.271 22.811 63.796 53.248 137.077 76.062 73.282 22.814 82.747-7.627 156.019 15.184 73.271 22.811 63.806 53.251 137.077 76.062s82.757-7.623 156.029 15.187" stroke="url(#s)" stroke-miterlimit="10" stroke-width=".714286"/><path d="m-225.081 180.511c73.272 22.811 63.796 53.248 137.0673 76.059 73.2712 22.81 82.74687-7.627 156.0181 15.184 73.2716 22.81 63.7956 53.248 137.0776 76.062 73.282 22.813 82.747-7.627 156.018 15.184 73.271 22.81 63.806 53.251 137.077 76.061 73.272 22.811 82.758-7.623 156.029 15.188" stroke="url(#t)" stroke-miterlimit="10" stroke-width=".714286"/><path d="m-222.12 170.999c73.272 22.811 63.796 53.248 137.0672 76.059 73.2713 22.811 82.74691-7.627 156.0182 15.184 73.2716 22.811 63.7956 53.248 137.0776 76.062s82.747-7.627 156.018 15.184 63.806 53.251 137.077 76.062c73.272 22.81 82.758-7.624 156.029 15.187" stroke="url(#u)" stroke-miterlimit="10" stroke-width=".714286"/><path d="m-219.159 161.488c73.272 22.81 63.796 53.248 137.0672 76.058 73.2712 22.811 82.74685-7.626 156.0181 15.184 73.2717 22.811 63.7957 53.248 137.0777 76.062s82.747-7.626 156.018 15.184c73.271 22.811 63.806 53.251 137.077 76.062 73.272 22.811 82.758-7.623 156.029 15.187" stroke="url(#v)" stroke-miterlimit="10" stroke-width=".714286"/><path d="m-216.197 151.976c73.271 22.811 63.795 53.248 137.0666 76.059 73.27123 22.81 82.74688-7.627 156.0181 15.184 73.2713 22.81 63.7953 53.247 137.0773 76.061s82.747-7.626 156.018 15.185c73.272 22.81 63.806 53.251 137.078 76.061 73.271 22.811 82.757-7.623 156.028 15.188" stroke="url(#w)" stroke-miterlimit="10" stroke-width=".714286"/><path d="m-213.236 142.464c73.271 22.811 63.795 53.248 137.0665 76.059 73.27127 22.811 82.74691-7.627 156.0182 15.184 73.2713 22.811 63.7953 53.248 137.0773 76.062s82.747-7.627 156.018 15.184 63.806 53.251 137.078 76.062c73.271 22.81 82.757-7.623 156.028 15.187" stroke="url(#x)" stroke-miterlimit="10" stroke-width=".714286"/><path d="m-210.275 132.953c73.271 22.811 63.796 53.248 137.0669 76.058 73.2712938 22.811 82.74694-7.626 156.0182 15.185 73.2709 22.81 63.7959 53.247 137.0769 76.061 73.282 22.814 82.747-7.626 156.019 15.184 73.271 22.811 63.806 53.252 137.077 76.062 73.271 22.811 82.757-7.623 156.029 15.188" stroke="url(#y)" stroke-miterlimit="10" stroke-width=".714286"/><path d="m-207.314 123.441c73.271 22.811 63.796 53.248 137.0669 76.059 73.27123 22.81 82.7469-7.627 156.0181 15.184 73.271 22.81 63.796 53.248 137.077 76.062 73.282 22.814 82.747-7.627 156.019 15.184 73.271 22.81 63.806 53.251 137.077 76.062 73.271 22.81 82.757-7.624 156.029 15.187" stroke="url(#z)" stroke-miterlimit="10" stroke-width=".714286"/><path d="m-204.353 113.93c73.272 22.81 63.796 53.247 137.0673 76.058 73.27126 22.811 82.7469-7.626 156.0181 15.184 73.2716 22.811 63.7956 53.248 137.0776 76.062s82.747-7.627 156.018 15.184 63.806 53.251 137.077 76.062c73.272 22.81 82.758-7.623 156.029 15.187" stroke="url(#A)" stroke-miterlimit="10" stroke-width=".714286"/><path d="m-201.392 104.418c73.272 22.811 63.796 53.248 137.0672 76.059 73.27129 22.81 82.7469-7.627 156.0182 15.184 73.2716 22.81 63.7956 53.247 137.0776 76.061s82.747-7.626 156.018 15.185c73.271 22.81 63.806 53.251 137.077 76.061 73.272 22.811 82.758-7.623 156.029 15.188" stroke="url(#B)" stroke-miterlimit="10" stroke-width=".714286"/><path d="m-198.431 94.9065c73.272 22.8105 63.796 53.2475 137.0672 76.0585s82.7469-7.627 156.0181 15.184c73.2717 22.811 63.7957 53.248 137.0777 76.062s82.747-7.627 156.018 15.184 63.806 53.251 137.077 76.062c73.272 22.81 82.758-7.624 156.029 15.187" stroke="url(#C)" stroke-miterlimit="10" stroke-width=".714286"/><path d="m-195.469 85.3948c73.271 22.8102 63.795 53.2482 137.0666 76.0582 73.2713 22.811 82.7469-7.626 156.0182 15.184 73.2712 22.811 63.7952 53.248 137.0772 76.062s82.747-7.626 156.018 15.184c73.272 22.811 63.806 53.251 137.078 76.062 73.271 22.811 82.757-7.623 156.028 15.187" stroke="url(#D)" stroke-miterlimit="10" stroke-width=".714286"/><path d="m-192.508 75.8832c73.271 22.8107 63.795 53.2478 137.0665 76.0588 73.2713 22.81 82.7469-7.627 156.0185 15.184 73.271 22.811 63.795 53.248 137.077 76.062s82.747-7.627 156.018 15.184c73.272 22.81 63.806 53.251 137.078 76.062 73.271 22.81 82.757-7.624 156.028 15.187" stroke="url(#E)" stroke-miterlimit="10" stroke-width=".714286"/><path d="m-189.547 66.3715c73.271 22.8107 63.796 53.2475 137.067 76.0585 73.2712 22.811 82.7469-7.627 156.018 15.184 73.271 22.811 63.796 53.248 137.078 76.062 73.281 22.814 82.746-7.627 156.018 15.184 73.271 22.811 63.806 53.251 137.077 76.062 73.271 22.81 82.758-7.623 156.029 15.187" stroke="url(#F)" stroke-miterlimit="10" stroke-width=".714286"/><path d="m-186.586 56.86c73.271 22.8106 63.796 53.248 137.0669 76.058 73.2713 22.811 82.7469-7.626 156.0181 15.185 73.271 22.81 63.796 53.247 137.077 76.061 73.282 22.814 82.747-7.626 156.019 15.184 73.271 22.811 63.806 53.252 137.077 76.062 73.271 22.811 82.757-7.623 156.029 15.188" stroke="url(#G)" stroke-miterlimit="10" stroke-width=".714286"/><path d="m-183.625 47.3483c73.272 22.8106 63.796 53.2477 137.0673 76.0587 73.2713 22.81 82.7469-7.627 156.0177 15.184 73.272 22.811 63.796 53.248 137.078 76.062s82.747-7.627 156.018 15.184c73.271 22.81 63.806 53.251 137.077 76.062 73.272 22.81 82.758-7.624 156.029 15.187" stroke="url(#H)" stroke-miterlimit="10" stroke-width=".714286"/><path d="m-180.664 37.8365c73.272 22.8107 63.796 53.2479 137.0673 76.0585 73.2712 22.811 82.7469-7.626 156.0177 15.184 73.272 22.811 63.796 53.248 137.078 76.062s82.747-7.627 156.018 15.184 63.806 53.251 137.077 76.062c73.272 22.811 82.758-7.623 156.029 15.187" stroke="url(#I)" stroke-miterlimit="10" stroke-width=".714286"/><path d="m-177.703 28.325c73.272 22.8106 63.796 53.2479 137.0672 76.059 73.2713 22.81 82.7469-7.627 156.0178 15.184 73.272 22.81 63.796 53.247 137.078 76.061s82.747-7.626 156.018 15.185c73.271 22.81 63.806 53.251 137.077 76.061 73.272 22.811 82.758-7.623 156.029 15.188" stroke="url(#J)" stroke-miterlimit="10" stroke-width=".714286"/><path d="m-174.741 18.8135c73.271 22.8106 63.795 53.2478 137.0666 76.0585 73.2713 22.811 82.7469-7.6266 156.0184 15.184 73.271 22.811 63.795 53.248 137.077 76.062s82.747-7.627 156.018 15.184c73.272 22.811 63.806 53.251 137.078 76.062 73.271 22.81 82.757-7.623 156.028 15.187" stroke="url(#K)" stroke-miterlimit="10" stroke-width=".714286"/><path d="m-171.78 9.30175c73.271 22.81065 63.795 53.24785 137.0666 76.05855 73.2712 22.8107 82.7469-7.6266 156.0184 15.1837 73.271 22.811 63.795 53.248 137.077 76.062s82.747-7.626 156.018 15.184c73.272 22.811 63.806 53.251 137.078 76.062 73.271 22.811 82.757-7.623 156.028 15.187" stroke="url(#L)" stroke-miterlimit="10" stroke-width=".714286"/><path d="m-168.819-.209797c73.2714 22.810697 63.796 53.247897 137.067 76.058497 73.2712 22.8107 82.7469-7.6265 156.018 15.1841 73.271 22.8102 63.796 53.2482 137.078 76.0622 73.281 22.814 82.746-7.627 156.018 15.184 73.271 22.81 63.806 53.251 137.077 76.062 73.271 22.81 82.758-7.624 156.029 15.187" stroke="url(#M)" stroke-miterlimit="10" stroke-width=".714286"/><path d="m-165.858-9.72148c73.2713 22.81068 63.796 53.24788 137.0669 76.05848 73.2713 22.8107 82.7469-7.6265 156.0181 15.1841 73.271 22.8109 63.796 53.2479 137.077 76.0619 73.282 22.814 82.747-7.627 156.019 15.184 73.271 22.811 63.806 53.251 137.077 76.062 73.271 22.81 82.757-7.623 156.029 15.187" stroke="url(#N)" stroke-miterlimit="10" stroke-width=".714286"/><path d="m-162.896-19.2332c73.2708 22.81064 63.7951 53.2479 137.0664 76.0585 73.2712 22.8107 82.7469-7.6266 156.0186 15.1841 73.271 22.8106 63.795 53.2476 137.077 76.0616s82.747-7.626 156.018 15.184c73.271 22.811 63.806 53.251 137.077 76.062 73.272 22.811 82.758-7.623 156.029 15.187" stroke="url(#O)" stroke-miterlimit="10" stroke-width=".714286"/><path d="m-159.936-28.7448c73.2717 22.8107 63.7961 53.2479 137.0673 76.0586 73.2712 22.8106 82.7469-7.6266 156.0177 15.1841 73.272 22.8106 63.796 53.2481 137.078 76.0621s82.747-7.627 156.018 15.184c73.271 22.81 63.806 53.251 137.077 76.062 73.272 22.81 82.758-7.624 156.029 15.187" stroke="url(#P)" stroke-miterlimit="10" stroke-width=".714286"/><path d="m-156.975-38.2563c73.2716 22.8107 63.796 53.2479 137.0672 76.0585 73.2713 22.8107 82.7469-7.6265 156.0178 15.1841 73.272 22.8107 63.796 53.2477 137.078 76.0617s82.747-7.626 156.018 15.184c73.271 22.811 63.806 53.251 137.077 76.062 73.272 22.811 82.758-7.623 156.029 15.187" stroke="url(#Q)" stroke-miterlimit="10" stroke-width=".714286"/><path d="m-154.013-47.768c73.2711 22.8106 63.7954 53.24786 137.0667 76.0585 73.2712 22.8107 82.7469-7.6266 156.0183 15.1841 73.271 22.8107 63.795 53.2479 137.077 76.0614 73.282 22.814 82.747-7.626 156.018 15.185 73.272 22.81 63.807 53.251 137.078 76.061 73.271 22.811 82.757-7.623 156.028 15.188" stroke="url(#R)" stroke-miterlimit="10" stroke-width=".714286"/><path d="m-151.052-57.2796c73.271 22.8107 63.7954 53.24791 137.0666 76.0586 73.2712 22.8106 82.7469-7.6266 156.0184 15.1841 73.271 22.8106 63.795 53.2478 137.077 76.0619 73.282 22.814 82.747-7.627 156.018 15.184 73.272 22.811 63.806 53.251 137.078 76.062 73.271 22.81 82.757-7.624 156.028 15.187" stroke="url(#S)" stroke-miterlimit="10" stroke-width=".714286"/><path d="m-148.091-66.7912c73.2714 22.8106 63.7958 53.2478 137.067 76.05848 73.2713 22.81062 82.7469-7.62656 156.018 15.18412 73.271 22.8106 63.796 53.2478 137.078 76.0616 73.281 22.814 82.746-7.6264 156.018 15.184 73.271 22.811 63.806 53.251 137.077 76.062s82.758-7.623 156.029 15.187" stroke="url(#T)" stroke-miterlimit="10" stroke-width=".714286"/><path d="m-145.13-76.303c73.2714 22.8107 63.7957 53.2479 137.06696 76.058545 73.27124 22.810655 82.74694-7.626555 156.01804 15.184055 73.271 22.8107 63.796 53.2479 137.077 76.0618 73.282 22.8136 82.747-7.6265 156.019 15.1846 73.271 22.81 63.806 53.251 137.077 76.061 73.271 22.811 82.758-7.623 156.029 15.188" stroke="url(#U)" stroke-miterlimit="10" stroke-width=".714286"/><path d="m-142.169-85.8145c73.2713 22.8106 63.7957 53.2479 137.0669 76.05851 73.2712 22.81069 82.7469-7.62651 156.0181 15.1841 73.271 22.81069 63.796 53.24789 137.077 76.06179 73.282 22.8141 82.747-7.6265 156.019 15.1841 73.271 22.811 63.806 53.251 137.077 76.062 73.271 22.81 82.757-7.623 156.029 15.187" stroke="url(#V)" stroke-miterlimit="10" stroke-width=".714286"/><path d="m-139.208-95.326c73.2717 22.8106 63.7961 53.2478 137.06733 76.0585 73.27127 22.81064 82.74687-7.6266 156.01767 15.18408 73.272 22.81062 63.796 53.24782 137.078 76.06182 73.282 22.8139 82.747-7.6266 156.018 15.1841 73.271 22.8105 63.806 53.2515 137.077 76.0615 73.272 22.811 82.758-7.623 156.029 15.188" stroke="url(#W)" stroke-miterlimit="10" stroke-width=".714286"/><path d="m-136.247-104.838c73.2717 22.8109 63.796 53.2481 137.067263 76.0588 73.271237 22.81061 82.746937-7.6266 156.017737 15.1841 73.272 22.8106 63.796 53.2478 137.078 76.0618 73.282 22.8139 82.747-7.6266 156.018 15.1841 73.271 22.8102 63.806 53.2512 137.077 76.0622 73.272 22.81 82.758-7.624 156.029 15.187" stroke="url(#X)" stroke-miterlimit="10" stroke-width=".714286"/><path d="m-133.285-114.349c73.2711 22.8104 63.7954 53.2476 137.06669 76.0582 73.27121 22.8107 82.74691-7.6265 156.01831 15.1841 73.271 22.810661 63.795 53.2479 137.077 76.0618s82.747-7.6265 156.018 15.1841c73.272 22.8107 63.807 53.2508 137.078 76.0618s82.757-7.623 156.028 15.187" stroke="url(#Y)" stroke-miterlimit="10" stroke-width=".714286"/><path d="m-130.324-123.861c73.271 22.811 63.7954 53.2479 137.06663 76.0585 73.27127 22.8107 82.74687-7.6265 156.02837 15.1874 73.282 22.81394 63.796 53.2479 137.078 76.0618s82.747-7.6266 156.018 15.1841c73.271 22.8106 63.806 53.2512 137.077 76.0622 73.272 22.81 82.758-7.624 156.029 15.187" stroke="url(#Z)" stroke-miterlimit="10" stroke-width=".714286"/><path d="m-127.363-133.373c73.2715 22.811 63.7958 53.2481 137.06705 76.0588 73.27125 22.8106 82.74685-7.6266 156.02895 15.1874 73.282 22.8139 63.795 53.2478 137.077 76.0618 73.282 22.8139 82.747-7.6266 156.018 15.1841 73.272 22.8106 63.806 53.2509 137.078 76.0619 73.271 22.811 82.747-7.627 156.028 15.187" stroke="url(#aa)" stroke-miterlimit="10" stroke-width=".714286"/></g></mask><mask id="a3" height="416" maskUnits="userSpaceOnUse" width="389" x="0" y="0"><g clip-path="url(#a1)" fill="none"><path d="m300.352 700.263c22.811-73.271 53.248-63.796 76.059-137.067 22.81-73.271-7.627-82.747 15.184-156.018 22.81-73.271 53.247-63.796 76.061-137.078 22.814-73.281-7.626-82.747 15.185-156.018 22.81-73.271 53.251-63.8059 76.061-137.0772 22.811-73.2712-7.623-82.7578 15.188-156.0288" stroke="url(#ab)" stroke-miterlimit="10" stroke-width=".714286"/><path d="m290.841 697.302c22.81-73.271 53.248-63.796 76.058-137.067 22.811-73.271-7.626-82.747 15.184-156.018 22.811-73.271 53.248-63.796 76.062-137.078 22.814-73.281-7.626-82.746 15.184-156.018 22.811-73.2709 53.251-63.8058 76.062-137.0771 22.811-73.2712-7.623-82.7579 15.187-156.0289" stroke="url(#ac)" stroke-miterlimit="10" stroke-width=".714286"/><path d="m281.329 694.341c22.811-73.271 53.248-63.796 76.059-137.067 22.81-73.271-7.627-82.747 15.184-156.018 22.81-73.271 53.248-63.796 76.061-137.078 22.814-73.281-7.626-82.747 15.185-156.018 22.81-73.271 53.251-63.8059 76.061-137.0772 22.811-73.2708-7.623-82.7578 15.188-156.0288" stroke="url(#ad)" stroke-miterlimit="10" stroke-width=".714286"/><path d="m271.817 691.38c22.811-73.272 53.248-63.796 76.059-137.067 22.811-73.272-7.627-82.747 15.184-156.018 22.811-73.272 53.248-63.796 76.062-137.078s-7.627-82.747 15.184-156.018c22.811-73.2713 53.251-63.8062 76.062-137.0774 22.81-73.2716-7.624-82.7576 15.187-156.0286" stroke="url(#ae)" stroke-miterlimit="10" stroke-width=".714286"/><path d="m262.306 688.418c22.81-73.271 53.248-63.795 76.058-137.066 22.811-73.272-7.626-82.747 15.184-156.019 22.811-73.271 53.248-63.795 76.062-137.077s-7.626-82.747 15.184-156.018c22.811-73.2714 53.251-63.8063 76.062-137.0776 22.811-73.2714-7.623-82.7574 15.187-156.0284" stroke="url(#af)" stroke-miterlimit="10" stroke-width=".714286"/><path d="m252.794 685.457c22.811-73.271 53.248-63.795 76.058-137.067 22.811-73.271-7.626-82.746 15.185-156.018 22.81-73.271 53.247-63.795 76.061-137.077s-7.626-82.747 15.184-156.0183c22.811-73.2712 53.252-63.8061 76.062-137.0774 22.811-73.2713-7.623-82.7573 15.188-156.0283" stroke="url(#ag)" stroke-miterlimit="10" stroke-width=".714286"/><path d="m243.282 682.496c22.811-73.271 53.248-63.795 76.059-137.067 22.81-73.271-7.627-82.747 15.184-156.018 22.81-73.271 53.248-63.795 76.062-137.077s-7.627-82.747 15.184-156.0184c22.81-73.2712 53.251-63.8062 76.062-137.0774 22.81-73.2712-7.624-82.7572 15.187-156.0282" stroke="url(#ah)" stroke-miterlimit="10" stroke-width=".714286"/><path d="m233.771 679.535c22.81-73.271 53.247-63.796 76.058-137.067s-7.627-82.747 15.184-156.018 53.248-63.796 76.062-137.077c22.814-73.282-7.627-82.747 15.184-156.0186 22.811-73.2713 53.251-63.8062 76.062-137.0774 22.81-73.271-7.623-82.757 15.187-156.029" stroke="url(#ai)" stroke-miterlimit="10" stroke-width=".714286"/><path d="m224.259 676.574c22.81-73.271 53.248-63.796 76.058-137.067 22.811-73.271-7.626-82.747 15.184-156.018 22.811-73.271 53.248-63.796 76.062-137.078 22.814-73.281-7.626-82.747 15.184-156.0178 22.811-73.2712 53.251-63.8061 76.062-137.0774 22.811-73.2708-7.623-82.7578 15.187-156.0288" stroke="url(#aj)" stroke-miterlimit="10" stroke-width=".714286"/><path d="m214.748 673.613c22.81-73.272 53.247-63.796 76.058-137.067s-7.626-82.747 15.184-156.018c22.811-73.272 53.248-63.796 76.062-137.078 22.814-73.281-7.627-82.747 15.184-156.0178 22.811-73.2713 53.251-63.8062 76.062-137.0774 22.81-73.2708-7.623-82.7578 15.187-156.0288" stroke="url(#ak)" stroke-miterlimit="10" stroke-width=".714286"/><path d="m205.236 670.651c22.81-73.271 53.248-63.795 76.058-137.066 22.811-73.272-7.626-82.747 15.184-156.018 22.811-73.272 53.248-63.796 76.062-137.078s-7.626-82.747 15.184-156.0181c22.811-73.2712 53.251-63.8061 76.062-137.0774 22.811-73.2715-7.623-82.7575 15.187-156.0285" stroke="url(#al)" stroke-miterlimit="10" stroke-width=".714286"/><path d="m195.724 667.69c22.811-73.271 53.248-63.795 76.059-137.066 22.81-73.272-7.627-82.747 15.184-156.019 22.81-73.271 53.248-63.795 76.062-137.077 22.813-73.282-7.627-82.747 15.184-156.0181 22.81-73.27127 53.251-63.8062 76.061-137.0774 22.811-73.2715-7.623-82.7575 15.188-156.0285" stroke="url(#am)" stroke-miterlimit="10" stroke-width=".714286"/><path d="m186.213 664.729c22.811-73.271 53.248-63.795 76.058-137.066 22.811-73.272-7.626-82.747 15.184-156.019 22.811-73.271 53.248-63.795 76.062-137.077s-7.626-82.747 15.184-156.0182c22.811-73.27123 53.252-63.8061 76.062-137.0774 22.811-73.2714-7.623-82.7574 15.188-156.0284" stroke="url(#an)" stroke-miterlimit="10" stroke-width=".714286"/><path d="m176.701 661.768c22.811-73.271 53.248-63.795 76.059-137.067 22.81-73.271-7.627-82.747 15.184-156.018 22.81-73.271 53.248-63.795 76.062-137.077 22.813-73.282-7.627-82.747 15.184-156.0184 22.81-73.27128 53.251-63.8062 76.061-137.0774 22.811-73.2712-7.623-82.7572 15.188-156.0292" stroke="url(#ao)" stroke-miterlimit="10" stroke-width=".714286"/><path d="m167.189 658.807c22.811-73.271 53.248-63.795 76.059-137.067 22.811-73.271-7.627-82.747 15.184-156.018s53.248-63.795 76.062-137.077-7.627-82.747 15.184-156.0184c22.811-73.271274 53.251-63.80618 76.062-137.0774 22.81-73.2712-7.624-82.7572 15.187-156.0292" stroke="url(#ap)" stroke-miterlimit="10" stroke-width=".714286"/><path d="m157.678 655.846c22.81-73.271 53.248-63.796 76.058-137.067 22.811-73.271-7.626-82.747 15.184-156.018 22.811-73.271 53.248-63.796 76.062-137.077 22.814-73.282-7.626-82.747 15.184-156.0187 22.811-73.27122 53.251-63.80612 76.062-137.0774 22.811-73.2709-7.623-82.7579 15.187-156.0289" stroke="url(#aq)" stroke-miterlimit="10" stroke-width=".714286"/><path d="m148.166 652.885c22.811-73.272 53.248-63.796 76.059-137.067 22.81-73.272-7.627-82.747 15.184-156.018 22.81-73.272 53.247-63.796 76.061-137.078s-7.626-82.747 15.185-156.018c22.81-73.27122 53.251-63.80612 76.061-137.0774 22.811-73.2716-7.623-82.7576 15.188-156.0286" stroke="url(#ar)" stroke-miterlimit="10" stroke-width=".714286"/><path d="m138.655 649.924c22.81-73.272 53.248-63.796 76.058-137.067 22.811-73.271-7.626-82.747 15.184-156.018 22.811-73.272 53.248-63.796 76.062-137.078s-7.626-82.747 15.184-156.0179c22.811-73.27126 53.251-63.8061602 76.062-137.0774 22.811-73.2717-7.623-82.7577 15.187-156.0287" stroke="url(#as)" stroke-miterlimit="10" stroke-width=".714286"/><path d="m129.143 646.962c22.811-73.271 53.248-63.795 76.059-137.066 22.81-73.272-7.627-82.747 15.184-156.019 22.81-73.271 53.248-63.795 76.061-137.077 22.814-73.282-7.626-82.747 15.185-156.0181 22.81-73.2712 53.251-63.80614 76.061-137.0774 22.811-73.2715-7.623-82.7575 15.188-156.0285" stroke="url(#at)" stroke-miterlimit="10" stroke-width=".714286"/><path d="m119.631 644.001c22.811-73.271 53.248-63.795 76.059-137.067 22.81-73.271-7.627-82.746 15.184-156.018 22.811-73.271 53.248-63.795 76.062-137.077s-7.627-82.747 15.184-156.0183c22.81-73.2712 53.251-63.80612 76.062-137.0774 22.81-73.2713-7.624-82.7573 15.187-156.0283" stroke="url(#au)" stroke-miterlimit="10" stroke-width=".714286"/><path d="m110.12 641.04c22.81-73.271 53.247-63.795 76.058-137.067 22.811-73.271-7.626-82.747 15.184-156.018 22.811-73.271 53.248-63.795 76.062-137.077s-7.627-82.747 15.184-156.0183 53.251-63.80618 76.062-137.0774c22.811-73.2713-7.623-82.7573 15.187-156.0283" stroke="url(#av)" stroke-miterlimit="10" stroke-width=".714286"/><path d="m100.608 638.079c22.811-73.271 53.248-63.796 76.058-137.067 22.811-73.271-7.626-82.747 15.185-156.018 22.81-73.271 53.247-63.796 76.061-137.077 22.814-73.282-7.626-82.747 15.184-156.0185 22.811-73.2713 53.252-63.8062 76.062-137.0774 22.811-73.2711-7.623-82.7571 15.188-156.0291" stroke="url(#aw)" stroke-miterlimit="10" stroke-width=".714286"/><path d="m91.0962 635.118c22.8108-73.271 53.2478-63.796 76.0588-137.067 22.81-73.271-7.627-82.747 15.184-156.018 22.81-73.271 53.248-63.796 76.062-137.078 22.814-73.281-7.627-82.747 15.184-156.0178 22.81-73.2712 53.251-63.8061 76.061-137.0774 22.811-73.2708-7.623-82.7578 15.188-156.0288" stroke="url(#ax)" stroke-miterlimit="10" stroke-width=".714286"/><path d="m81.5845 632.157c22.8105-73.272 53.2475-63.796 76.0585-137.067s-7.627-82.747 15.184-156.018 53.248-63.796 76.062-137.078c22.814-73.281-7.627-82.747 15.184-156.0178 22.811-73.2713 53.251-63.8062 76.062-137.0774 22.81-73.2708-7.624-82.7578 15.187-156.0288" stroke="url(#ay)" stroke-miterlimit="10" stroke-width=".714286"/><path d="m72.0732 629.195c22.8107-73.271 53.2478-63.795 76.0588-137.066 22.81-73.272-7.627-82.747 15.184-156.018 22.81-73.272 53.248-63.796 76.062-137.078s-7.627-82.747 15.184-156.0181c22.81-73.2712 53.251-63.8061 76.062-137.0774 22.81-73.2715-7.624-82.7575 15.187-156.0285" stroke="url(#az)" stroke-miterlimit="10" stroke-width=".714286"/><path d="m62.5615 626.234c22.8107-73.271 53.2475-63.795 76.0585-137.066 22.811-73.272-7.627-82.747 15.184-156.019 22.811-73.271 53.248-63.795 76.062-137.077s-7.627-82.747 15.184-156.0182 53.251-63.8061 76.062-137.0774c22.81-73.2714-7.623-82.7574 15.187-156.0284" stroke="url(#aA)" stroke-miterlimit="10" stroke-width=".714286"/><path d="m53.0498 623.273c22.8107-73.271 53.2482-63.795 76.0582-137.067 22.811-73.271-7.626-82.746 15.184-156.018 22.811-73.271 53.248-63.795 76.062-137.077s-7.626-82.747 15.184-156.0183c22.811-73.2712 53.251-63.8061 76.062-137.0774s-7.623-82.7573 15.187-156.0283" stroke="url(#aB)" stroke-miterlimit="10" stroke-width=".714286"/><path d="m43.5381 620.312c22.8106-73.271 53.2478-63.796 76.0589-137.067 22.81-73.271-7.627-82.747 15.184-156.018 22.81-73.271 53.248-63.795 76.061-137.077 22.814-73.282-7.626-82.747 15.185-156.0185 22.81-73.2712 53.251-63.8061 76.061-137.0775 22.811-73.271-7.623-82.757 15.188-156.029" stroke="url(#aC)" stroke-miterlimit="10" stroke-width=".714286"/><path d="m34.0269 617.351c22.8106-73.271 53.2478-63.796 76.0581-137.067 22.811-73.271-7.626-82.747 15.184-156.018 22.811-73.271 53.248-63.796 76.062-137.077 22.814-73.282-7.626-82.747 15.184-156.0187 22.811-73.2712 53.251-63.8061 76.062-137.0773 22.811-73.271-7.623-82.757 15.188-156.029" stroke="url(#aD)" stroke-miterlimit="10" stroke-width=".714286"/><path d="m24.5151 614.39c22.8107-73.271 53.2479-63.796 76.0589-137.067 22.81-73.271-7.6269-82.747 15.184-156.018 22.81-73.271 53.248-63.796 76.062-137.078 22.813-73.281-7.627-82.746 15.184-156.0177 22.81-73.2713 53.251-63.8062 76.061-137.0773 22.811-73.271-7.623-82.758 15.188-156.029" stroke="url(#aE)" stroke-miterlimit="10" stroke-width=".714286"/><path d="m15.0034 611.429c22.8107-73.272 53.2479-63.796 76.0585-137.067 22.8111-73.271-7.6265-82.747 15.1841-156.018 22.811-73.272 53.248-63.796 76.062-137.078 22.814-73.281-7.627-82.7466 15.184-156.0178 22.811-73.2713 53.251-63.8062 76.062-137.0772 22.81-73.271-7.624-82.758 15.187-156.029" stroke="url(#aF)" stroke-miterlimit="10" stroke-width=".714286"/><path d="m5.4917 608.467c22.8106-73.271 53.2479-63.795 76.0585-137.066 22.8108-73.272-7.6266-82.747 15.1841-156.019 22.8107-73.271 53.2477-63.795 76.0617-137.077s-7.626-82.7468 15.184-156.0181c22.811-73.2712 53.251-63.8061 76.062-137.0769 22.811-73.272-7.623-82.758 15.187-156.029" stroke="url(#aG)" stroke-miterlimit="10" stroke-width=".714286"/><path d="m-4.02002 605.506c22.81062-73.271 53.24782-63.795 76.05852-137.066 22.8106-73.272-7.6266-82.747 15.1841-156.019 22.8104-73.271 53.2474-63.795 76.0614-137.077s-7.626-82.747 15.184-156.0182c22.811-73.2713 53.252-63.8062 76.062-137.0778 22.811-73.271-7.623-82.757 15.188-156.028" stroke="url(#aH)" stroke-miterlimit="10" stroke-width=".714286"/><path d="m-13.5317 602.545c22.81061-73.271 53.2478-63.795 76.0585-137.067 22.8106-73.271-7.6266-82.746 15.1841-156.018 22.8111-73.271 53.2481-63.795 76.0621-137.077 22.814-73.2819-7.627-82.747 15.184-156.0183 22.81-73.2712 53.251-63.8061 76.062-137.0777 22.81-73.271-7.624-82.757 15.187-156.028" stroke="url(#aI)" stroke-miterlimit="10" stroke-width=".714286"/><path d="m-23.043 599.584c22.810681-73.271 53.2479-63.796 76.0585-137.067 22.8107-73.271-7.6265-82.747 15.1841-156.018 22.8107-73.271 53.2474-63.796 76.0614-137.077 22.814-73.2821-7.626-82.7473 15.185-156.0185 22.81-73.2713 53.251-63.8062 76.061-137.0775 22.811-73.271-7.623-82.757 15.188-156.029" stroke="url(#aJ)" stroke-miterlimit="10" stroke-width=".714286"/><path d="m-32.5547 596.623c22.81066-73.271 53.2479-63.796 76.0585-137.067 22.8107-73.271-7.6265-82.747 15.1841-156.018 22.8107-73.271 53.2481-63.796 76.0621-137.077 22.814-73.2822-7.627-82.7473 15.184-156.0186 22.81-73.2712 53.251-63.8061 76.062-137.0774 22.81-73.271-7.624-82.757 15.187-156.029" stroke="url(#aK)" stroke-miterlimit="10" stroke-width=".714286"/><path d="m-42.0664 593.662c22.8106-73.271 53.2479-63.796 76.0585-137.067 22.8107-73.271-7.6266-82.747 15.1841-156.018 22.8106-73.271 53.2478-63.796 76.0618-137.078 22.814-73.2813-7.627-82.7464 15.184-156.01769 22.811-73.27121 53.251-63.80611 76.062-137.07731 22.811-73.271-7.623-82.758 15.187-156.029" stroke="url(#aL)" stroke-miterlimit="10" stroke-width=".714286"/><path d="m-51.5781 590.701c22.8106-73.272 53.24784-63.796 76.0585-137.067 22.8106-73.271-7.6266-82.747 15.1841-156.018 22.8106-73.272 53.2478-63.796 76.0615-137.078 22.814-73.2816-7.626-82.7467 15.184-156.01793 22.811-73.27127 53.252-63.80617 76.062-137.07707 22.811-73.272-7.623-82.758 15.188-156.029" stroke="url(#aM)" stroke-miterlimit="10" stroke-width=".714286"/><path d="m-61.0898 587.74c22.8106-73.272 53.24782-63.796 76.0585-137.067 22.8106-73.272-7.62659-82.747 15.1841-156.018 22.8106-73.272 53.2478-63.796 76.0622-137.078 22.813-73.2816-7.627-82.7467 15.184-156.01799 22.81-73.27121 53.251-63.80611 76.061-137.07701 22.811-73.272-7.623-82.758 15.188-156.029" stroke="url(#aN)" stroke-miterlimit="10" stroke-width=".714286"/><path d="m-70.6011 584.778c22.8107-73.271 53.2479-63.795 76.05854-137.066 22.81066-73.272-7.62656-82.747 15.18406-156.019 22.8107-73.271 53.2479-63.795 76.0618-137.077 22.8137-73.2817-7.6265-82.7469 15.1837-156.01811 22.811-73.27129 53.252-63.80619 76.062-137.07789 22.811-73.271-7.623-82.757 15.188-156.028" stroke="url(#aO)" stroke-miterlimit="10" stroke-width=".714286"/><path d="m-80.1128 581.817c22.8107-73.271 53.2479-63.795 76.05852-137.067 22.81068-73.271-7.62652-82.747 15.18408-156.018 22.8107-73.271 53.2479-63.795 76.0618-137.077 22.8144-73.282-7.6266-82.7471 15.1844-156.01836 22.81-73.27124 53.251-63.80614 76.061-137.07764 22.811-73.271-7.623-82.757 15.188-156.028" stroke="url(#aP)" stroke-miterlimit="10" stroke-width=".714286"/><path d="m-89.6245 578.856c22.8106-73.271 53.2478-63.795 76.0585-137.067 22.81065-73.271-7.6266-82.747 15.18409-156.018 22.81061-73.271 53.24781-63.795 76.06181-137.077 22.8141-73.2821-7.6266-82.7472 15.1841-156.01842 22.811-73.27128 53.251-63.80618 76.062-137.07758 22.81-73.271-7.624-82.757 15.187-156.028" stroke="url(#aQ)" stroke-miterlimit="10" stroke-width=".714286"/><path d="m-99.1362 575.895c22.8106-73.271 53.2478-63.796 76.0585-137.067 22.810631-73.271-7.6266-82.747 15.18407-156.018 22.81063-73.271 53.24783-63.796 76.06183-137.077 22.8139-73.2822-7.6266-82.7473 15.1841-156.0185 22.8107-73.2713 53.2507-63.8062 76.0617-137.0775 22.811-73.271-7.623-82.757 15.187-156.029" stroke="url(#aR)" stroke-miterlimit="10" stroke-width=".714286"/><path d="m-108.648 572.934c22.8107-73.271 53.2479-63.796 76.0586-137.067 22.81061-73.271-7.6266-82.747 15.1841-156.018 22.8106-73.271 53.2478-63.796 76.0617-137.078 22.814-73.2814-7.6265-82.7465 15.1841-156.0178 22.8107-73.2712 53.2515-63.8061 76.0615-137.0772 22.811-73.271-7.623-82.758 15.188-156.029" stroke="url(#aS)" stroke-miterlimit="10" stroke-width=".714286"/><path d="m-118.16 569.973c22.811-73.272 53.2482-63.796 76.0588-137.067 22.8107-73.271-7.6265-82.747 15.1841-156.018 22.81068-73.272 53.2479-63.796 76.0618-137.078 22.814-73.2815-7.6265-82.7466 15.1841-156.0178 22.8107-73.2713 53.2512-63.8062 76.0622-137.0772 22.81-73.271-7.624-82.758 15.187-156.029" stroke="url(#aT)" stroke-miterlimit="10" stroke-width=".714286"/><path d="m-127.671 567.012c22.811-73.272 53.248-63.796 76.0586-137.067 22.8107-73.272-7.6265-82.747 15.1841-156.018 22.8107-73.272 53.2479-63.796 76.0618-137.078 22.8139-73.2817-7.6266-82.7468 15.1841-156.018 22.8106-73.2713 53.2514-63.8062 76.0614-137.077 22.811-73.272-7.623-82.758 15.188-156.029" stroke="url(#aU)" stroke-miterlimit="10" stroke-width=".714286"/><path d="m-137.183 564.05c22.811-73.271 53.2482-63.795 76.0589-137.066 22.8106-73.272-7.6266-82.747 15.1841-156.019 22.8106-73.271 53.24784-63.795 76.0618-137.077 22.8139-73.2818-7.6266-82.7469 15.1841-156.0181 22.8106-73.2713 53.2511-63.8062 76.0621-137.0779 22.81-73.271-7.624-82.757 15.187-156.028" stroke="url(#aV)" stroke-miterlimit="10" stroke-width=".714286"/><path d="m-146.694 561.089c22.81-73.271 53.2475-63.795 76.0582-137.067 22.8106-73.271-7.6266-82.746 15.1841-156.018 22.8106-73.271 53.24782-63.795 76.0618-137.077 22.8139-73.2819-7.6266-82.747 15.1841-156.0183 22.8106-73.2712 53.2511-63.8061 76.0618-137.0777 22.811-73.271-7.623-82.757 15.187-156.028" stroke="url(#aW)" stroke-miterlimit="10" stroke-width=".714286"/><path d="m-156.206 558.128c22.811-73.271 53.248-63.795 76.0585-137.067 22.8106-73.271-7.6266-82.747 15.184-156.018 22.8107-73.271 53.2479-63.795 76.0618-137.077 22.814-73.282-7.62651-82.7471 15.1841-156.0184 22.8107-73.2716 53.2512-63.8061 76.0616-137.0776 22.811-73.271-7.623-82.757 15.188-156.028" stroke="url(#aX)" stroke-miterlimit="10" stroke-width=".714286"/><path d="m-165.717 555.167c22.81-73.271 53.248-63.796 76.0582-137.067 22.8107-73.271-7.6265-82.747 15.1874-156.029 22.8139-73.281 53.2479-63.795 76.0618-137.077 22.8139-73.2818-7.62657-82.7469 15.1841-156.0181 22.8106-73.2709 53.2511-63.8062 76.0618-137.0779 22.8107-73.271-7.6233-82.757 15.1877-156.028" stroke="url(#aY)" stroke-miterlimit="10" stroke-width=".714286"/><path d="m-175.229 552.206c22.81-73.271 53.247-63.796 76.058-137.067 22.8107-73.271-7.627-82.747 15.1874-156.029 22.8139-73.282 53.2479-63.795 76.06179-137.077 22.81391-73.282-7.62659-82.747 15.18408-156.0183 22.81063-73.2717 53.25113-63.8062 76.06183-137.0777 22.8109-73.271-7.6266-82.747 15.1874-156.028" stroke="url(#aZ)" stroke-miterlimit="10" stroke-width=".714286"/></g></mask><path d="m176.135 58.0016 196.416 61.1474-91.934 295.307-231.8802-72.189 81.6362-262.229z" fill="#d9d9d9" opacity=".2"/><g mask="url(#a2)"><path d="m176.136 58.0018 196.416 61.1482-91.934 295.306-231.8802-72.189 81.6362-262.2288z" fill="#d9d9d9"/></g><path d="m153.436 29.9882 196.416 61.1479-91.934 295.3059-231.8804-72.188 81.6364-262.2294z" fill="#d9d9d9" opacity=".2"/><g mask="url(#a3)"><path d="m153.437 29.9884 196.416 61.1478-91.934 295.3058-231.8805-72.188 81.6365-262.2292z" fill="#d9d9d9"/></g></svg>