<svg fill="none" height="28" viewBox="0 0 29 28" width="29" xmlns="http://www.w3.org/2000/svg" xmlns:xlink="http://www.w3.org/1999/xlink"><clipPath id="a"><path d="m.709656 0h28v28h-28z"/></clipPath><g clip-path="url(#a)"><path d="m14.7097 28c7.7319 0 14-6.268 14-14 0-7.73199-6.2681-14-14-14-7.73203 0-14.000044 6.26801-14.000044 14 0 7.732 6.268014 14 14.000044 14z" fill="#f0f0f0"/><g fill="#d80027"><path d="m14.101 14h14.6087c0-1.2636-.1685-2.4878-.4823-3.6522h-14.1264z"/><path d="m14.101 6.69565h12.5539c-.8571-1.39847-1.9528-2.63457-3.2304-3.65219h-9.3235z"/><path d="m14.7097 28c3.2948 0 6.3232-1.1388 8.7147-3.0435h-17.42953c2.39149 1.9047 5.41993 3.0435 8.71483 3.0435z"/><path d="m2.76449 21.3043h23.89031c.6881-1.1227 1.2216-2.3499 1.5726-3.6522h-27.03544c.35093 1.3023.88451 2.5295 1.57253 3.6522z"/></g><path d="m7.19472 2.1863h1.2758l-1.18672.86215.45331 1.39502-1.18666-.86215-1.18667.86215.39156-1.20515c-1.04486.87035-1.96065 1.89006-2.71534 3.02624h.40879l-.7554.54879c-.11769.19633-.23056.39577-.33873.59817l.36071 1.11021-.67298-.48896c-.16729.35443-.3203.71685-.45784 1.08681l.39741 1.22322h1.46683l-1.18672.8622.4533 1.395-1.18666-.8621-.710828.5164c-.071148.5719-.108226 1.1545-.108226 1.7457h14.000044c0-7.73194 0-8.64347 0-14-2.7657 0-5.34383.802266-7.51498 2.1863zm.54239 10.4137-1.18666-.8621-1.18667.8621.45331-1.395-1.18672-.8622h1.46682l.45326-1.39499.45325 1.39499h1.46682l-1.18672.8622zm-.45331-5.47329.45331 1.39502-1.18666-.86214-1.18667.86214.45331-1.39502-1.18672-.86215h1.46682l.45326-1.39502.45325 1.39502h1.46682zm5.475 5.47329-1.1866-.8621-1.1867.8621.4533-1.395-1.1867-.8622h1.4668l.4533-1.39499.4532 1.39499h1.4669l-1.1868.8622zm-.4533-5.47329.4533 1.39502-1.1866-.86214-1.1867.86214.4533-1.39502-1.1867-.86215h1.4668l.4533-1.39502.4532 1.39502h1.4669zm0-4.07826.4533 1.39502-1.1866-.86215-1.1867.86215.4533-1.39502-1.1867-.86215h1.4668l.4533-1.395027.4532 1.395027h1.4669z" fill="#0052b4"/></g></svg>