<svg fill="none" height="130" viewBox="0 0 174 130" width="174" xmlns="http://www.w3.org/2000/svg" xmlns:xlink="http://www.w3.org/1999/xlink"><clipPath id="a"><path d="m0 0h124.106v124.106h-124.106z" transform="matrix(.919502 -.393084 -.350427 .93659 75.8643 4.44739)"/></clipPath><path d="m135.626-20.4244c17.569-7.5948 27.886-5.0649 33.95 3.6498 4.984 7.16196 11.774 14.27091 3.482 33.5829-11.951 32.7593-47.052 70.5756-79.0605 84.4117-12.6913 7.196-24.6215 5.453-32.1237.6-9.114-5.8969-14.9963-18.7187-8.4412-36.6872 11.951-32.7593 50.1844-71.72083 82.1934-85.5572z" fill="#673ab7"/><g clip-path="url(#a)"><path d="m89.4321 96.2916c31.5119-13.4714 66.7929-50.4124 78.8029-82.5102 12.009-32.0977-3.801-47.1974-35.313-33.726-31.512 13.47131-66.7932 50.4124-78.8027 82.5101-12.0094 32.0977 3.8006 47.1975 35.3128 33.7261z" fill="#f0f0f0"/><g fill="#d80027"><path d="m108.696 39.234 59.539-25.4525c1.962-5.24566 3.177-10.03389 3.707-14.321091l-57.573 24.612191z"/><path d="m120.042 8.9117 51.163-21.8724c-1.32-4.3123-3.866-7.5346-7.493-9.5331l-37.998 16.24417z"/><path d="m89.432 96.2919c13.428-5.7406 27.54-15.7446 40.245-27.818l-71.0354 30.3673c6.7883 3.7398 17.362 3.1908 30.7904-2.5493z"/><path d="m51.1486 89.308 97.3664-41.6239c4.548-5.8593 8.629-11.8833 12.082-17.9011l-110.1847 47.1035c-.5926 4.7949-.324 8.9596.7363 12.4215z"/></g><path d="m98.8988 2.2245 5.1992-2.22281469-6.1753 5.64663469-.3193 5.00138-3.4972-1.51153-6.1754 5.64653 3.4677-5.68513c-5.6102 5.43353-10.9264 11.26223-15.7669 17.29373l1.666-.7122-3.9311 3.5943c-.7845 1.02-1.5543 2.0447-2.3096 3.0733l-.2542 3.9804-1.9834-.8573c-1.2323 1.7628-2.4188 3.5339-3.554 5.3093l-.2803 4.3857 5.9782-2.5557-6.1757 5.6467-.3193 5.0013-3.4972-1.5115-3.6992 3.3825c-1.1783 2.4982-2.2342 4.981-3.1525 7.4354l57.0577-24.392c12.009-32.09757 13.425-35.8816 21.745-58.1181-11.271 4.8185-23.025 12.64082-34.0232 22.1691zm-13.9642 42.2853-3.4972-1.5115-6.1754 5.6466 4.0142-6.581-3.4974-1.5114 5.9781-2.5556 4.014-6.5809-.3195 5.0015 5.9781-2.5557-6.1756 5.6467zm6.6537-21.9314-.3193 5.0014-3.4972-1.5116-6.1754 5.6466 4.0142-6.581-3.4974-1.5114 5.9781-2.5556 4.014-6.5809-.3195 5.0015 5.9782-2.5556zm13.8127 13.1821-3.497-1.5115-6.1757 5.6466 4.0143-6.581-3.4975-1.5114 5.9779-2.5556 4.014-6.5809-.319 5.0015 5.978-2.5557-6.176 5.6467zm6.654-21.9314-.32 5.0014-3.497-1.5116-6.175 5.6466 4.014-6.581-3.497-1.5114 5.978-2.5556 4.014-6.58087-.32 5.00147 5.978-2.55564zm6.334-16.93008-.319 5.00136-3.497-1.51152-6.176 5.64654 4.014-6.580936-3.497-1.511424 5.978-2.55564 4.014-6.5808-.319 5.00142 5.978-2.55564z" fill="#0052b4"/></g></svg>