<svg fill="none" height="24" viewBox="0 0 23 24" width="23" xmlns="http://www.w3.org/2000/svg"><path d="m11.3549 24c0-1.5759-.2937-3.1363-.8644-4.5922-.57059-1.4559-1.40702-2.7788-2.46141-3.8931-1.0544-1.1143-2.30612-1.9982-3.68376-2.6013-1.37763-.603-2.85419-.9134-4.34533-.9134 3.01149 0 5.89964-1.2643 8.02909-3.51474 2.12941-2.25043 3.32581-5.30267 3.32581-8.48526 0 3.18258 1.1963 6.23483 3.3257 8.48526 2.1294 2.25044 5.0176 3.51474 8.0291 3.51474-3.0115 0-5.8997 1.2642-8.0291 3.5147-2.1294 2.2504-3.3257 5.3027-3.3257 8.4853z" fill="#673ab7"/></svg>